SplineFontDB: 3.0
FontName: NovaFlatSlim-Bold
FullName: Nova Flat Slim Bold
FamilyName: Nova Flat Slim
Weight: Bold
Copyright: Copyright (c) 2020-2024 by Wojciech Kalinowski "wmk69" with Reserved Font Name "NovaFlatSlim-Bold".\nThis Font Software is licensed under the SIL Open Font License, Version 1.1.
Version: 3.1.0; 2021-05-23
ItalicAngle: 0
UnderlinePosition: -80
UnderlineWidth: 320
Ascent: 1638
Descent: 410
InvalidEm: 0
LayerCount: 2
Layer: 0 1 "Warstwa t+AUIA-a" 1
Layer: 1 1 "Plan pierwszy" 0
XUID: [1021 783 23647091 8360855]
StyleMap: 0x0020
FSType: 0
OS2Version: 3
OS2_WeightWidthSlopeOnly: 0
OS2_UseTypoMetrics: 1
CreationTime: 1260698820
ModificationTime: 1621761595
PfmFamily: 33
TTFWeight: 700
TTFWidth: 5
LineGap: 200
VLineGap: 0
Panose: 2 12 8 4 5 5 3 6 2 4
OS2TypoAscent: 2000
OS2TypoAOffset: 0
OS2TypoDescent: -500
OS2TypoDOffset: 0
OS2TypoLinegap: 200
OS2WinAscent: 2000
OS2WinAOffset: 0
OS2WinDescent: 500
OS2WinDOffset: 0
HheadAscent: 2000
HheadAOffset: 0
HheadDescent: -500
HheadDOffset: 0
OS2SubXSize: 1434
OS2SubYSize: 1331
OS2SubXOff: 0
OS2SubYOff: 287
OS2SupXSize: 1434
OS2SupYSize: 1331
OS2SupXOff: 0
OS2SupYOff: 977
OS2StrikeYSize: 102
OS2StrikeYPos: 512
OS2CapHeight: 1530
OS2XHeight: 1120
OS2Vendor: '    '
OS2CodePages: 20000093.00000000
OS2UnicodeRanges: 8000002f.4000204b.00000000.00000000
Lookup: 258 0 0 "'kern' Horizontal Kerning lookup 0" { "'kern' Horizontal Kerning lookup 0-1 subtable" [307,0,4] } ['kern' ('DFLT' <'dflt' > 'grek' <'dflt' > 'latn' <'dflt' > ) ]
MarkAttachClasses: 1
DEI: 91125
KernClass2: 65 55 "'kern' Horizontal Kerning lookup 0-1 subtable"
 134 A M N Agrave Aacute Acircumflex Atilde Adieresis Aring Ntilde Amacron Abreve Aogonek Nacute Ncommaaccent Ncaron Eng Aringacute uni1E40
 28 B germandbls uni1E02 uni1E9E
 47 C Ccedilla Cacute Ccircumflex Cdotaccent Ccaron
 122 D O Q Eth Ograve Oacute Ocircumflex Otilde Odieresis Oslash Dcaron Dcroat Omacron Obreve Ohungarumlaut Oslashacute uni1E0A

StartChar: .notdef
Encoding: 65536 -1 0
Width: 1034
Flags: W
HStem: 0 118<298 736> 1392 118<298 736>
VStem: 110 188<118 1392> 736 188<118 1392>
LayerCount: 2
Fore
SplineSet
110 0 m 1,0,-1
 110 1510 l 1,1,-1
 924 1510 l 1,2,-1
 924 0 l 1,3,-1
 110 0 l 1,0,-1
298 118 m 1,4,-1
 736 118 l 1,5,-1
 736 1392 l 1,6,-1
 298 1392 l 1,7,-1
 298 118 l 1,4,-1
EndSplineSet
Validated: 19457
EndChar

StartChar: exclam
Encoding: 33 33 4
Width: 640
GlyphClass: 2
Flags: W
HStem: -20 365<202.131 436.878> 1510 20G<427.823 480>
VStem: 140 360<42.5657 282.578> 160 320<542 1383>
LayerCount: 2
Fore
SplineSet
470 1530 m 1,0,-1
 480 1530 l 1,1,-1
 480 542 l 1,2,-1
 170 395 l 1,3,-1
 160 395 l 1,4,-1
 160 1383 l 1,5,-1
 470 1530 l 1,0,-1
320 -20 m 0,6,7
 244 -20 244 -20 192 34 c 128,-1,8
 140 88 140 88 140 162 c 0,9,10
 140 238 140 238 192 291 c 0,11,12
 245 345 245 345 320 345 c 128,-1,13
 395 345 395 345 447.5 291.5 c 128,-1,14
 500 238 500 238 500 163 c 128,-1,15
 500 88 500 88 447 34 c 128,-1,16
 394 -20 394 -20 320 -20 c 0,6,7
EndSplineSet
Validated: 19457
EndChar

StartChar: quotedbl
Encoding: 34 34 5
Width: 510
GlyphClass: 2
Flags: W
HStem: 1100 480
VStem: 30 180<1181 1499> 300 180<1181 1499>
LayerCount: 2
Fore
SplineSet
470 1580 m 1,0,-1
 480 1580 l 1,1,-1
 480 1181 l 1,2,-1
 310 1100 l 1,3,-1
 300 1100 l 1,4,-1
 300 1499 l 1,5,-1
 470 1580 l 1,0,-1
200 1580 m 1,6,-1
 210 1580 l 1,7,-1
 210 1181 l 1,8,-1
 40 1100 l 1,9,-1
 30 1100 l 1,10,-1
 30 1499 l 1,11,-1
 200 1580 l 1,6,-1
EndSplineSet
Validated: 19457
EndChar

StartChar: numbersign
Encoding: 35 35 6
Width: 1408
GlyphClass: 2
Flags: W
HStem: 460 180<190 408 588 820 1000 1218> 872 180<190 408 588 820 1000 1218>
VStem: 408 180<242 460 640 872 1052 1269> 820 180<242 460 640 872 1052 1269>
LayerCount: 2
Fore
SplineSet
578 1350 m 1,0,-1
 588 1350 l 1,1,-1
 588 1052 l 1,2,-1
 820 1052 l 1,3,-1
 820 1269 l 1,4,-1
 990 1350 l 1,5,-1
 1000 1350 l 1,6,-1
 1000 1052 l 1,7,-1
 1298 1052 l 1,8,-1
 1298 1042 l 1,9,-1
 1218 872 l 1,10,-1
 1000 872 l 1,11,-1
 1000 640 l 1,12,-1
 1298 640 l 1,13,-1
 1298 630 l 1,14,-1
 1218 460 l 1,15,-1
 1000 460 l 1,16,-1
 1000 242 l 1,17,-1
 830 161 l 1,18,-1
 820 161 l 1,19,-1
 820 460 l 1,20,-1
 588 460 l 1,21,-1
 588 242 l 1,22,-1
 418 161 l 1,23,-1
 408 161 l 1,24,-1
 408 460 l 1,25,-1
 110 460 l 1,26,-1
 110 470 l 1,27,-1
 190 640 l 1,28,-1
 408 640 l 1,29,-1
 408 872 l 1,30,-1
 110 872 l 1,31,-1
 110 882 l 1,32,-1
 190 1052 l 1,33,-1
 408 1052 l 1,34,-1
 408 1269 l 1,35,-1
 578 1350 l 1,0,-1
820 640 m 1,36,-1
 820 872 l 1,37,-1
 588 872 l 1,38,-1
 588 640 l 1,39,-1
 820 640 l 1,36,-1
EndSplineSet
Validated: 19457
EndChar

StartChar: dollar
Encoding: 36 36 7
Width: 1150
GlyphClass: 2
Flags: W
HStem: -19 132<396.761 515 635 736.211> 1383 145<464.72 515>
VStem: 20 335<213.473 385.793> 108 320<947.667 1341.81> 515 120<-69 -15.5315 116 746 925 1380 1522.5 1579> 780 330<210.14 691.421>
LayerCount: 2
Fore
SplineSet
635 -69 m 1,0,-1
 525 -120 l 1,1,-1
 515 -120 l 1,2,-1
 515 -19 l 1,3,4
 337 -9 337 -9 194 79 c 0,5,6
 31 179 31 179 20 379 c 1,7,-1
 345 533 l 1,8,-1
 355 533 l 1,9,-1
 355 261 l 2,10,11
 355 177 355 177 413 147 c 0,12,13
 462 121 462 121 515 113 c 1,14,-1
 515 754 l 1,15,16
 374 767 374 767 249 844 c 0,17,18
 108 931 108 931 108 1130 c 2,19,-1
 108 1161 l 2,20,21
 108 1350 108 1350 250 1440 c 0,22,23
 369 1515 369 1515 515 1528 c 1,24,-1
 515 1579 l 1,25,-1
 625 1630 l 1,26,-1
 635 1630 l 1,27,-1
 635 1527 l 1,28,29
 777 1515 777 1515 887 1446 c 0,30,31
 1025 1359 1025 1359 1037 1203 c 1,32,-1
 723 1054 l 1,33,-1
 713 1054 l 1,34,-1
 713 1277 l 2,35,36
 713 1340 713 1340 676 1361 c 0,37,38
 656 1373 656 1373 635 1380 c 1,39,-1
 635 916 l 1,40,41
 813 904 813 904 947 820 c 0,42,43
 1110 719 1110 719 1110 487 c 2,44,-1
 1110 411 l 2,45,46
 1110 184 1110 184 941 82 c 0,47,48
 801 -3 801 -3 635 -17 c 1,49,-1
 635 -69 l 1,0,-1
515 925 m 1,50,-1
 515 1383 l 1,51,52
 487 1376 487 1376 464 1361 c 0,53,54
 428 1338 428 1338 428 1277 c 2,55,-1
 428 1031 l 2,56,57
 428 968 428 968 464 947 c 0,58,59
 488 932 488 932 515 925 c 1,50,-1
635 746 m 1,60,-1
 635 116 l 1,61,62
 680 125 680 125 722 147 c 0,63,64
 780 178 780 178 780 261 c 2,65,-1
 780 598 l 2,66,67
 780 683 780 683 726 713 c 0,68,69
 684 737 684 737 635 746 c 1,60,-1
EndSplineSet
Validated: 19457
EndChar

StartChar: percent
Encoding: 37 37 8
Width: 1846
GlyphClass: 2
Flags: W
HStem: -20 108<1264.57 1477.45> 612 108<1264.55 1477.45> 790 108<368.57 581.445> 1422 108<368.555 581.445>
VStem: 110 236<923.601 1396.34> 604 236<923.663 1396.34> 1006 236<113.601 586.337> 1500 236<113.663 586.337>
DStem2: 464 93 711 -20 0.423093 0.906086<2.11609 1585.94>
LayerCount: 2
Fore
SplineSet
1371 -20 m 128,-1,1
 1226 -20 1226 -20 1116 47.5 c 128,-1,2
 1006 115 1006 115 1006 258 c 2,3,-1
 1006 442 l 2,4,5
 1006 585 1006 585 1116 652.5 c 128,-1,6
 1226 720 1226 720 1371 720 c 128,-1,7
 1516 720 1516 720 1626 652.5 c 128,-1,8
 1736 585 1736 585 1736 442 c 2,9,-1
 1736 258 l 2,10,11
 1736 115 1736 115 1626 47.5 c 128,-1,0
 1516 -20 1516 -20 1371 -20 c 128,-1,1
1371.5 88 m 128,-1,13
 1430 88 1430 88 1469 113 c 0,14,15
 1500 134 1500 134 1500 182 c 2,16,-1
 1500 518 l 2,17,18
 1500 566 1500 566 1469 587 c 0,19,20
 1430 612 1430 612 1371 612 c 128,-1,21
 1312 612 1312 612 1273 587 c 0,22,23
 1242 566 1242 566 1242 518 c 2,24,-1
 1242 182 l 2,25,26
 1242 132 1242 132 1273 113 c 0,27,12
 1313 88 1313 88 1371.5 88 c 128,-1,13
475 1530 m 128,-1,29
 620 1530 620 1530 730 1462.5 c 128,-1,30
 840 1395 840 1395 840 1252 c 2,31,-1
 840 1068 l 2,32,33
 840 925 840 925 730 857.5 c 128,-1,34
 620 790 620 790 475 790 c 128,-1,35
 330 790 330 790 220 857.5 c 128,-1,36
 110 925 110 925 110 1068 c 2,37,-1
 110 1252 l 2,38,39
 110 1395 110 1395 220 1462.5 c 128,-1,28
 330 1530 330 1530 475 1530 c 128,-1,29
475 1422 m 128,-1,41
 416 1422 416 1422 377 1397 c 0,42,43
 346 1376 346 1376 346 1328 c 2,44,-1
 346 992 l 2,45,46
 346 942 346 942 377 923 c 0,47,48
 417 898 417 898 475.5 898 c 128,-1,49
 534 898 534 898 573 923 c 0,50,51
 604 944 604 944 604 992 c 2,52,-1
 604 1328 l 2,53,54
 604 1376 604 1376 573 1397 c 0,55,40
 534 1422 534 1422 475 1422 c 128,-1,41
701 -20 m 1,56,-1
 464 93 l 1,57,-1
 1135 1530 l 1,58,-1
 1145 1530 l 1,59,-1
 1381 1417 l 1,60,-1
 711 -20 l 1,61,-1
 701 -20 l 1,56,-1
EndSplineSet
Validated: 19457
EndChar

StartChar: ampersand
Encoding: 38 38 9
Width: 1692
GlyphClass: 2
Flags: W
HStem: -20 150<485.156 917.283> 1395 135<539.197 800.3>
VStem: 110 330<209.642 710.391> 200 310<928.663 1329.69> 830 319<1182.23 1340.98> 1215 320<646.25 855.487>
DStem2: 882 902 592 751 0.666016 -0.745938<0 471.699 742.677 953.495>
LayerCount: 2
Fore
SplineSet
592 751 m 1,0,1
 538 742 538 742 499 720 c 0,2,3
 440 689 440 689 440 613 c 2,4,-1
 440 272 l 2,5,6
 440 194 440 194 498 165 c 0,7,8
 569 130 569 130 684 130 c 0,9,10
 923 130 923 130 1032 260 c 1,11,-1
 592 751 l 1,0,1
675 -20 m 0,12,13
 448 -20 448 -20 279 82 c 0,14,15
 110 183 110 183 110 410 c 2,16,-1
 110 539 l 2,17,18
 110 756 110 756 277 855 c 1,19,20
 200 934 200 934 200 1060 c 2,21,-1
 200 1161 l 2,22,23
 200 1330 200 1330 348 1445 c 24,24,25
 457 1530 457 1530 675 1530 c 24,26,27
 869 1530 869 1530 1002 1445 c 0,28,29
 1140 1357 1140 1357 1149 1189 c 1,30,-1
 840 1043 l 1,31,-1
 830 1043 l 1,32,-1
 830 1299 l 2,33,34
 830 1344 830 1344 790 1369 c 0,35,36
 748 1395 748 1395 664 1395 c 0,37,38
 600 1395 600 1395 550 1369 c 0,39,40
 510 1348 510 1348 510 1299 c 2,41,-1
 510 998 l 2,42,43
 510 949 510 949 550 928 c 0,44,45
 600 902 600 902 675 902 c 18,46,-1
 882 902 l 1,47,-1
 1196 550 l 1,48,49
 1215 651 1215 651 1215 751 c 0,50,51
 1215 801 1215 801 1210 851 c 1,52,-1
 1525 1000 l 1,53,-1
 1535 1000 l 1,54,55
 1534 612 1534 612 1364 361 c 1,56,-1
 1582 118 l 1,57,-1
 1291 -20 l 1,58,-1
 1281 -20 l 1,59,-1
 1143 134 l 1,60,61
 941 -20 941 -20 675 -20 c 0,12,13
EndSplineSet
Validated: 19457
EndChar

StartChar: quotesingle
Encoding: 39 39 10
Width: 240
GlyphClass: 2
Flags: W
HStem: 1100 480
VStem: 30 180<1181 1499>
LayerCount: 2
Fore
SplineSet
200 1580 m 1,0,-1
 210 1580 l 1,1,-1
 210 1181 l 1,2,-1
 40 1100 l 1,3,-1
 30 1100 l 1,4,-1
 30 1499 l 1,5,-1
 200 1580 l 1,0,-1
EndSplineSet
Validated: 19457
EndChar

StartChar: parenleft
Encoding: 40 40 11
Width: 756
GlyphClass: 2
Flags: W
HStem: -240 151<536.617 726> 1599 151<536.617 726>
VStem: 160 320<-9.86011 1519.86>
LayerCount: 2
Fore
SplineSet
726 -240 m 1,0,1
 496 -240 496 -240 328 -138 c 128,-1,2
 160 -36 160 -36 160 191 c 2,3,-1
 160 1319 l 2,4,5
 160 1546 160 1546 328 1648 c 128,-1,6
 496 1750 496 1750 726 1750 c 1,7,-1
 726 1599 l 1,8,9
 613 1599 613 1599 538 1558 c 0,10,11
 480 1526 480 1526 480 1434 c 2,12,-1
 480 76 l 2,13,14
 480 -16 480 -16 538 -48 c 0,15,16
 613 -89 613 -89 726 -89 c 1,17,-1
 726 -240 l 1,0,1
EndSplineSet
Validated: 19457
EndChar

StartChar: parenright
Encoding: 41 41 12
Width: 756
GlyphClass: 2
Flags: W
HStem: -240 151<30 219.383> 1599 151<30 219.383>
VStem: 276 320<-9.86011 1519.86>
LayerCount: 2
Fore
SplineSet
30 -240 m 1,0,1
 30 -89 l 1,2,3
 143 -89 143 -89 218 -48 c 0,4,5
 276 -16 276 -16 276 76 c 2,6,-1
 276 1434 l 2,7,8
 276 1526 276 1526 218 1558 c 0,9,10
 143 1599 143 1599 30 1599 c 1,11,-1
 30 1750 l 1,12,13
 260 1750 260 1750 428 1648 c 128,-1,14
 596 1546 596 1546 596 1319 c 2,15,-1
 596 191 l 2,16,17
 596 -36 596 -36 428 -138 c 128,-1,18
 260 -240 260 -240 30 -240 c 1,0,1
EndSplineSet
Validated: 19457
EndChar

StartChar: asterisk
Encoding: 42 42 13
Width: 790
GlyphClass: 2
Flags: W
VStem: 305 180<921 1054 1366 1499>
DStem2: 190 1432 30 1317 0.866084 -0.499898<0 132.593 444.456 577.049> 30 1103 190 988 0.866084 0.499898<81.0853 213.678 525.542 658.134>
LayerCount: 2
Fore
SplineSet
475 1580 m 1,0,-1
 485 1580 l 1,1,-1
 485 1366 l 1,2,-1
 600 1432 l 1,3,-1
 755 1326 l 1,4,-1
 760 1317 l 1,5,-1
 575 1210 l 1,6,-1
 760 1103 l 1,7,-1
 755 1094 l 1,8,-1
 600 988 l 1,9,-1
 485 1054 l 1,10,-1
 485 921 l 1,11,-1
 315 840 l 1,12,-1
 305 840 l 1,13,-1
 305 1054 l 1,14,-1
 190 988 l 1,15,-1
 35 1094 l 1,16,-1
 30 1103 l 1,17,-1
 215 1210 l 1,18,-1
 30 1317 l 1,19,-1
 35 1326 l 1,20,-1
 190 1432 l 1,21,-1
 305 1366 l 1,22,-1
 305 1499 l 1,23,-1
 475 1580 l 1,0,-1
EndSplineSet
Validated: 19457
EndChar

StartChar: plus
Encoding: 43 43 14
Width: 1240
GlyphClass: 2
Flags: W
HStem: 620 270<235 485 755 1005>
VStem: 485 270<370 620 890 1140>
LayerCount: 2
Fore
SplineSet
745 1265 m 1,0,-1
 755 1265 l 1,1,-1
 755 890 l 1,2,-1
 1130 890 l 1,3,-1
 1130 880 l 1,4,-1
 1005 620 l 1,5,-1
 755 620 l 1,6,-1
 755 370 l 1,7,-1
 495 245 l 1,8,-1
 485 245 l 1,9,-1
 485 620 l 1,10,-1
 110 620 l 1,11,-1
 110 630 l 1,12,-1
 235 890 l 1,13,-1
 485 890 l 1,14,-1
 485 1140 l 1,15,-1
 745 1265 l 1,0,-1
EndSplineSet
Validated: 19457
EndChar

StartChar: comma
Encoding: 44 44 15
Width: 496
GlyphClass: 2
Flags: W
HStem: -328 666
VStem: 202 264<-112.817 113.6>
LayerCount: 2
Fore
SplineSet
30 212 m 1,0,-1
 299 338 l 1,1,-1
 309 338 l 1,2,3
 466 236 466 236 466 54 c 0,4,5
 466 -203 466 -203 130 -328 c 1,6,-1
 123 -321 l 1,7,8
 202 -172 202 -172 202 -24 c 0,9,10
 202 132 202 132 30 212 c 1,0,-1
EndSplineSet
Validated: 19457
EndChar

StartChar: hyphen
Encoding: 45 45 16
Width: 1240
GlyphClass: 2
Flags: W
HStem: 620 270<235 1005>
LayerCount: 2
Fore
SplineSet
235 890 m 1,0,-1
 1130 890 l 1,1,-1
 1130 880 l 1,2,-1
 1005 620 l 1,3,-1
 110 620 l 1,4,-1
 110 630 l 1,5,-1
 235 890 l 1,0,-1
EndSplineSet
Validated: 19457
EndChar

StartChar: period
Encoding: 46 46 17
Width: 420
GlyphClass: 2
Flags: W
HStem: -20 365<92.1309 326.878>
VStem: 30 360<42.5657 282.578>
LayerCount: 2
Fore
SplineSet
210 -20 m 0,0,1
 134 -20 134 -20 82 34 c 128,-1,2
 30 88 30 88 30 162 c 0,3,4
 30 238 30 238 82 291 c 0,5,6
 135 345 135 345 210 345 c 128,-1,7
 285 345 285 345 337.5 291.5 c 128,-1,8
 390 238 390 238 390 163 c 128,-1,9
 390 88 390 88 337 34 c 128,-1,10
 284 -20 284 -20 210 -20 c 0,0,1
EndSplineSet
Validated: 19457
EndChar

StartChar: slash
Encoding: 47 47 18
Width: 1105
GlyphClass: 2
Flags: W
DStem2: 10 -87 257 -200 0.423051 0.906106<2.10366 1983.21>
LayerCount: 2
Fore
SplineSet
247 -200 m 1,0,-1
 10 -87 l 1,1,-1
 849 1710 l 1,2,-1
 859 1710 l 1,3,-1
 1095 1597 l 1,4,-1
 257 -200 l 1,5,-1
 247 -200 l 1,0,-1
EndSplineSet
Validated: 1
EndChar

StartChar: zero
Encoding: 48 48 19
Width: 1370
GlyphClass: 2
Flags: W
HStem: -20 150<502.664 867.336> 1380 150<502.664 867.336>
VStem: 120 330<210.484 1299.52> 920 330<210.484 1299.52>
LayerCount: 2
Fore
SplineSet
685 130 m 128,-1,1
 787 130 787 130 862 171 c 0,2,3
 920 203 920 203 920 295 c 2,4,-1
 920 1215 l 2,5,6
 920 1307 920 1307 862 1339 c 0,7,8
 787 1380 787 1380 685 1380 c 128,-1,9
 583 1380 583 1380 508 1339 c 0,10,11
 450 1307 450 1307 450 1215 c 2,12,-1
 450 295 l 2,13,14
 450 203 450 203 508 171 c 0,15,0
 583 130 583 130 685 130 c 128,-1,1
685 -20 m 128,-1,17
 456 -20 456 -20 288 82 c 128,-1,18
 120 184 120 184 120 411 c 2,19,-1
 120 1099 l 2,20,21
 120 1326 120 1326 288 1428 c 128,-1,22
 456 1530 456 1530 685 1530 c 128,-1,23
 914 1530 914 1530 1082 1428 c 128,-1,24
 1250 1326 1250 1326 1250 1099 c 2,25,-1
 1250 411 l 2,26,27
 1250 184 1250 184 1082 82 c 128,-1,16
 914 -20 914 -20 685 -20 c 128,-1,17
EndSplineSet
Validated: 19457
EndChar

StartChar: one
Encoding: 49 49 20
Width: 794
GlyphClass: 2
Flags: W
HStem: -20 21G<264 316.177> 1510 20G<531.871 584>
VStem: 264 320<127 1222>
DStem2: 20 1267 20 1117 0.903372 0.428857<0 201.124>
LayerCount: 2
Fore
SplineSet
274 -20 m 1,0,-1
 264 -20 l 1,1,-1
 264 1222 l 1,2,-1
 20 1117 l 1,3,-1
 20 1267 l 1,4,-1
 574 1530 l 1,5,-1
 584 1530 l 1,6,-1
 584 127 l 1,7,-1
 274 -20 l 1,0,-1
EndSplineSet
Validated: 1
EndChar

StartChar: two
Encoding: 50 50 21
Width: 1273
GlyphClass: 2
Flags: W
HStem: 0 300<445 1047> 1380 150<441.157 781.797>
VStem: 65 322<1099 1299.37> 835 330<819.069 1299.37>
DStem2: 187 323 445 300 0.837254 0.546815<203.435 732.141>
LayerCount: 2
Fore
SplineSet
40 0 m 1,0,-1
 40 10 l 1,1,-1
 187 323 l 1,2,-1
 654 628 l 2,3,4
 835 746 835 746 835 1007 c 2,5,-1
 835 1215 l 2,6,7
 835 1303 835 1303 777 1339 c 0,8,9
 711 1380 711 1380 611 1380 c 128,-1,10
 511 1380 511 1380 445 1339 c 0,11,12
 387 1303 387 1303 387 1215 c 2,13,-1
 387 1099 l 1,14,-1
 75 952 l 1,15,-1
 65 952 l 1,16,-1
 65 1099 l 2,17,18
 65 1326 65 1326 233 1428 c 128,-1,19
 401 1530 401 1530 615 1530 c 128,-1,20
 829 1530 829 1530 997 1428 c 128,-1,21
 1165 1326 1165 1326 1165 1099 c 2,22,-1
 1165 1018 l 2,23,24
 1165 722 1165 722 843 533 c 2,25,-1
 445 300 l 1,26,-1
 1183 300 l 1,27,-1
 1183 290 l 1,28,-1
 1047 0 l 1,29,-1
 40 0 l 1,0,-1
EndSplineSet
Validated: 19457
EndChar

StartChar: three
Encoding: 51 51 22
Width: 1240
GlyphClass: 2
Flags: W
HStem: -20 150<452.342 776.797> 1360 150<239 709>
VStem: 60 335<211.809 388> 830 330<210.142 766.882>
LayerCount: 2
Fore
SplineSet
610 -20 m 128,-1,1
 396 -20 396 -20 228 82 c 0,2,3
 68 179 68 179 60 388 c 1,4,-1
 385 543 l 1,5,-1
 395 543 l 1,6,-1
 395 295 l 2,7,8
 397 210 397 210 453 171 c 0,9,10
 512 130 512 130 610 130 c 0,11,12
 703 130 703 130 772 171 c 0,13,14
 830 206 830 206 830 295 c 2,15,-1
 830 683 l 2,16,17
 830 770 830 770 772 807 c 0,18,19
 709 848 709 848 613 848 c 0,20,21
 538 848 538 848 501 834 c 1,22,-1
 441 902 l 1,23,-1
 709 1360 l 1,24,-1
 172 1360 l 1,25,-1
 172 1370 l 1,26,-1
 239 1510 l 1,27,-1
 1139 1510 l 1,28,-1
 804 958 l 1,29,30
 916 943 916 943 992 896 c 0,31,32
 1160 793 1160 793 1160 567 c 2,33,-1
 1160 411 l 2,34,35
 1160 184 1160 184 992 82 c 128,-1,0
 824 -20 824 -20 610 -20 c 128,-1,1
EndSplineSet
Validated: 19457
EndChar

StartChar: four
Encoding: 52 52 23
Width: 1317
GlyphClass: 2
Flags: W
HStem: -20 21G<787 839.177> 304 150<295 787 1107 1190> 1510 20G<1054.79 1107>
VStem: 787 320<127 304 454 1139>
DStem2: 10 314 295 454 0.582974 0.812491<279.896 1123.28>
LayerCount: 2
Fore
SplineSet
295 454 m 1,0,-1
 787 454 l 1,1,-1
 787 1139 l 1,2,-1
 295 454 l 1,0,-1
797 -20 m 1,3,-1
 787 -20 l 1,4,-1
 787 304 l 1,5,-1
 10 304 l 1,6,-1
 10 314 l 1,7,-1
 772 1376 l 1,8,-1
 1097 1530 l 1,9,-1
 1107 1530 l 1,10,-1
 1107 454 l 1,11,-1
 1257 454 l 1,12,-1
 1257 444 l 1,13,-1
 1190 304 l 1,14,-1
 1107 304 l 1,15,-1
 1107 127 l 1,16,-1
 797 -20 l 1,3,-1
EndSplineSet
Validated: 1
EndChar

StartChar: five
Encoding: 53 53 24
Width: 1240
GlyphClass: 2
Flags: W
HStem: -20 150<448.761 776.797> 848 150<495.391 776.797> 1360 150<591 1031>
VStem: 60 335<211.809 388> 830 330<210.279 766.882>
LayerCount: 2
Fore
SplineSet
610 -20 m 128,-1,1
 396 -20 396 -20 228 82 c 0,2,3
 68 179 68 179 60 388 c 1,4,-1
 385 543 l 1,5,-1
 395 543 l 1,6,-1
 395 295 l 2,7,8
 395 209 395 209 453 171 c 0,9,10
 515 130 515 130 608 130 c 0,11,12
 712 130 712 130 772 171 c 0,13,14
 830 210 830 210 830 295 c 2,15,-1
 830 683 l 2,16,17
 830 770 830 770 772 807 c 0,18,19
 708 848 708 848 613 848 c 0,20,21
 495 848 495 848 407 788 c 1,22,-1
 144 904 l 1,23,-1
 298 1510 l 1,24,-1
 1098 1510 l 1,25,-1
 1098 1500 l 1,26,-1
 1031 1360 l 1,27,-1
 591 1360 l 1,28,-1
 493 982 l 1,29,30
 547 998 547 998 610 998 c 0,31,32
 824 998 824 998 992 896 c 128,-1,33
 1160 794 1160 794 1160 567 c 2,34,-1
 1160 411 l 2,35,36
 1160 184 1160 184 992 82 c 128,-1,0
 824 -20 824 -20 610 -20 c 128,-1,1
EndSplineSet
Validated: 19457
EndChar

StartChar: six
Encoding: 54 54 25
Width: 1310
GlyphClass: 2
Flags: W
HStem: -20 150<492.122 836.797> 865 150<492.657 836.797> 1380 150<492.122 847.878>
VStem: 120 320<210.484 815.062 972 1299.52> 890 330<210.484 784.516 1169.2 1301.34>
LayerCount: 2
Fore
SplineSet
670 -20 m 128,-1,1
 456 -20 456 -20 288 82 c 128,-1,2
 120 184 120 184 120 411 c 2,3,-1
 120 1099 l 2,4,5
 120 1326 120 1326 288 1428 c 128,-1,6
 456 1530 456 1530 670 1530 c 128,-1,7
 884 1530 884 1530 1052 1428 c 0,8,9
 1195 1341 1195 1341 1217 1176 c 1,10,-1
 910 1029 l 1,11,-1
 900 1029 l 1,12,-1
 900 1215 l 2,13,14
 900 1307 900 1307 842 1339 c 0,15,16
 767 1380 767 1380 670 1380 c 128,-1,17
 573 1380 573 1380 498 1339 c 0,18,19
 440 1307 440 1307 440 1215 c 2,20,-1
 440 972 l 1,21,22
 542 1015 542 1015 670 1015 c 0,23,24
 884 1015 884 1015 1052 913 c 128,-1,25
 1220 811 1220 811 1220 584 c 2,26,-1
 1220 411 l 2,27,28
 1220 184 1220 184 1052 82 c 128,-1,0
 884 -20 884 -20 670 -20 c 128,-1,1
665 865 m 128,-1,30
 573 865 573 865 498 824 c 0,31,32
 440 792 440 792 440 700 c 2,33,-1
 440 295 l 2,34,35
 440 203 440 203 498 171 c 0,36,37
 573 130 573 130 665 130 c 128,-1,38
 757 130 757 130 832 171 c 0,39,40
 890 203 890 203 890 295 c 2,41,-1
 890 700 l 2,42,43
 890 792 890 792 832 824 c 0,44,29
 757 865 757 865 665 865 c 128,-1,30
EndSplineSet
Validated: 19457
EndChar

StartChar: seven
Encoding: 55 55 26
Width: 1098
GlyphClass: 2
Flags: W
HStem: -20 21G<132 184.412> 1360 150<77 686>
DStem2: 132 -20 564 179 0.37255 0.928012<345.616 1487.05>
LayerCount: 2
Fore
SplineSet
142 -20 m 1,0,-1
 132 -20 l 1,1,-1
 686 1360 l 1,2,-1
 10 1360 l 1,3,-1
 10 1370 l 1,4,-1
 77 1510 l 1,5,-1
 1088 1510 l 1,6,-1
 1088 1500 l 1,7,-1
 564 179 l 1,8,-1
 142 -20 l 1,0,-1
EndSplineSet
Validated: 1
EndChar

StartChar: eight
Encoding: 56 56 27
Width: 1250
GlyphClass: 2
Flags: W
HStem: -20 150<431.24 818.76> 761 150<496.57 753.43> 1380 150<484.021 765.507>
VStem: 60 330<210.538 716.51> 150 305<937.663 1329.69> 795 305<937.663 1339.61> 860 330<210.538 716.51>
LayerCount: 2
Fore
SplineSet
625 130 m 152,-1,1
 727 130 727 130 802 165 c 0,2,3
 860 192 860 192 860 272 c 2,4,-1
 860 619 l 2,5,6
 860 699 860 699 801 726 c 0,7,8
 726 761 726 761 625 761 c 152,-1,9
 524 761 524 761 449 726 c 0,10,11
 390 698 390 698 390 619 c 2,12,-1
 390 272 l 2,13,14
 390 192 390 192 448 165 c 0,15,0
 523 130 523 130 625 130 c 152,-1,1
625 -20 m 152,-1,17
 398 -20 398 -20 229 82.5 c 128,-1,18
 60 185 60 185 60 410 c 2,19,-1
 60 539 l 2,20,21
 60 756 60 756 227 855 c 1,22,23
 150 934 150 934 150 1060 c 2,24,-1
 150 1161 l 2,25,26
 150 1330 150 1330 298 1445 c 24,27,28
 407 1530 407 1530 625 1530 c 24,29,30
 819 1530 819 1530 952 1445 c 0,31,32
 1100 1350 1100 1350 1100 1161 c 2,33,-1
 1100 1060 l 2,34,35
 1100 934 1100 934 1023 855 c 1,36,37
 1190 756 1190 756 1190 539 c 2,38,-1
 1190 410 l 2,39,40
 1190 185 1190 185 1021 82.5 c 128,-1,16
 852 -20 852 -20 625 -20 c 152,-1,17
623.5 1380 m 152,-1,42
 550 1380 550 1380 495 1354 c 0,43,44
 455 1335 455 1335 455 1284 c 2,45,-1
 455 1007 l 2,46,47
 455 958 455 958 495 937 c 0,48,49
 545 911 545 911 625 911 c 152,-1,50
 705 911 705 911 755 937 c 0,51,52
 795 958 795 958 795 1007 c 2,53,-1
 795 1284 l 2,54,55
 795 1336 795 1336 755 1354 c 0,56,41
 697 1380 697 1380 623.5 1380 c 152,-1,42
EndSplineSet
Validated: 19457
EndChar

StartChar: nine
Encoding: 57 57 28
Width: 1310
GlyphClass: 2
Flags: W
HStem: -20 150<462.122 817.878> 495 150<473.203 817.343> 1380 150<473.203 817.878>
VStem: 90 330<208.664 340.798 725.484 1299.52> 870 320<210.484 538 694.938 1299.52>
LayerCount: 2
Fore
SplineSet
640 -20 m 128,-1,1
 426 -20 426 -20 258 82 c 0,2,3
 115 169 115 169 93 334 c 1,4,-1
 400 481 l 1,5,-1
 410 481 l 1,6,-1
 410 295 l 2,7,8
 410 203 410 203 468 171 c 0,9,10
 543 130 543 130 640 130 c 128,-1,11
 737 130 737 130 812 171 c 0,12,13
 870 203 870 203 870 295 c 2,14,-1
 870 538 l 1,15,16
 768 495 768 495 640 495 c 0,17,18
 426 495 426 495 258 597 c 128,-1,19
 90 699 90 699 90 926 c 2,20,-1
 90 1099 l 2,21,22
 90 1326 90 1326 258 1428 c 128,-1,23
 426 1530 426 1530 640 1530 c 128,-1,24
 854 1530 854 1530 1022 1428 c 128,-1,25
 1190 1326 1190 1326 1190 1099 c 2,26,-1
 1190 411 l 2,27,28
 1190 184 1190 184 1022 82 c 128,-1,0
 854 -20 854 -20 640 -20 c 128,-1,1
645 645 m 128,-1,30
 737 645 737 645 812 686 c 0,31,32
 870 718 870 718 870 810 c 2,33,-1
 870 1215 l 2,34,35
 870 1307 870 1307 812 1339 c 0,36,37
 737 1380 737 1380 645 1380 c 128,-1,38
 553 1380 553 1380 478 1339 c 0,39,40
 420 1307 420 1307 420 1215 c 2,41,-1
 420 810 l 2,42,43
 420 718 420 718 478 686 c 0,44,29
 553 645 553 645 645 645 c 128,-1,30
EndSplineSet
Validated: 19457
EndChar

StartChar: colon
Encoding: 58 58 29
Width: 420
GlyphClass: 2
Flags: W
HStem: -20 365<92.1309 326.878> 573 365<92.1309 326.878>
VStem: 30 360<42.5657 282.578 635.566 875.578>
LayerCount: 2
Fore
SplineSet
210 938 m 128,-1,1
 285 938 285 938 337.5 884.5 c 128,-1,2
 390 831 390 831 390 756 c 128,-1,3
 390 681 390 681 337 627 c 128,-1,4
 284 573 284 573 210 573 c 0,5,6
 134 573 134 573 82 627 c 128,-1,7
 30 681 30 681 30 755 c 0,8,9
 30 831 30 831 82 884 c 0,10,0
 135 938 135 938 210 938 c 128,-1,1
210 -20 m 0,11,12
 134 -20 134 -20 82 34 c 128,-1,13
 30 88 30 88 30 162 c 0,14,15
 30 238 30 238 82 291 c 0,16,17
 135 345 135 345 210 345 c 128,-1,18
 285 345 285 345 337.5 291.5 c 128,-1,19
 390 238 390 238 390 163 c 128,-1,20
 390 88 390 88 337 34 c 128,-1,21
 284 -20 284 -20 210 -20 c 0,11,12
EndSplineSet
Validated: 19457
EndChar

StartChar: semicolon
Encoding: 59 59 30
Width: 496
GlyphClass: 2
Flags: W
HStem: 573 365<130.131 364.878>
VStem: 68 360<635.566 875.578> 202 264<-112.817 113.6>
LayerCount: 2
Fore
SplineSet
30 212 m 1,0,-1
 299 338 l 1,1,-1
 309 338 l 1,2,3
 466 236 466 236 466 54 c 0,4,5
 466 -203 466 -203 130 -328 c 1,6,-1
 123 -321 l 1,7,8
 202 -172 202 -172 202 -24 c 0,9,10
 202 132 202 132 30 212 c 1,0,-1
248 938 m 128,-1,12
 323 938 323 938 375.5 884.5 c 128,-1,13
 428 831 428 831 428 756 c 128,-1,14
 428 681 428 681 375 627 c 128,-1,15
 322 573 322 573 248 573 c 0,16,17
 172 573 172 573 120 627 c 128,-1,18
 68 681 68 681 68 755 c 0,19,20
 68 831 68 831 120 884 c 0,21,11
 173 938 173 938 248 938 c 128,-1,12
EndSplineSet
Validated: 19457
EndChar

StartChar: less
Encoding: 60 60 31
Width: 1355
GlyphClass: 2
Flags: W
DStem2: 408 812 110 638 0.942398 -0.334493<0 808.778> 227 891 408 812 0.937798 0.347181<142.314 973.557>
LayerCount: 2
Fore
SplineSet
227 891 m 1,0,-1
 1140 1229 l 1,1,-1
 1195 1116 l 1,2,-1
 1195 1106 l 1,3,-1
 408 812 l 1,4,-1
 1195 539 l 1,5,-1
 1195 529 l 1,6,-1
 1082 293 l 1,7,-1
 110 638 l 1,8,-1
 110 648 l 1,9,-1
 227 891 l 1,0,-1
EndSplineSet
Validated: 19457
EndChar

StartChar: equal
Encoding: 61 61 32
Width: 1240
GlyphClass: 2
Flags: W
HStem: 390 270<235 1005> 850 270<235 1005>
LayerCount: 2
Fore
SplineSet
235 660 m 1,0,-1
 1130 660 l 1,1,-1
 1130 650 l 1,2,-1
 1005 390 l 1,3,-1
 110 390 l 1,4,-1
 110 400 l 1,5,-1
 235 660 l 1,0,-1
235 1120 m 1,6,-1
 1130 1120 l 1,7,-1
 1130 1110 l 1,8,-1
 1005 850 l 1,9,-1
 110 850 l 1,10,-1
 110 860 l 1,11,-1
 235 1120 l 1,6,-1
EndSplineSet
Validated: 19457
EndChar

StartChar: greater
Encoding: 62 62 33
Width: 1355
GlyphClass: 2
Flags: W
DStem2: 273 1217 160 971 0.942398 -0.334493<0 808.778> 160 404 215 281 0.937798 0.347181<8.8757 840.118>
LayerCount: 2
Fore
SplineSet
1128 619 m 1,0,-1
 215 281 l 1,1,-1
 160 394 l 1,2,-1
 160 404 l 1,3,-1
 947 698 l 1,4,-1
 160 971 l 1,5,-1
 160 981 l 1,6,-1
 273 1217 l 1,7,-1
 1245 872 l 1,8,-1
 1245 862 l 1,9,-1
 1128 619 l 1,0,-1
EndSplineSet
Validated: 19457
EndChar

StartChar: question
Encoding: 63 63 34
Width: 1320
GlyphClass: 2
Flags: W
HStem: -20 365<507.131 741.878> 1380 150<486.157 826.797>
VStem: 110 322<1099 1299.37> 445 360<42.5657 282.578> 880 330<879.356 1299.37>
LayerCount: 2
Fore
SplineSet
660 1530 m 128,-1,1
 874 1530 874 1530 1042 1428 c 128,-1,2
 1210 1326 1210 1326 1210 1099 c 2,3,-1
 1210 1056 l 2,4,5
 1210 784 1210 784 882 658 c 0,6,7
 791 623 791 623 791 506 c 1,8,-1
 478 359 l 1,9,-1
 468 359 l 1,10,11
 468 612 468 612 711 721 c 0,12,13
 880 797 880 797 880 1038 c 2,14,-1
 880 1215 l 2,15,16
 880 1303 880 1303 822 1339 c 0,17,18
 756 1380 756 1380 656 1380 c 128,-1,19
 556 1380 556 1380 490 1339 c 0,20,21
 432 1303 432 1303 432 1215 c 2,22,-1
 432 1099 l 1,23,-1
 120 952 l 1,24,-1
 110 952 l 1,25,-1
 110 1099 l 2,26,27
 110 1326 110 1326 278 1428 c 128,-1,0
 446 1530 446 1530 660 1530 c 128,-1,1
625 -20 m 0,28,29
 549 -20 549 -20 497 34 c 128,-1,30
 445 88 445 88 445 162 c 0,31,32
 445 238 445 238 497 291 c 0,33,34
 550 345 550 345 625 345 c 128,-1,35
 700 345 700 345 752.5 291.5 c 128,-1,36
 805 238 805 238 805 163 c 128,-1,37
 805 88 805 88 752 34 c 128,-1,38
 699 -20 699 -20 625 -20 c 0,28,29
EndSplineSet
Validated: 19457
EndChar

StartChar: at
Encoding: 64 64 35
Width: 1420
GlyphClass: 2
Flags: W
HStem: -430 140<493 706> -20 140<834.722 980> 549 140<842.443 976> 980 140<509.414 907.535>
VStem: 140 300<-203.103 870.773> 544 250<151.656 522.25> 980 300<120 549 689 871.75>
LayerCount: 2
Fore
SplineSet
954 -20 m 2,0,1
 773 -20 773 -20 656 76 c 0,2,3
 544 169 544 169 544 304 c 2,4,-1
 544 389 l 2,5,6
 544 541 544 541 658 618 c 0,7,8
 764 689 764 689 954 689 c 2,9,-1
 976 689 l 1,10,-1
 976 814 l 2,11,12
 976 892 976 892 918 930 c 0,13,14
 841 980 841 980 708 980 c 128,-1,15
 575 980 575 980 498 930 c 0,16,17
 440 892 440 892 440 814 c 2,18,-1
 440 -135 l 2,19,20
 440 -218 440 -218 498 -251 c 0,21,22
 567 -290 567 -290 705 -290 c 2,23,-1
 768 -290 l 1,24,-1
 768 -300 l 1,25,-1
 706 -430 l 1,26,27
 479 -430 479 -430 308 -332 c 0,28,29
 140 -236 140 -236 140 13 c 2,30,-1
 140 673 l 2,31,32
 140 888 140 888 308 1014 c 0,33,34
 448 1120 448 1120 711 1120 c 0,35,36
 941 1120 941 1120 1110 1010 c 0,37,38
 1280 900 1280 900 1280 677 c 2,39,-1
 1280 118 l 1,40,-1
 990 -20 l 1,41,-1
 954 -20 l 2,0,1
980 120 m 1,42,-1
 980 549 l 1,43,-1
 956 549 l 2,44,45
 887 549 887 549 841 525 c 0,46,47
 794 501 794 501 794 451 c 2,48,-1
 794 227 l 2,49,50
 794 170 794 170 833 149 c 24,51,52
 888 120 888 120 956 120 c 2,53,-1
 980 120 l 1,42,-1
EndSplineSet
Validated: 19457
EndChar

StartChar: A
Encoding: 65 65 36
Width: 1410
GlyphClass: 2
Flags: W
HStem: -20 21G<140 192.177 950 1002.18> 680 150<460 950> 1380 150<514.495 895.505>
VStem: 140 320<127 680 830 1299.52> 950 320<127 680 830 1299.52>
LayerCount: 2
Fore
SplineSet
150 -20 m 1,0,-1
 140 -20 l 1,1,-1
 140 1099 l 2,2,3
 140 1326 140 1326 308 1428 c 128,-1,4
 476 1530 476 1530 705 1530 c 128,-1,5
 934 1530 934 1530 1102 1428 c 128,-1,6
 1270 1326 1270 1326 1270 1099 c 2,7,-1
 1270 127 l 1,8,-1
 960 -20 l 1,9,-1
 950 -20 l 1,10,-1
 950 680 l 1,11,-1
 460 680 l 1,12,-1
 460 127 l 1,13,-1
 150 -20 l 1,0,-1
460 830 m 1,14,-1
 950 830 l 1,15,-1
 950 1215 l 2,16,17
 950 1307 950 1307 892 1339 c 0,18,19
 817 1380 817 1380 705 1380 c 128,-1,20
 593 1380 593 1380 518 1339 c 0,21,22
 460 1307 460 1307 460 1215 c 2,23,-1
 460 830 l 1,14,-1
EndSplineSet
Validated: 19457
EndChar

StartChar: B
Encoding: 66 66 37
Width: 1290
GlyphClass: 2
Flags: W
HStem: 0 150<480 868.709> 748 150<480 798.429> 1360 150<480 798.275>
VStem: 160 320<150 748 898 1360> 840 310<924.632 1320.1> 910 330<230.538 701.092>
LayerCount: 2
Fore
SplineSet
480 748 m 1,0,-1
 480 150 l 1,1,-1
 665 150 l 2,2,3
 777 150 777 150 852 185 c 0,4,5
 910 212 910 212 910 292 c 2,6,-1
 910 606 l 2,7,8
 910 685 910 685 851 713 c 0,9,10
 776 748 776 748 665 748 c 2,11,-1
 480 748 l 1,0,-1
160 0 m 1,12,-1
 160 1384 l 1,13,-1
 428 1510 l 1,14,-1
 675 1510 l 2,15,16
 869 1510 869 1510 1002 1425 c 24,17,18
 1150 1331 1150 1331 1150 1141 c 2,19,-1
 1150 1060 l 2,20,21
 1150 934 1150 934 1073 855 c 1,22,23
 1240 756 1240 756 1240 539 c 2,24,-1
 1240 430 l 2,25,26
 1240 205 1240 205 1071 102.5 c 128,-1,27
 902 0 902 0 675 0 c 2,28,-1
 160 0 l 1,12,-1
480 1360 m 1,29,-1
 480 898 l 1,30,-1
 665 898 l 2,31,32
 750 898 750 898 800 924 c 24,33,34
 840 944 840 944 840 994 c 2,35,-1
 840 1264 l 2,36,37
 840 1316 840 1316 800 1334 c 0,38,39
 745 1360 745 1360 665 1360 c 2,40,-1
 480 1360 l 1,29,-1
EndSplineSet
Validated: 19457
EndChar

StartChar: C
Encoding: 67 67 38
Width: 1260
GlyphClass: 2
Flags: W
HStem: -20 150<503.203 831.239> 1380 150<503.203 831.239>
VStem: 120 330<210.142 1299.86> 885 335<210.279 405 1122 1298.19>
LayerCount: 2
Fore
SplineSet
670 -20 m 128,-1,1
 456 -20 456 -20 288 82 c 128,-1,2
 120 184 120 184 120 411 c 2,3,-1
 120 1099 l 2,4,5
 120 1326 120 1326 288 1428 c 128,-1,6
 456 1530 456 1530 670 1530 c 128,-1,7
 884 1530 884 1530 1052 1428 c 0,8,9
 1212 1331 1212 1331 1220 1122 c 1,10,-1
 895 967 l 1,11,-1
 885 967 l 1,12,-1
 885 1215 l 2,13,14
 885 1300 885 1300 827 1339 c 0,15,16
 766 1380 766 1380 671 1380 c 128,-1,17
 576 1380 576 1380 508 1339 c 0,18,19
 450 1304 450 1304 450 1215 c 2,20,-1
 450 295 l 2,21,22
 450 206 450 206 508 171 c 0,23,24
 576 130 576 130 671 130 c 128,-1,25
 766 130 766 130 827 171 c 0,26,27
 885 210 885 210 885 295 c 2,28,-1
 885 405 l 1,29,-1
 1210 558 l 1,30,-1
 1220 558 l 1,31,-1
 1220 411 l 2,32,33
 1220 184 1220 184 1052 82 c 128,-1,0
 884 -20 884 -20 670 -20 c 128,-1,1
EndSplineSet
Validated: 19457
EndChar

StartChar: D
Encoding: 68 68 39
Width: 1390
GlyphClass: 2
Flags: W
HStem: 0 150<480 887.31> 1360 150<480 887.31>
VStem: 160 320<150 1360> 940 330<230.484 1279.52>
LayerCount: 2
Fore
SplineSet
480 150 m 1,0,-1
 695 150 l 2,1,2
 808 150 808 150 882 191 c 0,3,4
 940 223 940 223 940 315 c 2,5,-1
 940 1195 l 2,6,7
 940 1287 940 1287 882 1319 c 0,8,9
 807 1360 807 1360 695 1360 c 2,10,-1
 480 1360 l 1,11,-1
 480 150 l 1,0,-1
160 0 m 1,12,-1
 160 1383 l 1,13,-1
 428 1510 l 1,14,-1
 705 1510 l 2,15,16
 934 1510 934 1510 1102 1408 c 128,-1,17
 1270 1306 1270 1306 1270 1079 c 2,18,-1
 1270 431 l 2,19,20
 1270 204 1270 204 1102 102 c 128,-1,21
 934 0 934 0 705 0 c 2,22,-1
 160 0 l 1,12,-1
EndSplineSet
Validated: 19457
EndChar

StartChar: E
Encoding: 69 69 40
Width: 1100
GlyphClass: 2
Flags: W
HStem: 0 150<480 1023> 680 150<480 973> 1360 150<480 973>
VStem: 160 320<150 680 830 1360>
CounterMasks: 1 e0
LayerCount: 2
Fore
SplineSet
160 0 m 1,0,-1
 160 1384 l 1,1,-1
 428 1510 l 1,2,-1
 1040 1510 l 1,3,-1
 1040 1500 l 1,4,-1
 973 1360 l 1,5,-1
 480 1360 l 1,6,-1
 480 830 l 1,7,-1
 1040 830 l 1,8,-1
 1040 820 l 1,9,-1
 973 680 l 1,10,-1
 480 680 l 1,11,-1
 480 150 l 1,12,-1
 1090 150 l 1,13,-1
 1090 140 l 1,14,-1
 1023 0 l 1,15,-1
 160 0 l 1,0,-1
EndSplineSet
Validated: 19457
EndChar

StartChar: F
Encoding: 70 70 41
Width: 1050
GlyphClass: 2
Flags: W
HStem: -20 21G<160 212.177> 680 150<480 973> 1360 150<480 973>
VStem: 160 320<127 680 830 1360>
LayerCount: 2
Fore
SplineSet
170 -20 m 1,0,-1
 160 -20 l 1,1,-1
 160 1384 l 1,2,-1
 428 1510 l 1,3,-1
 1040 1510 l 1,4,-1
 1040 1500 l 1,5,-1
 973 1360 l 1,6,-1
 480 1360 l 1,7,-1
 480 830 l 1,8,-1
 1040 830 l 1,9,-1
 1040 820 l 1,10,-1
 973 680 l 1,11,-1
 480 680 l 1,12,-1
 480 127 l 1,13,-1
 170 -20 l 1,0,-1
EndSplineSet
Validated: 19457
EndChar

StartChar: G
Encoding: 71 71 42
Width: 1340
GlyphClass: 2
Flags: W
HStem: -20 150<514.329 844.843> 680 150<634 900> 1380 150<514.329 831.239>
VStem: 120 340<211.118 1299.86> 885 335<1122 1298.19> 900 320<210.762 680>
CounterMasks: 1 e0
LayerCount: 2
Fore
SplineSet
670 -20 m 128,-1,1
 456 -20 456 -20 288 82 c 128,-1,2
 120 184 120 184 120 411 c 2,3,-1
 120 1099 l 2,4,5
 120 1326 120 1326 288 1428 c 128,-1,6
 456 1530 456 1530 670 1530 c 128,-1,7
 884 1530 884 1530 1052 1428 c 0,8,9
 1212 1331 1212 1331 1220 1122 c 1,10,-1
 895 967 l 1,11,-1
 885 967 l 1,12,-1
 885 1215 l 2,13,14
 885 1300 885 1300 827 1339 c 0,15,16
 766 1380 766 1380 672 1380 c 0,17,18
 586 1380 586 1380 518 1339 c 0,19,20
 460 1304 460 1304 460 1215 c 2,21,-1
 460 295 l 2,22,23
 460 208 460 208 518 171 c 0,24,25
 582 130 582 130 682 130 c 128,-1,26
 782 130 782 130 842 171 c 0,27,28
 900 211 900 211 900 295 c 2,29,-1
 900 680 l 1,30,-1
 567 680 l 1,31,-1
 567 690 l 1,32,-1
 634 830 l 1,33,-1
 1220 830 l 1,34,-1
 1220 411 l 2,35,36
 1220 184 1220 184 1052 82 c 128,-1,0
 884 -20 884 -20 670 -20 c 128,-1,1
EndSplineSet
Validated: 19457
EndChar

StartChar: H
Encoding: 72 72 43
Width: 1440
GlyphClass: 2
Flags: W
HStem: -20 21G<160 212.177 960 1012.18> 680 150<480 960> 1510 20G<427.823 480 1227.82 1280>
VStem: 160 320<127 680 830 1383> 960 320<127 680 830 1383>
LayerCount: 2
Fore
SplineSet
170 -20 m 1,0,-1
 160 -20 l 1,1,-1
 160 1383 l 1,2,-1
 470 1530 l 1,3,-1
 480 1530 l 1,4,-1
 480 830 l 1,5,-1
 960 830 l 1,6,-1
 960 1383 l 1,7,-1
 1270 1530 l 1,8,-1
 1280 1530 l 1,9,-1
 1280 127 l 1,10,-1
 970 -20 l 1,11,-1
 960 -20 l 1,12,-1
 960 680 l 1,13,-1
 480 680 l 1,14,-1
 480 127 l 1,15,-1
 170 -20 l 1,0,-1
EndSplineSet
Validated: 19457
EndChar

StartChar: I
Encoding: 73 73 44
Width: 640
GlyphClass: 2
Flags: W
HStem: -20 21G<160 212.177> 1510 20G<427.823 480>
VStem: 160 320<127 1383>
LayerCount: 2
Fore
SplineSet
170 -20 m 1,0,-1
 160 -20 l 1,1,-1
 160 1383 l 1,2,-1
 470 1530 l 1,3,-1
 480 1530 l 1,4,-1
 480 127 l 1,5,-1
 170 -20 l 1,0,-1
EndSplineSet
Validated: 19457
EndChar

StartChar: J
Encoding: 74 74 45
Width: 1200
GlyphClass: 2
Flags: W
HStem: -20 150<398.9 707.349> 1360 150<182 760>
VStem: 10 335<212.319 395.749> 760 320<210.484 1360>
LayerCount: 2
Fore
SplineSet
345 295 m 2,0,1
 345 203 345 203 403 171 c 0,2,3
 478 130 478 130 552.5 130 c 128,-1,4
 627 130 627 130 702 171 c 0,5,6
 760 203 760 203 760 295 c 2,7,-1
 760 1360 l 1,8,-1
 115 1360 l 1,9,-1
 115 1370 l 1,10,-1
 182 1510 l 1,11,-1
 1080 1510 l 1,12,-1
 1080 411 l 2,13,14
 1080 184 1080 184 912 82 c 128,-1,15
 744 -20 744 -20 545 -20 c 128,-1,16
 346 -20 346 -20 178 82 c 0,17,18
 21 177 21 177 10 389 c 1,19,-1
 335 542 l 1,20,-1
 345 542 l 1,21,-1
 345 295 l 2,0,1
EndSplineSet
Validated: 19457
EndChar

StartChar: K
Encoding: 75 75 46
Width: 1380
GlyphClass: 2
Flags: W
HStem: -20 21G<160 212.177 940 992.177> 1510 20G<427.823 480 1066.11 1143.29>
VStem: 160 320<127 913.062 1040 1383> 940 320<127 883.36>
DStem2: 480 1040 804 1102 0.779498 0.626405<291.394 783.838>
LayerCount: 2
Fore
SplineSet
170 -20 m 1,0,-1
 160 -20 l 1,1,-1
 160 1383 l 1,2,-1
 470 1530 l 1,3,-1
 480 1530 l 1,4,-1
 480 1040 l 1,5,-1
 1091 1531 l 1,6,-1
 1101 1531 l 1,7,-1
 1249 1461 l 1,8,-1
 804 1102 l 1,9,10
 968 1088 968 1088 1094 1011 c 0,11,12
 1260 910 1260 910 1260 682 c 2,13,-1
 1260 127 l 1,14,-1
 950 -20 l 1,15,-1
 940 -20 l 1,16,-1
 940 798 l 2,17,18
 940 890 940 890 882 922 c 0,19,20
 807 963 807 963 710 963 c 128,-1,21
 613 963 613 963 538 922 c 0,22,23
 480 890 480 890 480 798 c 2,24,-1
 480 127 l 1,25,-1
 170 -20 l 1,0,-1
EndSplineSet
Validated: 19457
EndChar

StartChar: L
Encoding: 76 76 47
Width: 1100
GlyphClass: 2
Flags: W
HStem: 0 150<480 1023> 1510 20G<427.534 480>
VStem: 160 320<150 1384>
LayerCount: 2
Fore
SplineSet
160 0 m 1,0,-1
 160 1384 l 1,1,-1
 470 1530 l 1,2,-1
 480 1530 l 1,3,-1
 480 150 l 1,4,-1
 1090 150 l 1,5,-1
 1090 140 l 1,6,-1
 1023 0 l 1,7,-1
 160 0 l 1,0,-1
EndSplineSet
Validated: 19457
EndChar

StartChar: M
Encoding: 77 77 48
Width: 2220
GlyphClass: 2
Flags: W
HStem: -20 21G<140 192.177 950 1002.18 1760 1812.18> 1380 150<514.812 897.571 1323.08 1705.35>
VStem: 140 320<127 1299.52> 950 320<127 1330.06> 1760 320<127 1299.52>
CounterMasks: 1 38
LayerCount: 2
Fore
SplineSet
150 -20 m 1,0,-1
 140 -20 l 1,1,-1
 140 1099 l 2,2,3
 140 1326 140 1326 308 1428 c 128,-1,4
 476 1530 476 1530 707 1530 c 128,-1,5
 938 1530 938 1530 1110 1423 c 1,6,7
 1284 1530 1284 1530 1514 1530 c 128,-1,8
 1744 1530 1744 1530 1912 1428 c 128,-1,9
 2080 1326 2080 1326 2080 1099 c 2,10,-1
 2080 127 l 1,11,-1
 1770 -20 l 1,12,-1
 1760 -20 l 1,13,-1
 1760 1215 l 2,14,15
 1760 1307 1760 1307 1702 1339 c 0,16,17
 1627 1380 1627 1380 1515 1380 c 128,-1,18
 1403 1380 1403 1380 1328 1339 c 0,19,20
 1270 1307 1270 1307 1270 1215 c 2,21,-1
 1270 127 l 1,22,-1
 960 -20 l 1,23,-1
 950 -20 l 1,24,-1
 950 1215 l 2,25,26
 950 1307 950 1307 892 1339 c 0,27,28
 817 1380 817 1380 705 1380 c 128,-1,29
 593 1380 593 1380 518 1339 c 0,30,31
 460 1307 460 1307 460 1215 c 2,32,-1
 460 127 l 1,33,-1
 150 -20 l 1,0,-1
EndSplineSet
Validated: 19457
EndChar

StartChar: N
Encoding: 78 78 49
Width: 1410
GlyphClass: 2
Flags: W
HStem: -20 21G<140 192.177 950 1002.18> 1380 150<514.495 895.505>
VStem: 140 320<127 1299.52> 950 320<127 1299.52>
LayerCount: 2
Fore
SplineSet
150 -20 m 1,0,-1
 140 -20 l 1,1,-1
 140 1099 l 2,2,3
 140 1326 140 1326 308 1428 c 128,-1,4
 476 1530 476 1530 705 1530 c 128,-1,5
 934 1530 934 1530 1102 1428 c 128,-1,6
 1270 1326 1270 1326 1270 1099 c 2,7,-1
 1270 127 l 1,8,-1
 960 -20 l 1,9,-1
 950 -20 l 1,10,-1
 950 1215 l 2,11,12
 950 1307 950 1307 892 1339 c 0,13,14
 817 1380 817 1380 705 1380 c 128,-1,15
 593 1380 593 1380 518 1339 c 0,16,17
 460 1307 460 1307 460 1215 c 2,18,-1
 460 127 l 1,19,-1
 150 -20 l 1,0,-1
EndSplineSet
Validated: 19457
EndChar

StartChar: O
Encoding: 79 79 50
Width: 1370
GlyphClass: 2
Flags: W
HStem: -20 150<502.664 867.336> 1380 150<502.664 867.336>
VStem: 120 330<210.484 1299.52> 920 330<210.484 1299.52>
LayerCount: 2
Fore
SplineSet
685 130 m 128,-1,1
 787 130 787 130 862 171 c 0,2,3
 920 203 920 203 920 295 c 2,4,-1
 920 1215 l 2,5,6
 920 1307 920 1307 862 1339 c 0,7,8
 787 1380 787 1380 685 1380 c 128,-1,9
 583 1380 583 1380 508 1339 c 0,10,11
 450 1307 450 1307 450 1215 c 2,12,-1
 450 295 l 2,13,14
 450 203 450 203 508 171 c 0,15,0
 583 130 583 130 685 130 c 128,-1,1
685 -20 m 128,-1,17
 456 -20 456 -20 288 82 c 128,-1,18
 120 184 120 184 120 411 c 2,19,-1
 120 1099 l 2,20,21
 120 1326 120 1326 288 1428 c 128,-1,22
 456 1530 456 1530 685 1530 c 128,-1,23
 914 1530 914 1530 1082 1428 c 128,-1,24
 1250 1326 1250 1326 1250 1099 c 2,25,-1
 1250 411 l 2,26,27
 1250 184 1250 184 1082 82 c 128,-1,16
 914 -20 914 -20 685 -20 c 128,-1,17
EndSplineSet
Validated: 19457
EndChar

StartChar: P
Encoding: 80 80 51
Width: 1270
GlyphClass: 2
Flags: W
HStem: -20 21G<160 212.177> 440 150<480 857.31> 1360 150<480 857.31>
VStem: 160 320<127 440 590 1360> 910 330<670.484 1279.52>
LayerCount: 2
Fore
SplineSet
170 -20 m 1,0,-1
 160 -20 l 1,1,-1
 160 1383 l 1,2,-1
 428 1510 l 1,3,-1
 675 1510 l 2,4,5
 904 1510 904 1510 1072 1408 c 128,-1,6
 1240 1306 1240 1306 1240 1079 c 2,7,-1
 1240 871 l 2,8,9
 1240 644 1240 644 1072 542 c 128,-1,10
 904 440 904 440 675 440 c 2,11,-1
 480 440 l 1,12,-1
 480 127 l 1,13,-1
 170 -20 l 1,0,-1
480 1360 m 1,14,-1
 480 590 l 1,15,-1
 665 590 l 2,16,17
 778 590 778 590 852 631 c 0,18,19
 910 663 910 663 910 755 c 2,20,-1
 910 1195 l 2,21,22
 910 1287 910 1287 852 1319 c 0,23,24
 777 1360 777 1360 665 1360 c 2,25,-1
 480 1360 l 1,14,-1
EndSplineSet
Validated: 19457
EndChar

StartChar: Q
Encoding: 81 81 52
Width: 1370
GlyphClass: 2
Flags: W
HStem: -40 21G<885.128 969.175> -20 150<494.495 769.054> 1380 150<494.495 875.505>
VStem: 120 320<210.484 1299.52> 930 320<420 1299.52>
LayerCount: 2
Fore
SplineSet
494 512 m 1,0,-1
 781 609 l 1,1,-1
 791 609 l 1,2,-1
 930 420 l 1,3,-1
 930 1215 l 2,4,5
 930 1307 930 1307 872 1339 c 0,6,7
 797 1380 797 1380 685 1380 c 128,-1,8
 573 1380 573 1380 498 1339 c 0,9,10
 440 1307 440 1307 440 1215 c 2,11,-1
 440 295 l 2,12,13
 440 203 440 203 498 171 c 0,14,15
 573 130 573 130 685 130 c 0,16,17
 731 130 731 130 770 137 c 1,18,-1
 494 512 l 1,0,-1
685 -20 m 0,19,20
 456 -20 456 -20 288 82 c 128,-1,21
 120 184 120 184 120 411 c 2,22,-1
 120 1099 l 2,23,24
 120 1326 120 1326 288 1428 c 128,-1,25
 456 1530 456 1530 685 1530 c 128,-1,26
 914 1530 914 1530 1082 1428 c 128,-1,27
 1250 1326 1250 1326 1250 1099 c 2,28,-1
 1250 411 l 2,29,30
 1250 231 1250 231 1144 129 c 1,31,-1
 1197 57 l 1,32,-1
 910 -40 l 1,33,-1
 900 -40 l 1,34,-1
 871 -1 l 1,35,36
 784 -20 784 -20 685 -20 c 0,19,20
EndSplineSet
Validated: 19457
EndChar

StartChar: R
Encoding: 82 82 53
Width: 1369
GlyphClass: 2
Flags: W
HStem: -20 21G<160 212.177 998.87 1068> 440 150<480 688> 1360 150<480 857.31>
VStem: 160 320<127 440 590 1360> 910 330<670.484 1279.52>
LayerCount: 2
Fore
SplineSet
480 1360 m 1,0,-1
 480 590 l 1,1,-1
 665 590 l 2,2,3
 778 590 778 590 852 631 c 0,4,5
 910 663 910 663 910 755 c 2,6,-1
 910 1195 l 2,7,8
 910 1287 910 1287 852 1319 c 0,9,10
 777 1360 777 1360 665 1360 c 2,11,-1
 480 1360 l 1,0,-1
170 -20 m 1,12,-1
 160 -20 l 1,13,-1
 160 1383 l 1,14,-1
 428 1510 l 1,15,-1
 675 1510 l 2,16,17
 904 1510 904 1510 1072 1408 c 128,-1,18
 1240 1306 1240 1306 1240 1079 c 2,19,-1
 1240 871 l 2,20,21
 1240 644 1240 644 1072 542 c 0,22,23
 1054 531 1054 531 1036 521 c 1,24,-1
 1329 116 l 1,25,-1
 1023 -20 l 1,26,-1
 1013 -20 l 1,27,-1
 688 440 l 9,28,-1
 480 440 l 1,29,-1
 480 127 l 1,30,-1
 170 -20 l 1,12,-1
EndSplineSet
Validated: 19457
EndChar

StartChar: T
Encoding: 84 84 54
Width: 1190
GlyphClass: 2
Flags: W
HStem: -20 21G<435 487.466> 1360 150<77 435 755 1113>
VStem: 435 320<126 1360>
LayerCount: 2
Fore
SplineSet
445 -20 m 1,0,-1
 435 -20 l 1,1,-1
 435 1360 l 1,2,-1
 10 1360 l 1,3,-1
 10 1370 l 1,4,-1
 77 1510 l 1,5,-1
 1180 1510 l 1,6,-1
 1180 1500 l 1,7,-1
 1113 1360 l 1,8,-1
 755 1360 l 1,9,-1
 755 126 l 1,10,-1
 445 -20 l 1,0,-1
EndSplineSet
Validated: 1
EndChar

StartChar: U
Encoding: 85 85 55
Width: 1410
GlyphClass: 2
Flags: W
HStem: -20 150<514.495 895.505> 1510 20G<407.823 460 1217.82 1270>
VStem: 140 320<210.484 1383> 950 320<210.484 1383>
LayerCount: 2
Fore
SplineSet
705 -20 m 128,-1,1
 476 -20 476 -20 308 82 c 128,-1,2
 140 184 140 184 140 411 c 2,3,-1
 140 1383 l 1,4,-1
 450 1530 l 1,5,-1
 460 1530 l 1,6,-1
 460 295 l 2,7,8
 460 203 460 203 518 171 c 0,9,10
 593 130 593 130 705 130 c 128,-1,11
 817 130 817 130 892 171 c 0,12,13
 950 203 950 203 950 295 c 2,14,-1
 950 1383 l 1,15,-1
 1260 1530 l 1,16,-1
 1270 1530 l 1,17,-1
 1270 411 l 2,18,19
 1270 184 1270 184 1102 82 c 128,-1,0
 934 -20 934 -20 705 -20 c 128,-1,1
EndSplineSet
Validated: 19457
EndChar

StartChar: V
Encoding: 86 86 56
Width: 1385
GlyphClass: 2
Flags: W
HStem: -20 21G<540.336 600.222> 1510 20G<244.594 304.665 1225.81 1286.5>
DStem2: 297 1530 5 1397 0.357831 -0.933786<19.707 1265.83> 750 348 824 106 0.378421 0.925634<0 1273.26>
LayerCount: 2
Fore
SplineSet
558 -20 m 1,0,-1
 548 -20 l 1,1,-1
 5 1397 l 1,2,-1
 287 1530 l 1,3,-1
 297 1530 l 1,4,-1
 750 348 l 1,5,-1
 1234 1530 l 1,6,-1
 1244 1530 l 1,7,-1
 1380 1466 l 1,8,-1
 824 106 l 1,9,-1
 558 -20 l 1,0,-1
EndSplineSet
Validated: 1
EndChar

StartChar: W
Encoding: 87 87 57
Width: 2220
GlyphClass: 2
Flags: W
HStem: -20 150<514.654 896.921 1322.43 1705.19> 1510 20G<407.823 460 1217.82 1270 2027.82 2080>
VStem: 140 320<210.484 1383> 950 320<179.938 1383> 1760 320<210.484 1383>
CounterMasks: 1 38
LayerCount: 2
Fore
SplineSet
706 -20 m 128,-1,1
 476 -20 476 -20 308 82 c 128,-1,2
 140 184 140 184 140 411 c 2,3,-1
 140 1383 l 1,4,-1
 450 1530 l 1,5,-1
 460 1530 l 1,6,-1
 460 295 l 2,7,8
 460 203 460 203 518 171 c 0,9,10
 593 130 593 130 705 130 c 128,-1,11
 817 130 817 130 892 171 c 0,12,13
 950 203 950 203 950 295 c 2,14,-1
 950 1383 l 1,15,-1
 1260 1530 l 1,16,-1
 1270 1530 l 1,17,-1
 1270 295 l 2,18,19
 1270 203 1270 203 1328 171 c 0,20,21
 1403 130 1403 130 1515 130 c 128,-1,22
 1627 130 1627 130 1702 171 c 0,23,24
 1760 203 1760 203 1760 295 c 2,25,-1
 1760 1383 l 1,26,-1
 2070 1530 l 1,27,-1
 2080 1530 l 1,28,-1
 2080 411 l 2,29,30
 2080 184 2080 184 1912 82 c 128,-1,31
 1744 -20 1744 -20 1513 -20 c 128,-1,32
 1282 -20 1282 -20 1110 87 c 1,33,0
 936 -20 936 -20 706 -20 c 128,-1,1
EndSplineSet
Validated: 19457
EndChar

StartChar: X
Encoding: 88 88 58
Width: 1249
GlyphClass: 2
Flags: W
HStem: -20 21G<104.846 171.583 949.597 1015.22> 1510 20G<233.778 299.38 1077.44 1143.52>
DStem2: 286 1530 10 1404 0.556181 -0.831061<0 694.208 971.302 1664.68> 10 45 157 -20 0.588883 0.808218<34.0317 746.896 1123.7 1837.38>
LayerCount: 2
Fore
SplineSet
157 -20 m 1,0,-1
 147 -20 l 1,1,-1
 10 45 l 1,2,-1
 484 696 l 1,3,-1
 10 1404 l 1,4,-1
 276 1530 l 1,5,-1
 286 1530 l 1,6,-1
 672 953 l 1,7,-1
 1092 1530 l 1,8,-1
 1102 1530 l 1,9,-1
 1239 1464 l 1,10,-1
 765 814 l 1,11,-1
 1239 106 l 1,12,-1
 973 -20 l 1,13,-1
 963 -20 l 1,14,-1
 577 556 l 1,15,-1
 157 -20 l 1,0,-1
EndSplineSet
Validated: 19457
EndChar

StartChar: Y
Encoding: 89 89 59
Width: 1270
GlyphClass: 2
Flags: W
HStem: -20 21G<475 527.177> 1510 20G<347.823 400 1137.82 1190>
VStem: 80 320<613.484 1383> 475 320<127 407.402> 870 320<613.484 1383>
CounterMasks: 1 38
LayerCount: 2
Fore
SplineSet
485 -20 m 1,0,-1
 475 -20 l 1,1,-1
 475 398 l 1,2,3
 352 422 352 422 248 485 c 0,4,5
 80 587 80 587 80 814 c 2,6,-1
 80 1383 l 1,7,-1
 390 1530 l 1,8,-1
 400 1530 l 1,9,-1
 400 698 l 2,10,11
 400 606 400 606 458 574 c 0,12,13
 533 533 533 533 635 533 c 128,-1,14
 737 533 737 533 812 574 c 0,15,16
 870 606 870 606 870 698 c 2,17,-1
 870 1383 l 1,18,-1
 1180 1530 l 1,19,-1
 1190 1530 l 1,20,-1
 1190 814 l 2,21,22
 1190 587 1190 587 1022 485 c 0,23,24
 918 422 918 422 795 398 c 1,25,-1
 795 127 l 1,26,-1
 485 -20 l 1,0,-1
EndSplineSet
Validated: 19457
EndChar

StartChar: Z
Encoding: 90 90 60
Width: 1138
GlyphClass: 2
Flags: W
HStem: 0 150<419 1061> 1360 150<108 718>
DStem2: 10 10 419 150 0.464962 0.88533<314.116 1524.39>
LayerCount: 2
Fore
SplineSet
10 0 m 1,0,-1
 10 10 l 1,1,-1
 718 1360 l 1,2,-1
 41 1360 l 1,3,-1
 41 1370 l 1,4,-1
 108 1510 l 1,5,-1
 1128 1510 l 1,6,-1
 1128 1500 l 1,7,-1
 419 150 l 1,8,-1
 1128 150 l 1,9,-1
 1128 140 l 1,10,-1
 1061 0 l 1,11,-1
 10 0 l 1,0,-1
EndSplineSet
Validated: 19457
EndChar

StartChar: bracketleft
Encoding: 91 91 61
Width: 920
GlyphClass: 2
Flags: W
HStem: -240 150<480 843> 1600 150<480 843>
VStem: 160 320<-90 1600>
LayerCount: 2
Fore
SplineSet
160 -240 m 1,0,-1
 160 1624 l 1,1,-1
 428 1750 l 1,2,-1
 910 1750 l 1,3,-1
 910 1740 l 1,4,-1
 843 1600 l 1,5,-1
 480 1600 l 1,6,-1
 480 -90 l 1,7,-1
 910 -90 l 1,8,-1
 910 -100 l 1,9,-1
 843 -240 l 1,10,-1
 160 -240 l 1,0,-1
EndSplineSet
Validated: 19457
EndChar

StartChar: backslash
Encoding: 92 92 62
Width: 1105
GlyphClass: 2
Flags: W
DStem2: 256 1710 10 1597 0.423051 -0.906106<0 1981.11>
LayerCount: 2
Fore
SplineSet
858 -200 m 1,0,-1
 848 -200 l 1,1,-1
 10 1597 l 1,2,-1
 246 1710 l 1,3,-1
 256 1710 l 1,4,-1
 1095 -87 l 1,5,-1
 858 -200 l 1,0,-1
EndSplineSet
Validated: 1
EndChar

StartChar: bracketright
Encoding: 93 93 63
Width: 920
GlyphClass: 2
Flags: W
HStem: -240 150<77 440> 1600 150<77 440>
VStem: 440 320<-90 1600>
LayerCount: 2
Fore
SplineSet
492 -240 m 1,0,-1
 10 -240 l 1,1,-1
 10 -230 l 1,2,-1
 77 -90 l 1,3,-1
 440 -90 l 1,4,-1
 440 1600 l 1,5,-1
 10 1600 l 1,6,-1
 10 1610 l 1,7,-1
 77 1750 l 1,8,-1
 760 1750 l 1,9,-1
 760 -114 l 1,10,-1
 492 -240 l 1,0,-1
EndSplineSet
Validated: 19457
EndChar

StartChar: asciicircum
Encoding: 94 94 64
Width: 1061
GlyphClass: 2
Flags: W
HStem: 1039 531
DStem2: 30 1112 193 1039 0.701689 0.712484<62.3639 462.65> 634 1570 469 1329 0.700901 -0.713259<56.2468 462.849>
LayerCount: 2
Fore
SplineSet
355 1442 m 1,0,-1
 624 1570 l 1,1,-1
 634 1570 l 1,2,-1
 1031 1166 l 1,3,-1
 764 1039 l 1,4,-1
 754 1039 l 1,5,-1
 469 1329 l 1,6,-1
 193 1039 l 1,7,-1
 183 1039 l 1,8,-1
 30 1112 l 1,9,-1
 355 1442 l 1,0,-1
EndSplineSet
Validated: 19457
EndChar

StartChar: underscore
Encoding: 95 95 65
Width: 1404
GlyphClass: 2
Flags: W
HStem: -410 200<201 1203>
LayerCount: 2
Fore
SplineSet
110 -410 m 1,0,-1
 110 -400 l 1,1,-1
 201 -210 l 1,2,-1
 1294 -210 l 1,3,-1
 1294 -220 l 1,4,-1
 1203 -410 l 1,5,-1
 110 -410 l 1,0,-1
EndSplineSet
Validated: 19457
EndChar

StartChar: grave
Encoding: 96 96 66
Width: 405
GlyphClass: 2
Flags: W
HStem: 1160 410
VStem: 30 345
DStem2: 220 1570 30 1485 0.429396 -0.903116<0 356.108>
LayerCount: 2
Fore
SplineSet
210 1570 m 1,0,-1
 220 1570 l 1,1,-1
 375 1244 l 1,2,-1
 197 1160 l 1,3,-1
 187 1160 l 1,4,-1
 30 1485 l 1,5,-1
 210 1570 l 1,0,-1
EndSplineSet
Validated: 19457
EndChar

StartChar: a
Encoding: 97 97 67
Width: 1100
GlyphClass: 2
Flags: W
HStem: -20 140<384.133 630.559> 574 140<384.883 630.323> 960 140<262 617.365>
VStem: 40 310<160.426 533.519> 665 295<153.822 539.994 682 915.231>
LayerCount: 2
Fore
SplineSet
500 -20 m 0,0,1
 320 -20 320 -20 188 61 c 24,2,3
 40 151 40 151 40 328 c 2,4,-1
 40 366 l 2,5,6
 40 545 40 545 182.5 629.5 c 128,-1,7
 325 714 325 714 500 714 c 0,8,9
 598 714 598 714 659 682 c 1,10,-1
 659 838 l 2,11,12
 659 901 659 901 619 927 c 0,13,14
 567 960 567 960 473 960 c 2,15,-1
 200 960 l 1,16,-1
 200 970 l 1,17,-1
 262 1100 l 1,18,-1
 485 1100 l 2,19,20
 677 1100 677 1100 812 1017 c 24,21,22
 960 926 960 926 960 741 c 2,23,-1
 960 118 l 1,24,-1
 670 -20 l 1,25,-1
 660 -20 l 1,26,-1
 660 16 l 1,27,28
 598 -20 598 -20 500 -20 c 0,0,1
503 120 m 0,29,30
 577 120 577 120 625 153 c 0,31,32
 665 179 665 179 665 242 c 2,33,-1
 665 452 l 2,34,35
 665 509 665 509 625 541 c 0,36,37
 584 574 584 574 502 574 c 0,38,39
 433 574 433 574 390 541 c 0,40,41
 350 512 350 512 350 452 c 2,42,-1
 350 242 l 2,43,44
 350 182 350 182 390 153 c 0,45,46
 436 120 436 120 503 120 c 0,29,30
EndSplineSet
Validated: 19457
EndChar

StartChar: b
Encoding: 98 98 68
Width: 1210
GlyphClass: 2
Flags: W
HStem: -20 140<475.315 744.34> 980 140<474.772 744.34> 1510 20G<387.971 440>
VStem: 140 300<166.666 946.178 1089 1392> 780 310<166.171 933.829>
LayerCount: 2
Fore
SplineSet
610 120 m 128,-1,1
 689 120 689 120 740 153 c 0,2,3
 780 179 780 179 780 242 c 2,4,-1
 780 858 l 2,5,6
 780 921 780 921 740 947 c 0,7,8
 689 980 689 980 610 980 c 128,-1,9
 531 980 531 980 480 947 c 0,10,11
 440 921 440 921 440 858 c 2,12,-1
 440 242 l 2,13,14
 440 179 440 179 480 153 c 0,15,0
 531 120 531 120 610 120 c 128,-1,1
615 -20 m 128,-1,17
 426 -20 426 -20 283 67 c 0,18,19
 140 155 140 155 140 340 c 2,20,-1
 140 1392 l 1,21,-1
 430 1530 l 1,22,-1
 440 1530 l 1,23,-1
 440 1089 l 1,24,25
 520 1120 520 1120 615 1120 c 0,26,27
 804 1120 804 1120 947 1033 c 128,-1,28
 1090 946 1090 946 1090 760 c 2,29,-1
 1090 340 l 2,30,31
 1090 154 1090 154 947 67 c 128,-1,16
 804 -20 804 -20 615 -20 c 128,-1,17
EndSplineSet
Validated: 19457
EndChar

StartChar: c
Encoding: 99 99 69
Width: 1080
GlyphClass: 2
Flags: W
HStem: -20 140<465.207 689.807> 980 140<465.176 689.745>
VStem: 120 310<166.171 933.829> 725 315<166.171 320 784.185 936.4>
LayerCount: 2
Fore
SplineSet
580 -20 m 128,-1,1
 406 -20 406 -20 263 67 c 128,-1,2
 120 154 120 154 120 340 c 2,3,-1
 120 760 l 2,4,5
 120 946 120 946 263 1033 c 128,-1,6
 406 1120 406 1120 580 1120 c 128,-1,7
 754 1120 754 1120 897 1033 c 0,8,9
 1027 954 1027 954 1039 791 c 1,10,-1
 735 646 l 1,11,-1
 725 646 l 1,12,-1
 725 858 l 2,13,14
 725 919 725 919 685 947 c 0,15,16
 638 980 638 980 578 980 c 0,17,18
 515 980 515 980 470 947 c 0,19,20
 432 919 432 919 430 858 c 2,21,-1
 430 242 l 2,22,23
 430 181 430 181 470 153 c 0,24,25
 517 120 517 120 578 120 c 0,26,27
 642 120 642 120 685 153 c 0,28,29
 723 182 723 182 725 242 c 2,30,-1
 725 320 l 1,31,-1
 1030 465 l 1,32,-1
 1040 465 l 1,33,-1
 1040 340 l 2,34,35
 1040 154 1040 154 897 67 c 128,-1,0
 754 -20 754 -20 580 -20 c 128,-1,1
EndSplineSet
Validated: 19457
EndChar

StartChar: d
Encoding: 100 100 70
Width: 1210
GlyphClass: 2
Flags: W
HStem: -20 140<465.66 734.685> 980 140<465.66 735.228> 1510 20G<1017.97 1070>
VStem: 120 310<166.171 933.829> 770 300<166.171 946.178 1089 1392>
LayerCount: 2
Fore
SplineSet
600 120 m 128,-1,1
 679 120 679 120 730 153 c 0,2,3
 770 179 770 179 770 242 c 2,4,-1
 770 858 l 2,5,6
 770 921 770 921 730 947 c 0,7,8
 679 980 679 980 600 980 c 128,-1,9
 521 980 521 980 470 947 c 0,10,11
 430 921 430 921 430 858 c 2,12,-1
 430 242 l 2,13,14
 430 179 430 179 470 153 c 0,15,0
 521 120 521 120 600 120 c 128,-1,1
595 -20 m 128,-1,17
 406 -20 406 -20 263 67 c 128,-1,18
 120 154 120 154 120 340 c 2,19,-1
 120 760 l 2,20,21
 120 946 120 946 263 1033 c 128,-1,22
 406 1120 406 1120 595 1120 c 0,23,24
 690 1120 690 1120 770 1089 c 1,25,-1
 770 1392 l 1,26,-1
 1060 1530 l 1,27,-1
 1070 1530 l 1,28,-1
 1070 340 l 2,29,30
 1070 154 1070 154 927 67 c 128,-1,16
 784 -20 784 -20 595 -20 c 128,-1,17
EndSplineSet
Validated: 19457
EndChar

StartChar: e
Encoding: 101 101 71
Width: 1170
GlyphClass: 2
Flags: W
HStem: -20 140<466.172 698.729> 980 140<466.187 703.828>
VStem: 120 310<166.171 348 523 933.829> 735 315<166.171 320 670 933.829>
DStem2: 430 523 430 348 0.904123 0.427271<0 343.087>
LayerCount: 2
Fore
SplineSet
585 -20 m 128,-1,1
 406 -20 406 -20 263 67 c 128,-1,2
 120 154 120 154 120 340 c 2,3,-1
 120 760 l 2,4,5
 120 946 120 946 263 1033 c 128,-1,6
 406 1120 406 1120 585 1120 c 128,-1,7
 764 1120 764 1120 907 1033 c 128,-1,8
 1050 946 1050 946 1050 760 c 2,9,-1
 1050 641 l 1,10,-1
 430 348 l 1,11,-1
 430 242 l 2,12,13
 430 184 430 184 470 153 c 0,14,15
 513 120 513 120 582.5 120 c 128,-1,16
 652 120 652 120 695 153 c 0,17,18
 735 184 735 184 735 242 c 2,19,-1
 735 320 l 1,20,-1
 1040 465 l 1,21,-1
 1050 465 l 1,22,-1
 1050 340 l 2,23,24
 1050 154 1050 154 907 67 c 128,-1,0
 764 -20 764 -20 585 -20 c 128,-1,1
430 523 m 1,25,-1
 740 670 l 1,26,-1
 740 858 l 2,27,28
 738 918 738 918 700 947 c 0,29,30
 657 980 657 980 585 980 c 0,31,32
 514 980 514 980 470 947 c 0,33,34
 430 919 430 919 430 858 c 2,35,-1
 430 523 l 1,25,-1
EndSplineSet
Validated: 19457
EndChar

StartChar: f
Encoding: 102 102 72
Width: 860
GlyphClass: 2
Flags: W
HStem: -20 21G<140 192.029> 802 140<440 749> 1370 140<481.604 788>
VStem: 140 300<118 802 942 1323.83>
LayerCount: 2
Fore
SplineSet
150 -20 m 1,0,-1
 140 -20 l 1,1,-1
 140 1150 l 2,2,3
 140 1336 140 1336 283 1423 c 128,-1,4
 426 1510 426 1510 615 1510 c 2,5,-1
 850 1510 l 1,6,-1
 850 1500 l 1,7,-1
 788 1370 l 1,8,-1
 626 1370 l 2,9,10
 531 1370 531 1370 480 1337 c 0,11,12
 440 1311 440 1311 440 1248 c 2,13,-1
 440 942 l 1,14,-1
 811 942 l 1,15,-1
 811 932 l 1,16,-1
 749 802 l 1,17,-1
 440 802 l 1,18,-1
 440 118 l 1,19,-1
 150 -20 l 1,0,-1
EndSplineSet
Validated: 19457
EndChar

StartChar: g
Encoding: 103 103 73
Width: 1210
GlyphClass: 2
Flags: W
HStem: -410 140<322 728.396> -20 140<465.66 735.797> 980 140<465.66 734.685>
VStem: 120 310<166.171 933.829> 770 300<-223.829 11 153.822 933.829>
LayerCount: 2
Fore
SplineSet
600 120 m 128,-1,1
 679 120 679 120 730 153 c 0,2,3
 770 179 770 179 770 242 c 2,4,-1
 770 858 l 2,5,6
 770 921 770 921 730 947 c 0,7,8
 679 980 679 980 600 980 c 128,-1,9
 521 980 521 980 470 947 c 0,10,11
 430 921 430 921 430 858 c 2,12,-1
 430 242 l 2,13,14
 430 179 430 179 470 153 c 0,15,0
 521 120 521 120 600 120 c 128,-1,1
260 -410 m 1,16,-1
 260 -400 l 1,17,-1
 322 -270 l 1,18,-1
 584 -270 l 2,19,20
 679 -270 679 -270 730 -237 c 0,21,22
 770 -211 770 -211 770 -148 c 2,23,-1
 770 11 l 1,24,25
 694 -20 694 -20 595 -20 c 0,26,27
 406 -20 406 -20 263 67 c 128,-1,28
 120 154 120 154 120 340 c 2,29,-1
 120 760 l 2,30,31
 120 946 120 946 263 1033 c 128,-1,32
 406 1120 406 1120 595 1120 c 128,-1,33
 784 1120 784 1120 927 1033 c 128,-1,34
 1070 946 1070 946 1070 760 c 2,35,-1
 1070 -50 l 2,36,37
 1070 -236 1070 -236 927 -323 c 128,-1,38
 784 -410 784 -410 595 -410 c 2,39,-1
 260 -410 l 1,16,-1
EndSplineSet
Validated: 19457
EndChar

StartChar: h
Encoding: 104 104 74
Width: 1250
GlyphClass: 2
Flags: W
HStem: -20 21G<160 212.029 810 862.029> 980 140<494.539 774.684> 1510 20G<407.971 460>
VStem: 160 300<118 946.178 1089 1392> 810 300<118 933.829>
LayerCount: 2
Fore
SplineSet
170 -20 m 1,0,-1
 160 -20 l 1,1,-1
 160 1392 l 1,2,-1
 450 1530 l 1,3,-1
 460 1530 l 1,4,-1
 460 1089 l 1,5,6
 548 1120 548 1120 635 1120 c 0,7,8
 824 1120 824 1120 967 1033 c 128,-1,9
 1110 946 1110 946 1110 760 c 2,10,-1
 1110 118 l 1,11,-1
 820 -20 l 1,12,-1
 810 -20 l 1,13,-1
 810 858 l 2,14,15
 810 921 810 921 770 947 c 0,16,17
 719 980 719 980 635 980 c 128,-1,18
 551 980 551 980 500 947 c 0,19,20
 460 921 460 921 460 858 c 2,21,-1
 460 118 l 1,22,-1
 170 -20 l 1,0,-1
EndSplineSet
Validated: 19457
EndChar

StartChar: i
Encoding: 105 105 75
Width: 620
GlyphClass: 2
Flags: W
HStem: -20 21G<160 212.029> 1100 20G<407.971 460> 1180 364<192.131 426.338>
VStem: 130 360<1244.3 1481.73> 160 300<118 982>
LayerCount: 2
Fore
SplineSet
170 -20 m 1,0,-1
 160 -20 l 1,1,-1
 160 982 l 1,2,-1
 450 1120 l 1,3,-1
 460 1120 l 1,4,-1
 460 118 l 1,5,-1
 170 -20 l 1,0,-1
310 1544 m 0,6,7
 386 1544 386 1544 438 1491 c 128,-1,8
 490 1438 490 1438 490 1363 c 0,9,10
 490 1289 490 1289 437 1234 c 0,11,12
 385 1180 385 1180 310 1180 c 0,13,14
 233 1180 233 1180 181.5 1234 c 128,-1,15
 130 1288 130 1288 130 1362 c 0,16,17
 130 1438 130 1438 182 1490 c 0,18,19
 235 1544 235 1544 310 1544 c 0,6,7
EndSplineSet
Validated: 19457
EndChar

StartChar: j
Encoding: 106 106 76
Width: 620
GlyphClass: 2
Flags: W
HStem: -410 21G<-75 79.5> 1100 20G<407.971 460> 1180 364<192.131 426.338>
VStem: 130 360<1244.3 1481.73> 160 300<-221.025 982>
LayerCount: 2
Fore
SplineSet
310 1544 m 0,0,1
 386 1544 386 1544 438 1491 c 128,-1,2
 490 1438 490 1438 490 1363 c 0,3,4
 490 1289 490 1289 437 1234 c 0,5,6
 385 1180 385 1180 310 1180 c 0,7,8
 233 1180 233 1180 181.5 1234 c 128,-1,9
 130 1288 130 1288 130 1362 c 0,10,11
 130 1438 130 1438 182 1490 c 0,12,13
 235 1544 235 1544 310 1544 c 0,0,1
-75 -410 m 1,14,-1
 -75 -400 l 1,15,-1
 -13 -270 l 1,16,17
 75 -260 75 -260 120 -222 c 0,18,19
 160 -191 160 -191 160 -133 c 2,20,-1
 160 982 l 1,21,-1
 450 1120 l 1,22,-1
 460 1120 l 1,23,-1
 460 -50 l 2,24,25
 460 -236 460 -236 317 -323 c 128,-1,26
 174 -410 174 -410 -15 -410 c 2,27,-1
 -75 -410 l 1,14,-1
EndSplineSet
Validated: 19457
EndChar

StartChar: k
Encoding: 107 107 77
Width: 1210
GlyphClass: 2
Flags: W
HStem: -20 21G<160 212.029 790 842.029> 1100 20G<902.4 986.319> 1510 20G<407.971 460>
VStem: 160 300<118 665.178 820 1392> 790 300<118 652.829>
DStem2: 460 820 716 817 0.84498 0.534798<214.711 560.96>
LayerCount: 2
Fore
SplineSet
170 -20 m 1,0,-1
 160 -20 l 1,1,-1
 160 1392 l 1,2,-1
 450 1530 l 1,3,-1
 460 1530 l 1,4,-1
 460 820 l 1,5,-1
 934 1120 l 1,6,-1
 944 1120 l 1,7,-1
 1090 1051 l 1,8,-1
 716 817 l 1,9,10
 854 808 854 808 947 752 c 0,11,12
 1090 665 1090 665 1090 479 c 2,13,-1
 1090 118 l 1,14,-1
 800 -20 l 1,15,-1
 790 -20 l 1,16,-1
 790 577 l 2,17,18
 790 640 790 640 750 666 c 0,19,20
 699 699 699 699 625 699 c 128,-1,21
 551 699 551 699 500 666 c 0,22,23
 460 640 460 640 460 577 c 2,24,-1
 460 118 l 1,25,-1
 170 -20 l 1,0,-1
EndSplineSet
Validated: 19457
EndChar

StartChar: l
Encoding: 108 108 78
Width: 620
GlyphClass: 2
Flags: W
HStem: -20 21G<160 212.029> 1510 20G<407.971 460>
VStem: 160 300<118 1392>
LayerCount: 2
Fore
SplineSet
170 -20 m 1,0,-1
 160 -20 l 1,1,-1
 160 1392 l 1,2,-1
 450 1530 l 1,3,-1
 460 1530 l 1,4,-1
 460 118 l 1,5,-1
 170 -20 l 1,0,-1
EndSplineSet
Validated: 19457
EndChar

StartChar: m
Encoding: 109 109 79
Width: 1880
GlyphClass: 2
Flags: W
HStem: -20 21G<140 192.029 790 842.029 1440 1492.03> 980 140<475.316 755.498 1124.5 1404.68>
VStem: 140 300<118 933.829> 790 300<118 946.178> 1440 300<118 933.829>
CounterMasks: 1 38
LayerCount: 2
Fore
SplineSet
150 -20 m 1,0,-1
 140 -20 l 1,1,-1
 140 760 l 2,2,3
 140 946 140 946 283 1033 c 128,-1,4
 426 1120 426 1120 615 1120 c 0,5,6
 799 1120 799 1120 940 1037 c 1,7,8
 1081 1120 1081 1120 1265 1120 c 0,9,10
 1454 1120 1454 1120 1597 1033 c 128,-1,11
 1740 946 1740 946 1740 760 c 2,12,-1
 1740 118 l 1,13,-1
 1450 -20 l 1,14,-1
 1440 -20 l 1,15,-1
 1440 858 l 2,16,17
 1440 921 1440 921 1400 947 c 0,18,19
 1349 980 1349 980 1265 980 c 128,-1,20
 1181 980 1181 980 1130 947 c 0,21,22
 1090 921 1090 921 1090 858 c 2,23,-1
 1090 118 l 1,24,-1
 800 -20 l 1,25,-1
 790 -20 l 1,26,-1
 790 858 l 2,27,28
 790 921 790 921 750 947 c 0,29,30
 699 980 699 980 615 980 c 128,-1,31
 531 980 531 980 480 947 c 0,32,33
 440 921 440 921 440 858 c 2,34,-1
 440 118 l 1,35,-1
 150 -20 l 1,0,-1
EndSplineSet
Validated: 19457
EndChar

StartChar: n
Encoding: 110 110 80
Width: 1230
GlyphClass: 2
Flags: W
HStem: -20 21G<140 192.029 790 842.029> 980 140<475.316 754.684>
VStem: 140 300<118 933.829> 790 300<118 933.829>
LayerCount: 2
Fore
SplineSet
150 -20 m 1,0,-1
 140 -20 l 1,1,-1
 140 760 l 2,2,3
 140 946 140 946 283 1033 c 128,-1,4
 426 1120 426 1120 615 1120 c 128,-1,5
 804 1120 804 1120 947 1033 c 128,-1,6
 1090 946 1090 946 1090 760 c 2,7,-1
 1090 118 l 1,8,-1
 800 -20 l 1,9,-1
 790 -20 l 1,10,-1
 790 858 l 2,11,12
 790 921 790 921 750 947 c 0,13,14
 699 980 699 980 615 980 c 128,-1,15
 531 980 531 980 480 947 c 0,16,17
 440 921 440 921 440 858 c 2,18,-1
 440 118 l 1,19,-1
 150 -20 l 1,0,-1
EndSplineSet
Validated: 19457
EndChar

StartChar: o
Encoding: 111 111 81
Width: 1190
GlyphClass: 2
Flags: W
HStem: -20 140<465.659 724.341> 980 140<465.659 724.341>
VStem: 120 310<166.171 933.829> 760 310<166.171 933.829>
LayerCount: 2
Fore
SplineSet
595 -20 m 128,-1,1
 406 -20 406 -20 263 67 c 128,-1,2
 120 154 120 154 120 340 c 2,3,-1
 120 760 l 2,4,5
 120 946 120 946 263 1033 c 128,-1,6
 406 1120 406 1120 595 1120 c 128,-1,7
 784 1120 784 1120 927 1033 c 128,-1,8
 1070 946 1070 946 1070 760 c 2,9,-1
 1070 340 l 2,10,11
 1070 154 1070 154 927 67 c 128,-1,0
 784 -20 784 -20 595 -20 c 128,-1,1
595 120 m 128,-1,13
 669 120 669 120 720 153 c 0,14,15
 760 179 760 179 760 242 c 2,16,-1
 760 858 l 2,17,18
 760 921 760 921 720 947 c 0,19,20
 669 980 669 980 595 980 c 128,-1,21
 521 980 521 980 470 947 c 0,22,23
 430 921 430 921 430 858 c 2,24,-1
 430 242 l 2,25,26
 430 179 430 179 470 153 c 0,27,12
 521 120 521 120 595 120 c 128,-1,13
EndSplineSet
Validated: 19457
EndChar

StartChar: p
Encoding: 112 112 82
Width: 1210
GlyphClass: 2
Flags: W
HStem: -430 21G<140 192.029> -20 140<474.772 744.34> 980 140<475.315 744.34>
VStem: 140 300<-292 11 153.822 933.829> 780 310<166.171 933.829>
LayerCount: 2
Fore
SplineSet
610 980 m 128,-1,1
 531 980 531 980 480 947 c 0,2,3
 440 921 440 921 440 858 c 2,4,-1
 440 242 l 2,5,6
 440 179 440 179 480 153 c 0,7,8
 531 120 531 120 610 120 c 128,-1,9
 689 120 689 120 740 153 c 0,10,11
 780 179 780 179 780 242 c 2,12,-1
 780 858 l 2,13,14
 780 921 780 921 740 947 c 0,15,0
 689 980 689 980 610 980 c 128,-1,1
615 -20 m 0,16,17
 520 -20 520 -20 440 11 c 1,18,-1
 440 -292 l 1,19,-1
 150 -430 l 1,20,-1
 140 -430 l 1,21,-1
 140 760 l 2,22,23
 140 946 140 946 283 1033 c 128,-1,24
 426 1120 426 1120 615 1120 c 128,-1,25
 804 1120 804 1120 947 1033 c 128,-1,26
 1090 946 1090 946 1090 760 c 2,27,-1
 1090 340 l 2,28,29
 1090 154 1090 154 947 67 c 128,-1,30
 804 -20 804 -20 615 -20 c 0,16,17
EndSplineSet
Validated: 19457
EndChar

StartChar: q
Encoding: 113 113 83
Width: 1210
GlyphClass: 2
Flags: W
HStem: -430 21G<770 822.029> -20 140<465.66 735.228> 980 140<465.66 734.685>
VStem: 120 310<166.171 933.829> 770 300<-292 11 153.822 933.334>
LayerCount: 2
Fore
SplineSet
600 980 m 128,-1,1
 521 980 521 980 470 947 c 0,2,3
 430 921 430 921 430 858 c 2,4,-1
 430 242 l 2,5,6
 430 179 430 179 470 153 c 0,7,8
 521 120 521 120 600 120 c 128,-1,9
 679 120 679 120 730 153 c 0,10,11
 770 179 770 179 770 242 c 2,12,-1
 770 858 l 2,13,14
 770 921 770 921 730 947 c 0,15,0
 679 980 679 980 600 980 c 128,-1,1
595 -20 m 0,16,17
 406 -20 406 -20 263 67 c 128,-1,18
 120 154 120 154 120 340 c 2,19,-1
 120 760 l 2,20,21
 120 946 120 946 263 1033 c 128,-1,22
 406 1120 406 1120 595 1120 c 128,-1,23
 784 1120 784 1120 927 1033 c 0,24,25
 1070 945 1070 945 1070 760 c 2,26,-1
 1070 -292 l 1,27,-1
 780 -430 l 1,28,-1
 770 -430 l 1,29,-1
 770 11 l 1,30,31
 690 -20 690 -20 595 -20 c 0,16,17
EndSplineSet
Validated: 19457
EndChar

StartChar: r
Encoding: 114 114 84
Width: 860
GlyphClass: 2
Flags: W
HStem: -20 21G<140 192.029> 960 140<481.604 788>
VStem: 140 300<118 913.829>
LayerCount: 2
Fore
SplineSet
150 -20 m 1,0,-1
 140 -20 l 1,1,-1
 140 740 l 2,2,3
 140 926 140 926 283 1013 c 128,-1,4
 426 1100 426 1100 615 1100 c 2,5,-1
 850 1100 l 1,6,-1
 850 1090 l 1,7,-1
 788 960 l 1,8,-1
 626 960 l 2,9,10
 531 960 531 960 480 927 c 0,11,12
 440 901 440 901 440 838 c 2,13,-1
 440 118 l 1,14,-1
 150 -20 l 1,0,-1
EndSplineSet
Validated: 19457
EndChar

StartChar: t
Encoding: 116 116 85
Width: 890
GlyphClass: 2
Flags: W
HStem: -20 21G<300 351.985> 960 140<72 300 585 818> 1510 20G<533.015 585>
VStem: 300 285<111 960 1100 1399>
LayerCount: 2
Fore
SplineSet
310 -20 m 1,0,-1
 300 -20 l 1,1,-1
 300 960 l 1,2,-1
 10 960 l 1,3,-1
 10 970 l 1,4,-1
 72 1100 l 1,5,-1
 300 1100 l 1,6,-1
 300 1399 l 1,7,-1
 575 1530 l 1,8,-1
 585 1530 l 1,9,-1
 585 1100 l 1,10,-1
 880 1100 l 1,11,-1
 880 1090 l 1,12,-1
 818 960 l 1,13,-1
 585 960 l 1,14,-1
 585 111 l 1,15,-1
 310 -20 l 1,0,-1
EndSplineSet
Validated: 1
EndChar

StartChar: u
Encoding: 117 117 86
Width: 1230
GlyphClass: 2
Flags: W
HStem: -20 140<475.316 754.684> 1100 20G<387.971 440 1037.97 1090>
VStem: 140 300<166.171 982> 790 300<166.171 982>
LayerCount: 2
Fore
SplineSet
615 -20 m 128,-1,1
 426 -20 426 -20 283 67 c 128,-1,2
 140 154 140 154 140 340 c 2,3,-1
 140 982 l 1,4,-1
 430 1120 l 1,5,-1
 440 1120 l 1,6,-1
 440 242 l 2,7,8
 440 179 440 179 480 153 c 0,9,10
 531 120 531 120 615 120 c 128,-1,11
 699 120 699 120 750 153 c 0,12,13
 790 179 790 179 790 242 c 2,14,-1
 790 982 l 1,15,-1
 1080 1120 l 1,16,-1
 1090 1120 l 1,17,-1
 1090 340 l 2,18,19
 1090 154 1090 154 947 67 c 128,-1,0
 804 -20 804 -20 615 -20 c 128,-1,1
EndSplineSet
Validated: 19457
EndChar

StartChar: v
Encoding: 118 118 87
Width: 1107
GlyphClass: 2
Flags: W
HStem: -20 21G<404.961 465.031> 1100 20G<225.08 285.029 960.394 1020.69>
DStem2: 277 1120 5 995 0.372966 -0.927845<14.5338 896.538> 611 288 692 108 0.395199 0.918596<0 904.117>
LayerCount: 2
Fore
SplineSet
423 -20 m 1,0,-1
 413 -20 l 1,1,-1
 5 995 l 1,2,-1
 267 1120 l 1,3,-1
 277 1120 l 1,4,-1
 611 288 l 1,5,-1
 969 1120 l 1,6,-1
 979 1120 l 1,7,-1
 1102 1061 l 1,8,-1
 692 108 l 1,9,-1
 423 -20 l 1,0,-1
EndSplineSet
Validated: 1
EndChar

StartChar: w
Encoding: 119 119 88
Width: 1880
GlyphClass: 2
Flags: W
HStem: -20 140<475.316 755.498 1124.5 1404.68> 1100 20G<387.971 440 1037.97 1090 1687.97 1740>
VStem: 140 300<166.171 982> 790 300<153.822 982> 1440 300<166.171 982>
CounterMasks: 1 38
LayerCount: 2
Fore
SplineSet
615 -20 m 0,0,1
 426 -20 426 -20 283 67 c 128,-1,2
 140 154 140 154 140 340 c 2,3,-1
 140 982 l 1,4,-1
 430 1120 l 1,5,-1
 440 1120 l 1,6,-1
 440 242 l 2,7,8
 440 179 440 179 480 153 c 0,9,10
 531 120 531 120 615 120 c 128,-1,11
 699 120 699 120 750 153 c 0,12,13
 790 179 790 179 790 242 c 2,14,-1
 790 982 l 1,15,-1
 1080 1120 l 1,16,-1
 1090 1120 l 1,17,-1
 1090 242 l 2,18,19
 1090 179 1090 179 1130 153 c 0,20,21
 1181 120 1181 120 1265 120 c 128,-1,22
 1349 120 1349 120 1400 153 c 0,23,24
 1440 179 1440 179 1440 242 c 2,25,-1
 1440 982 l 1,26,-1
 1730 1120 l 1,27,-1
 1740 1120 l 1,28,-1
 1740 340 l 2,29,30
 1740 154 1740 154 1597 67 c 128,-1,31
 1454 -20 1454 -20 1265 -20 c 0,32,33
 1081 -20 1081 -20 940 63 c 1,34,35
 799 -20 799 -20 615 -20 c 0,0,1
EndSplineSet
Validated: 19457
EndChar

StartChar: x
Encoding: 120 120 89
Width: 978
GlyphClass: 2
Flags: W
HStem: -20 21G<93.2881 161.243 698.292 764.414> 1100 20G<213.949 279.724 817.796 884.667>
DStem2: 266 1120 10 1003 0.565434 -0.824793<0 475.421 718.417 1192.45> 10 39 146 -20 0.605755 0.795651<35.4392 527.054 866.225 1358.64>
LayerCount: 2
Fore
SplineSet
146 -20 m 1,0,-1
 136 -20 l 1,1,-1
 10 39 l 1,2,-1
 358 496 l 1,3,-1
 10 1003 l 1,4,-1
 256 1120 l 1,5,-1
 266 1120 l 1,6,-1
 535 728 l 1,7,-1
 833 1120 l 1,8,-1
 843 1120 l 1,9,-1
 968 1060 l 1,10,-1
 620 603 l 1,11,-1
 968 96 l 1,12,-1
 722 -20 l 1,13,-1
 712 -20 l 1,14,-1
 444 371 l 1,15,-1
 146 -20 l 1,0,-1
EndSplineSet
Validated: 19457
EndChar

StartChar: y
Encoding: 121 121 90
Width: 1250
GlyphClass: 2
Flags: W
HStem: -410 140<342 748.396> -20 140<475.316 755.512> 1100 20G<387.971 440 1037.97 1090>
VStem: 140 300<166.171 982> 790 300<-223.829 11 153.822 982>
LayerCount: 2
Fore
SplineSet
280 -410 m 1,0,-1
 280 -400 l 1,1,-1
 342 -270 l 1,2,-1
 604 -270 l 2,3,4
 699 -270 699 -270 750 -237 c 0,5,6
 790 -211 790 -211 790 -148 c 2,7,-1
 790 11 l 1,8,9
 712 -20 712 -20 615 -20 c 0,10,11
 426 -20 426 -20 283 67 c 128,-1,12
 140 154 140 154 140 340 c 2,13,-1
 140 982 l 1,14,-1
 430 1120 l 1,15,-1
 440 1120 l 1,16,-1
 440 242 l 2,17,18
 440 179 440 179 480 153 c 0,19,20
 531 120 531 120 615 120 c 128,-1,21
 699 120 699 120 750 153 c 0,22,23
 790 179 790 179 790 242 c 2,24,-1
 790 982 l 1,25,-1
 1080 1120 l 1,26,-1
 1090 1120 l 1,27,-1
 1090 -50 l 2,28,29
 1090 -236 1090 -236 947 -323 c 128,-1,30
 804 -410 804 -410 615 -410 c 2,31,-1
 280 -410 l 1,0,-1
EndSplineSet
Validated: 19457
EndChar

StartChar: z
Encoding: 122 122 91
Width: 974
GlyphClass: 2
Flags: W
HStem: 0 140<405 902> 960 140<104 570>
DStem2: 10 10 405 140 0.507812 0.861468<312.577 1102.77>
LayerCount: 2
Fore
SplineSet
10 0 m 1,0,-1
 10 10 l 1,1,-1
 570 960 l 1,2,-1
 42 960 l 1,3,-1
 42 970 l 1,4,-1
 104 1100 l 1,5,-1
 964 1100 l 1,6,-1
 964 1090 l 1,7,-1
 405 140 l 1,8,-1
 964 140 l 1,9,-1
 964 130 l 1,10,-1
 902 0 l 1,11,-1
 10 0 l 1,0,-1
EndSplineSet
Validated: 19457
EndChar

StartChar: braceleft
Encoding: 123 123 92
Width: 830
GlyphClass: 2
Flags: W
HStem: -240 151<610.617 800> 680 150<77 234> 1599 151<610.617 800>
VStem: 234 320<-9.86011 680 830 1519.86>
CounterMasks: 1 e0
LayerCount: 2
Fore
SplineSet
800 -240 m 1,0,1
 570 -240 570 -240 402 -138 c 128,-1,2
 234 -36 234 -36 234 191 c 2,3,-1
 234 680 l 1,4,-1
 10 680 l 1,5,-1
 10 690 l 1,6,-1
 77 830 l 1,7,-1
 234 830 l 1,8,-1
 234 1319 l 2,9,10
 234 1546 234 1546 402 1648 c 128,-1,11
 570 1750 570 1750 800 1750 c 1,12,-1
 800 1599 l 1,13,14
 687 1599 687 1599 612 1558 c 0,15,16
 554 1526 554 1526 554 1434 c 2,17,-1
 554 76 l 2,18,19
 554 -16 554 -16 612 -48 c 0,20,21
 687 -89 687 -89 800 -89 c 1,22,-1
 800 -240 l 1,0,1
EndSplineSet
Validated: 19457
EndChar

StartChar: bar
Encoding: 124 124 93
Width: 690
GlyphClass: 2
Flags: W
VStem: 210 270<-76 1586>
LayerCount: 2
Fore
SplineSet
210 -200 m 1,0,-1
 210 1586 l 1,1,-1
 470 1710 l 1,2,-1
 480 1710 l 1,3,-1
 480 -76 l 1,4,-1
 220 -200 l 1,5,-1
 210 -200 l 1,0,-1
EndSplineSet
Validated: 19457
EndChar

StartChar: braceright
Encoding: 125 125 94
Width: 830
GlyphClass: 2
Flags: W
HStem: -240 151<30 219.383> 680 150<596 753> 1599 151<30 219.383>
VStem: 276 320<-9.86011 680 830 1519.86>
CounterMasks: 1 e0
LayerCount: 2
Fore
SplineSet
30 -240 m 1,0,-1
 30 -89 l 1,1,2
 143 -89 143 -89 218 -48 c 0,3,4
 276 -16 276 -16 276 76 c 2,5,-1
 276 1434 l 2,6,7
 276 1526 276 1526 218 1558 c 0,8,9
 143 1599 143 1599 30 1599 c 1,10,-1
 30 1750 l 1,11,12
 260 1750 260 1750 428 1648 c 128,-1,13
 596 1546 596 1546 596 1319 c 2,14,-1
 596 830 l 1,15,-1
 820 830 l 1,16,-1
 820 820 l 1,17,-1
 753 680 l 1,18,-1
 596 680 l 1,19,-1
 596 191 l 2,20,21
 596 -36 596 -36 428 -138 c 128,-1,22
 260 -240 260 -240 30 -240 c 1,0,-1
EndSplineSet
Validated: 19457
EndChar

StartChar: asciitilde
Encoding: 126 126 95
Width: 1178
GlyphClass: 2
Flags: W
HStem: 515 212<729.113 890.449> 785 212<287.551 448.887>
VStem: 110 148<580 758.707> 920 148<753.293 932>
LayerCount: 2
Fore
SplineSet
426 997 m 0,0,1
 607 997 607 997 686 844 c 0,2,3
 717 783 717 783 736 763 c 0,4,5
 768 727 768 727 816 727 c 0,6,7
 920 727 920 727 920 932 c 1,8,-1
 1058 997 l 1,9,-1
 1068 997 l 1,10,11
 1068 515 1068 515 752 515 c 0,12,13
 571 515 571 515 492 668 c 0,14,15
 461 729 461 729 442 749 c 0,16,17
 410 785 410 785 362 785 c 0,18,19
 258 785 258 785 258 580 c 1,20,-1
 120 515 l 1,21,-1
 110 515 l 1,22,23
 110 997 110 997 426 997 c 0,0,1
EndSplineSet
Validated: 19457
EndChar

StartChar: exclamdown
Encoding: 161 161 97
Width: 640
GlyphClass: 2
Flags: W
HStem: -430 21G<160 212.177> 755 365<203.122 437.869>
VStem: 140 360<817.422 1057.43> 160 320<-283 558>
LayerCount: 2
Fore
SplineSet
170 -430 m 1,0,-1
 160 -430 l 1,1,-1
 160 558 l 1,2,-1
 470 705 l 1,3,-1
 480 705 l 1,4,-1
 480 -283 l 1,5,-1
 170 -430 l 1,0,-1
320 1120 m 0,6,7
 396 1120 396 1120 448 1066 c 128,-1,8
 500 1012 500 1012 500 938 c 0,9,10
 500 862 500 862 448 809 c 0,11,12
 395 755 395 755 320 755 c 128,-1,13
 245 755 245 755 192.5 808.5 c 128,-1,14
 140 862 140 862 140 937 c 128,-1,15
 140 1012 140 1012 193 1066 c 128,-1,16
 246 1120 246 1120 320 1120 c 0,6,7
EndSplineSet
Validated: 19457
EndChar

StartChar: cent
Encoding: 162 162 98
Width: 1080
GlyphClass: 2
Flags: W
HStem: -19 143<453.648 535> 976 143<470.908 535>
VStem: 120 310<166.171 933.829> 535 120<-69 -14.8823 135 965 1114.88 1169> 725 315<166.171 320 784.185 936.4>
LayerCount: 2
Fore
SplineSet
655 -69 m 1,0,-1
 545 -120 l 1,1,-1
 535 -120 l 1,2,-1
 535 -19 l 1,3,4
 387 -9 387 -9 263 67 c 0,5,6
 120 154 120 154 120 340 c 2,7,-1
 120 760 l 2,8,9
 120 946 120 946 263 1033 c 0,10,11
 387 1109 387 1109 535 1119 c 1,12,-1
 535 1169 l 1,13,-1
 645 1220 l 1,14,-1
 655 1220 l 1,15,-1
 655 1116 l 1,16,17
 785 1101 785 1101 897 1033 c 0,18,19
 1027 954 1027 954 1039 791 c 1,20,-1
 735 646 l 1,21,-1
 725 646 l 1,22,-1
 725 858 l 2,23,24
 725 919 725 919 685 947 c 0,25,26
 671 958 671 958 655 965 c 1,27,-1
 655 135 l 1,28,29
 671 142 671 142 685 153 c 0,30,31
 723 182 723 182 725 242 c 2,32,-1
 725 320 l 1,33,-1
 1030 465 l 1,34,-1
 1040 465 l 1,35,-1
 1040 340 l 2,36,37
 1040 154 1040 154 897 67 c 0,38,39
 785 -1 785 -1 655 -16 c 1,40,-1
 655 -69 l 1,0,-1
535 124 m 1,41,-1
 535 976 l 1,42,43
 499 968 499 968 470 947 c 0,44,45
 432 919 432 919 430 858 c 2,46,-1
 430 242 l 2,47,48
 430 181 430 181 470 153 c 0,49,50
 498 132 498 132 535 124 c 1,41,-1
EndSplineSet
Validated: 19457
EndChar

StartChar: sterling
Encoding: 163 163 99
Width: 1375
GlyphClass: 2
Flags: W
HStem: 0 150<177 260 580 1198> 625 150<178 260 580 928> 1400 130<614.17 841.438>
VStem: 260 320<150 625 775 1343.83> 878 314<1194.16 1346.76>
LayerCount: 2
Fore
SplineSet
110 0 m 1,0,-1
 110 10 l 1,1,-1
 177 150 l 1,2,-1
 260 150 l 1,3,-1
 260 625 l 1,4,-1
 111 625 l 1,5,-1
 111 635 l 1,6,-1
 178 775 l 1,7,-1
 260 775 l 1,8,-1
 260 1170 l 2,9,10
 260 1356 260 1356 403 1443 c 128,-1,11
 546 1530 546 1530 726.5 1530 c 128,-1,12
 907 1530 907 1530 1050 1443 c 0,13,14
 1180 1364 1180 1364 1192 1201 c 1,15,-1
 888 1056 l 1,16,-1
 878 1056 l 1,17,-1
 878 1278 l 2,18,19
 878 1335 878 1335 838 1367 c 0,20,21
 797 1400 797 1400 730 1400 c 0,22,23
 668 1400 668 1400 620 1367 c 0,24,25
 580 1340 580 1340 580 1278 c 2,26,-1
 580 775 l 1,27,-1
 995 775 l 1,28,-1
 995 765 l 1,29,-1
 928 625 l 1,30,-1
 580 625 l 1,31,-1
 580 150 l 1,32,-1
 1265 150 l 1,33,-1
 1265 140 l 1,34,-1
 1198 0 l 1,35,-1
 110 0 l 1,0,-1
EndSplineSet
Validated: 19457
EndChar

StartChar: currency
Encoding: 164 164 100
Width: 1535
GlyphClass: 2
Flags: W
HStem: 180 150<576.267 958.794> 1178 150<573.97 960.03>
VStem: 202 320<444.287 1077.56> 1012 320<434.412 1076.56>
LayerCount: 2
Fore
SplineSet
767 330 m 128,-1,1
 879 330 879 330 954 371 c 0,2,3
 1012 403 1012 403 1012 495 c 2,4,-1
 1012 1013 l 2,5,6
 1012 1105 1012 1105 954 1137 c 0,7,8
 879 1178 879 1178 767 1178 c 128,-1,9
 655 1178 655 1178 580 1137 c 0,10,11
 522 1105 522 1105 522 1013 c 2,12,-1
 522 495 l 2,13,14
 522 403 522 403 580 371 c 0,15,0
 655 330 655 330 767 330 c 128,-1,1
767 1328 m 128,-1,17
 932 1328 932 1328 1065 1275 c 1,18,-1
 1113 1323 l 1,19,-1
 1418 1215 l 1,20,-1
 1425 1208 l 1,21,-1
 1296 1079 l 1,22,23
 1332 1001 1332 1001 1332 897 c 2,24,-1
 1332 611 l 2,25,26
 1332 509 1332 509 1298 432 c 1,27,-1
 1425 305 l 1,28,-1
 1418 298 l 1,29,-1
 1112 190 l 1,30,-1
 1068 234 l 1,31,32
 934 180 934 180 767 180 c 0,33,34
 593 180 593 180 455 239 c 1,35,-1
 423 206 l 1,36,-1
 117 314 l 1,37,-1
 110 321 l 1,38,-1
 232 442 l 1,39,40
 202 515 202 515 202 611 c 2,41,-1
 202 897 l 2,42,43
 202 1002 202 1002 238 1080 c 1,44,-1
 110 1209 l 1,45,-1
 117 1216 l 1,46,-1
 421 1323 l 1,47,-1
 469 1275 l 1,48,16
 602 1328 602 1328 767 1328 c 128,-1,17
EndSplineSet
Validated: 19457
EndChar

StartChar: yen
Encoding: 165 165 101
Width: 1270
GlyphClass: 2
Flags: W
HStem: -20 21G<475 527.105> 94 140<271 475 795 999> 294 140<271 351 919 999> 1510 20G<347.823 400 1137.82 1190>
VStem: 80 320<613.484 1383> 870 320<613.484 1383>
LayerCount: 2
Fore
SplineSet
485 -20 m 1,0,-1
 475 -20 l 1,1,-1
 475 94 l 1,2,-1
 210 94 l 1,3,-1
 210 104 l 1,4,-1
 271 234 l 1,5,-1
 475 234 l 1,6,-1
 475 294 l 1,7,-1
 210 294 l 1,8,-1
 210 304 l 1,9,-1
 271 434 l 1,10,-1
 351 434 l 1,11,12
 297 455 297 455 248 485 c 0,13,14
 80 587 80 587 80 814 c 2,15,-1
 80 1383 l 1,16,-1
 390 1530 l 1,17,-1
 400 1530 l 1,18,-1
 400 698 l 2,19,20
 400 606 400 606 458 574 c 0,21,22
 533 533 533 533 635 533 c 128,-1,23
 737 533 737 533 812 574 c 0,24,25
 870 606 870 606 870 698 c 2,26,-1
 870 1383 l 1,27,-1
 1180 1530 l 1,28,-1
 1190 1530 l 1,29,-1
 1190 814 l 2,30,31
 1190 587 1190 587 1022 485 c 0,32,33
 973 455 973 455 919 434 c 1,34,-1
 1060 434 l 1,35,-1
 1060 424 l 1,36,-1
 999 294 l 1,37,-1
 795 294 l 1,38,-1
 795 234 l 1,39,-1
 1060 234 l 1,40,-1
 1060 224 l 1,41,-1
 999 94 l 1,42,-1
 725 94 l 1,43,-1
 485 -20 l 1,0,-1
EndSplineSet
Validated: 19457
EndChar

StartChar: brokenbar
Encoding: 166 166 102
Width: 690
GlyphClass: 2
Flags: W
VStem: 210 270<-76 589 913 1586>
LayerCount: 2
Fore
SplineSet
210 -200 m 1,0,-1
 210 589 l 1,1,-1
 470 713 l 1,2,-1
 480 713 l 1,3,-1
 480 -76 l 1,4,-1
 220 -200 l 1,5,-1
 210 -200 l 1,0,-1
470 1710 m 1,6,-1
 480 1710 l 1,7,-1
 480 913 l 1,8,-1
 220 789 l 1,9,-1
 210 789 l 1,10,-1
 210 1586 l 1,11,-1
 470 1710 l 1,6,-1
EndSplineSet
Validated: 19457
EndChar

StartChar: section
Encoding: 167 167 103
Width: 1109
GlyphClass: 2
Flags: W
HStem: -20 140<486.594 629.855> 445 140<436.843 622.302> 925 140<486.698 672.157> 1390 140<479.145 622.406>
VStem: 110 310<600.514 816> 170 294<134.6 234.579 1083.53 1370.92> 645 294<139.081 426.466 1275.42 1375.4> 689 310<694 909.486>
LayerCount: 2
Fore
SplineSet
549.5 -20 m 128,-1,1
 394 -20 394 -20 282 56 c 0,2,3
 173 131 173 131 163 231 c 1,4,-1
 457 371 l 1,5,-1
 467 371 l 1,6,-1
 467 196 l 2,7,8
 467 153 467 153 498 134 c 0,9,10
 521 120 521 120 550 120 c 0,11,12
 599 120 599 120 622 138.5 c 128,-1,13
 645 157 645 157 645 186 c 2,14,-1
 645 381 l 2,15,16
 645 410 645 410 623 427 c 0,17,18
 601 445 601 445 536 445 c 0,19,20
 337 445 337 445 231 518 c 0,21,22
 110 603 110 603 110 727 c 2,23,-1
 110 760 l 2,24,25
 110 868 110 868 155 942 c 1,26,-1
 420 816 l 1,27,-1
 420 679 l 2,28,29
 420 585 420 585 542 585 c 0,30,31
 728 585 728 585 830 517 c 0,32,33
 939 445 939 445 939 332 c 2,34,-1
 939 295 l 2,35,36
 939 133 939 133 822 56.5 c 128,-1,0
 705 -20 705 -20 549.5 -20 c 128,-1,1
559.5 1530 m 128,-1,38
 715 1530 715 1530 827 1454 c 0,39,40
 936 1379 936 1379 946 1279 c 1,41,-1
 652 1139 l 1,42,-1
 642 1139 l 1,43,-1
 642 1314 l 2,44,45
 642 1357 642 1357 611 1376 c 0,46,47
 588 1390 588 1390 559 1390 c 0,48,49
 510 1390 510 1390 487 1371.5 c 128,-1,50
 464 1353 464 1353 464 1324 c 2,51,-1
 464 1129 l 2,52,53
 464 1100 464 1100 486 1083 c 0,54,55
 508 1065 508 1065 573 1065 c 0,56,57
 772 1065 772 1065 878 992 c 0,58,59
 999 907 999 907 999 783 c 2,60,-1
 999 750 l 2,61,62
 999 642 999 642 954 568 c 1,63,-1
 689 694 l 1,64,-1
 689 831 l 2,65,66
 689 925 689 925 567 925 c 0,67,68
 381 925 381 925 279 993 c 0,69,70
 170 1065 170 1065 170 1178 c 2,71,-1
 170 1215 l 2,72,73
 170 1377 170 1377 287 1453.5 c 128,-1,37
 404 1530 404 1530 559.5 1530 c 128,-1,38
EndSplineSet
Validated: 19457
EndChar

StartChar: dieresis
Encoding: 168 168 104
Width: 690
GlyphClass: 2
Flags: W
HStem: 1210 297<73.8326 277.652 411.833 616.167>
VStem: 30 292<1255.38 1461.62> 368 292<1255.38 1461.62>
LayerCount: 2
Fore
SplineSet
514.5 1507 m 128,-1,1
 575 1507 575 1507 617.5 1463 c 128,-1,2
 660 1419 660 1419 660 1358.5 c 128,-1,3
 660 1298 660 1298 617.5 1254 c 128,-1,4
 575 1210 575 1210 514 1210 c 128,-1,5
 453 1210 453 1210 410.5 1254 c 128,-1,6
 368 1298 368 1298 368 1358 c 0,7,8
 368 1419 368 1419 411 1462 c 0,9,0
 454 1507 454 1507 514.5 1507 c 128,-1,1
175.5 1507 m 128,-1,11
 236 1507 236 1507 279 1463 c 128,-1,12
 322 1419 322 1419 322 1358.5 c 128,-1,13
 322 1298 322 1298 279 1254 c 128,-1,14
 236 1210 236 1210 176 1210 c 0,15,16
 115 1210 115 1210 72.5 1254 c 128,-1,17
 30 1298 30 1298 30 1358 c 0,18,19
 30 1419 30 1419 72 1462 c 0,20,10
 115 1507 115 1507 175.5 1507 c 128,-1,11
EndSplineSet
Validated: 19457
EndChar

StartChar: copyright
Encoding: 169 169 105
Width: 1321
GlyphClass: 2
Flags: W
HStem: 386 48<505.181 810.676> 544 96<587.662 752.074> 1263 95<587.395 744.211> 1478 52<504.168 816.773>
VStem: 110 50<794.694 1125.05> 372 205<658.349 1244.68> 755 207<645.535 787 1115 1244.59> 1160 51<785.868 1126.58>
LayerCount: 2
Fore
SplineSet
667 1358 m 0,0,1
 777 1358 777 1358 868 1304 c 0,2,3
 962 1248 962 1248 962 1135 c 2,4,-1
 962 1115 l 1,5,-1
 765 1037 l 1,6,-1
 755 1037 l 1,7,-1
 755 1201 l 2,8,9
 755 1232 755 1232 736 1245 c 0,10,11
 710 1263 710 1263 666 1263 c 0,12,13
 626 1263 626 1263 595 1245 c 0,14,15
 577 1235 577 1235 577 1201 c 2,16,-1
 577 702 l 2,17,18
 577 669 577 669 595 658 c 0,19,20
 625 640 625 640 667 640 c 0,21,22
 755 640 755 640 755 702 c 2,23,-1
 755 787 l 1,24,-1
 952 873 l 1,25,-1
 962 873 l 1,26,-1
 962 779 l 2,27,28
 962 655 962 655 870 599 c 0,29,30
 779 544 779 544 667 544 c 128,-1,31
 555 544 555 544 463.5 600 c 128,-1,32
 372 656 372 656 372 779 c 2,33,-1
 372 1124 l 2,34,35
 372 1248 372 1248 463 1303 c 128,-1,36
 554 1358 554 1358 667 1358 c 0,0,1
661 1530 m 0,37,38
 903 1530 903 1530 1059 1357 c 0,39,40
 1211 1188 1211 1188 1211 953 c 0,41,42
 1211 701 1211 701 1050 549 c 0,43,44
 879 386 879 386 659 386 c 0,45,46
 436 386 436 386 271 549 c 0,47,48
 110 708 110 708 110 953 c 0,49,50
 110 1197 110 1197 268 1362 c 0,51,52
 429 1530 429 1530 661 1530 c 0,37,38
659 1478 m 0,53,54
 459 1478 459 1478 310 1330 c 0,55,56
 160 1181 160 1181 160 953 c 0,57,58
 160 750 160 750 307 587 c 0,59,60
 445 434 445 434 661 434 c 0,61,62
 862 434 862 434 1014 587 c 0,63,64
 1160 734 1160 734 1160 953 c 0,65,66
 1160 1185 1160 1185 1016 1327 c 0,67,68
 863 1478 863 1478 659 1478 c 0,53,54
EndSplineSet
Validated: 19457
EndChar

StartChar: ordfeminine
Encoding: 170 170 106
Width: 581
GlyphClass: 2
Flags: W
HStem: 733 180<101 470> 969 92<218.327 369> 1254 91<218.124 359.744> 1479 91<178 351.429>
VStem: 51 161<1074.28 1240.78> 369 182<1063.56 1239.75 1335 1464.75>
LayerCount: 2
Fore
SplineSet
178 1570 m 1,0,-1
 293 1570 l 2,1,2
 394 1570 394 1570 472.5 1521 c 128,-1,3
 551 1472 551 1472 551 1370 c 2,4,-1
 551 1040 l 1,5,-1
 371 969 l 1,6,-1
 361 969 l 1,7,-1
 361 984 l 1,8,9
 333 969 333 969 301 969 c 0,10,11
 197 969 197 969 124 1017.5 c 128,-1,12
 51 1066 51 1066 51 1163 c 2,13,-1
 51 1168 l 2,14,15
 51 1253 51 1253 132 1302 c 0,16,17
 202 1345 202 1345 289 1345 c 0,18,19
 332 1345 332 1345 362 1335 c 1,20,-1
 362 1438 l 2,21,22
 362 1457 362 1457 352 1465 c 0,23,24
 334 1479 334 1479 281 1479 c 2,25,-1
 146 1479 l 1,26,-1
 146 1489 l 1,27,-1
 178 1570 l 1,0,-1
289 1061 m 0,28,29
 369 1061 369 1061 369 1102 c 2,30,-1
 369 1213 l 2,31,32
 369 1232 369 1232 359 1240 c 0,33,34
 341 1254 341 1254 288 1254 c 0,35,36
 241 1254 241 1254 222 1241 c 0,37,38
 212 1234 212 1234 212 1214 c 2,39,-1
 212 1103 l 2,40,41
 212 1083 212 1083 223 1074 c 0,42,43
 240 1061 240 1061 289 1061 c 0,28,29
101 913 m 1,44,-1
 551 913 l 1,45,-1
 551 903 l 1,46,-1
 470 733 l 1,47,-1
 20 733 l 1,48,-1
 20 743 l 1,49,-1
 101 913 l 1,44,-1
EndSplineSet
Validated: 1
EndChar

StartChar: guillemotleft
Encoding: 171 171 107
Width: 1292
GlyphClass: 2
Flags: W
DStem2: 348 881 110 755 0.506363 -0.862321<0 570.906> 110 755 348 881 0.507932 0.861397<229.424 718.6> 829 881 591 755 0.506363 -0.862321<0 570.906> 591 755 829 881 0.507932 0.861397<229.424 718.6>
LayerCount: 2
Fore
SplineSet
591 755 m 1,0,-1
 956 1374 l 1,1,-1
 966 1374 l 1,2,-1
 1085 1317 l 1,3,-1
 829 881 l 1,4,-1
 1132 365 l 1,5,-1
 897 253 l 1,6,-1
 887 253 l 1,7,-1
 591 755 l 1,0,-1
110 755 m 1,8,-1
 475 1374 l 1,9,-1
 485 1374 l 1,10,-1
 604 1317 l 1,11,-1
 348 881 l 1,12,-1
 651 365 l 1,13,-1
 416 253 l 1,14,-1
 406 253 l 1,15,-1
 110 755 l 1,8,-1
EndSplineSet
Validated: 19457
EndChar

StartChar: logicalnot
Encoding: 172 172 108
Width: 1240
GlyphClass: 2
Flags: W
HStem: 620 270<235 759>
LayerCount: 2
Fore
SplineSet
235 890 m 1,0,-1
 1130 890 l 1,1,-1
 1130 880 l 1,2,-1
 879 358 l 1,3,-1
 633 358 l 1,4,-1
 759 620 l 1,5,-1
 110 620 l 1,6,-1
 110 630 l 1,7,-1
 235 890 l 1,0,-1
EndSplineSet
Validated: 19457
EndChar

StartChar: uni00AD
Encoding: 173 173 109
Width: 1240
GlyphClass: 2
Flags: W
HStem: 620 270<235 1005>
LayerCount: 2
Fore
SplineSet
235 890 m 1,0,-1
 1130 890 l 1,1,-1
 1130 880 l 1,2,-1
 1005 620 l 1,3,-1
 110 620 l 1,4,-1
 110 630 l 1,5,-1
 235 890 l 1,0,-1
EndSplineSet
Validated: 19457
EndChar

StartChar: registered
Encoding: 174 174 110
Width: 1321
GlyphClass: 2
Flags: W
HStem: 386 48<505.181 810.676> 778 96<588 662> 1259 96<588 742.934> 1478 52<504.168 816.773>
VStem: 110 50<794.694 1125.05> 388 200<623 778 874 1259> 763 205<892.411 1240.68> 1160 51<785.868 1126.58>
LayerCount: 2
Fore
SplineSet
588 1259 m 1,0,-1
 588 874 l 1,1,-1
 661 874 l 2,2,3
 717 874 717 874 744 892 c 0,4,5
 763 905 763 905 763 937 c 2,6,-1
 763 1196 l 2,7,8
 763 1231 763 1231 744 1241 c 0,9,10
 710 1259 710 1259 661 1259 c 2,11,-1
 588 1259 l 1,0,-1
562 1355 m 1,12,-1
 666 1355 l 2,13,14
 785 1355 785 1355 877 1299 c 0,15,16
 968 1243 968 1243 968 1119 c 2,17,-1
 968 1015 l 2,18,19
 968 889 968 889 875 833 c 1,20,-1
 1027 624 l 1,21,-1
 835 548 l 1,22,-1
 825 548 l 1,23,-1
 662 778 l 1,24,-1
 588 778 l 1,25,-1
 588 623 l 1,26,-1
 398 548 l 1,27,-1
 388 548 l 1,28,-1
 388 1278 l 1,29,-1
 562 1355 l 1,12,-1
661 1530 m 0,30,31
 903 1530 903 1530 1059 1357 c 0,32,33
 1211 1188 1211 1188 1211 953 c 0,34,35
 1211 701 1211 701 1050 549 c 0,36,37
 879 386 879 386 659 386 c 0,38,39
 436 386 436 386 271 549 c 0,40,41
 110 708 110 708 110 953 c 0,42,43
 110 1197 110 1197 268 1362 c 0,44,45
 429 1530 429 1530 661 1530 c 0,30,31
659 1478 m 0,46,47
 459 1478 459 1478 310 1330 c 0,48,49
 160 1181 160 1181 160 953 c 0,50,51
 160 750 160 750 307 587 c 0,52,53
 445 434 445 434 661 434 c 0,54,55
 862 434 862 434 1014 587 c 0,56,57
 1160 734 1160 734 1160 953 c 0,58,59
 1160 1185 1160 1185 1016 1327 c 0,60,61
 863 1478 863 1478 659 1478 c 0,46,47
EndSplineSet
Validated: 19457
EndChar

StartChar: macron
Encoding: 175 175 111
Width: 680
GlyphClass: 2
Flags: W
HStem: 1288 190<116 564>
VStem: 30 620
LayerCount: 2
Fore
SplineSet
116 1478 m 1,0,-1
 650 1478 l 1,1,-1
 650 1468 l 1,2,-1
 564 1288 l 1,3,-1
 30 1288 l 1,4,-1
 30 1298 l 1,5,-1
 116 1478 l 1,0,-1
EndSplineSet
Validated: 19457
EndChar

StartChar: degree
Encoding: 176 176 112
Width: 724
GlyphClass: 2
Flags: W
HStem: 898 98<265.225 458.775> 1472 98<265.225 458.775>
VStem: 30 215<1019.57 1448.43> 479 215<1019.57 1448.43>
LayerCount: 2
Fore
SplineSet
362 1570 m 128,-1,1
 494 1570 494 1570 594 1509 c 128,-1,2
 694 1448 694 1448 694 1318 c 2,3,-1
 694 1150 l 2,4,5
 694 1020 694 1020 594 959 c 128,-1,6
 494 898 494 898 362 898 c 128,-1,7
 230 898 230 898 130 959 c 128,-1,8
 30 1020 30 1020 30 1150 c 2,9,-1
 30 1318 l 2,10,11
 30 1448 30 1448 130 1509 c 128,-1,0
 230 1570 230 1570 362 1570 c 128,-1,1
362 1472 m 128,-1,13
 309 1472 309 1472 273 1449 c 0,14,15
 245 1431 245 1431 245 1387 c 2,16,-1
 245 1081 l 2,17,18
 245 1037 245 1037 273 1019 c 0,19,20
 309 996 309 996 362 996 c 128,-1,21
 415 996 415 996 451 1019 c 0,22,23
 479 1037 479 1037 479 1081 c 2,24,-1
 479 1387 l 2,25,26
 479 1431 479 1431 451 1449 c 0,27,12
 415 1472 415 1472 362 1472 c 128,-1,13
EndSplineSet
Validated: 19457
EndChar

StartChar: plusminus
Encoding: 177 177 113
Width: 1240
GlyphClass: 2
Flags: W
HStem: 154 270<235 1005> 828 270<235 485 755 1005>
VStem: 485 270<578 828 1098 1348>
LayerCount: 2
Fore
SplineSet
235 424 m 1,0,-1
 1130 424 l 1,1,-1
 1130 414 l 1,2,-1
 1005 154 l 1,3,-1
 110 154 l 1,4,-1
 110 164 l 1,5,-1
 235 424 l 1,0,-1
745 1473 m 1,6,-1
 755 1473 l 1,7,-1
 755 1098 l 1,8,-1
 1130 1098 l 1,9,-1
 1130 1088 l 1,10,-1
 1005 828 l 1,11,-1
 755 828 l 1,12,-1
 755 578 l 1,13,-1
 495 453 l 1,14,-1
 485 453 l 1,15,-1
 485 828 l 1,16,-1
 110 828 l 1,17,-1
 110 838 l 1,18,-1
 235 1098 l 1,19,-1
 485 1098 l 1,20,-1
 485 1348 l 1,21,-1
 745 1473 l 1,6,-1
EndSplineSet
Validated: 19457
EndChar

StartChar: uni00B2
Encoding: 178 178 114
Width: 671
GlyphClass: 2
Flags: W
HStem: 764 191<286 569> 1476 94<244.707 416.573>
VStem: 42 200<1316 1468.9> 427 205<1155.52 1456.5>
LayerCount: 2
Fore
SplineSet
336.5 1570 m 128,-1,1
 450 1570 450 1570 540 1514 c 0,2,3
 632 1458 632 1458 632 1335 c 2,4,-1
 632 1295 l 2,5,6
 632 1138 632 1138 452 1043 c 2,7,-1
 286 955 l 1,8,-1
 641 955 l 1,9,-1
 641 945 l 1,10,-1
 569 764 l 1,11,-1
 30 764 l 1,12,-1
 30 774 l 1,13,-1
 115 966 l 1,14,-1
 307 1086 l 2,15,16
 427 1161 427 1161 427 1288 c 2,17,-1
 427 1413 l 2,18,19
 427 1441 427 1441 409 1457 c 0,20,21
 387 1476 387 1476 337 1476 c 0,22,23
 242 1476 242 1476 242 1413 c 2,24,-1
 242 1316 l 1,25,-1
 52 1241 l 1,26,-1
 42 1241 l 1,27,-1
 42 1335 l 2,28,29
 42 1459 42 1459 134 1516 c 0,30,0
 223 1570 223 1570 336.5 1570 c 128,-1,1
EndSplineSet
Validated: 19457
EndChar

StartChar: uni00B3
Encoding: 179 179 115
Width: 654
GlyphClass: 2
Flags: W
HStem: 753 96<248.506 403.844> 1464 96<127 354>
VStem: 30 207<867.318 987> 415 205<867.411 1189.68>
LayerCount: 2
Fore
SplineSet
127 1560 m 1,0,-1
 624 1560 l 1,1,-1
 454 1277 l 1,2,3
 496 1267 496 1267 526 1248 c 0,4,5
 620 1188 620 1188 620 1067 c 2,6,-1
 620 989 l 2,7,8
 620 864 620 864 528 808 c 0,9,10
 437 753 437 753 325 753 c 128,-1,11
 213 753 213 753 124 808 c 0,12,13
 30 866 30 866 30 987 c 1,14,-1
 227 1074 l 1,15,-1
 237 1074 l 1,16,-1
 237 911 l 2,17,18
 237 877 237 877 255 867 c 0,19,20
 287 849 287 849 328 849 c 128,-1,21
 369 849 369 849 396 867 c 0,22,23
 415 880 415 880 415 911 c 2,24,-1
 415 1145 l 2,25,26
 415 1180 415 1180 396 1190 c 0,27,28
 362 1208 362 1208 323 1208 c 0,29,30
 280 1208 280 1208 245 1192 c 1,31,-1
 213 1228 l 1,32,-1
 354 1464 l 1,33,-1
 86 1464 l 1,34,-1
 86 1474 l 1,35,-1
 127 1560 l 1,0,-1
EndSplineSet
Validated: 19457
EndChar

StartChar: acute
Encoding: 180 180 116
Width: 405
GlyphClass: 2
Flags: W
HStem: 1160 410
VStem: 30 345
DStem2: 30 1244 218 1160 0.429396 0.903116<4.86464 360.972>
LayerCount: 2
Fore
SplineSet
195 1570 m 1,0,-1
 375 1485 l 1,1,-1
 218 1160 l 1,2,-1
 208 1160 l 1,3,-1
 30 1244 l 1,4,-1
 185 1570 l 1,5,-1
 195 1570 l 1,0,-1
EndSplineSet
Validated: 19457
EndChar

StartChar: uni00B5
Encoding: 181 181 117
Width: 1230
GlyphClass: 2
Flags: W
HStem: -430 21G<140 192.029> -20 140<473.748 754.684> 1100 20G<387.971 440 1037.97 1090>
VStem: 140 300<-292 1 153.822 982> 790 300<166.171 982>
LayerCount: 2
Fore
SplineSet
140 982 m 1,0,-1
 430 1120 l 1,1,-1
 440 1120 l 1,2,-1
 440 242 l 2,3,4
 440 179 440 179 480 153 c 0,5,6
 531 120 531 120 615 120 c 128,-1,7
 699 120 699 120 750 153 c 0,8,9
 790 179 790 179 790 242 c 2,10,-1
 790 982 l 1,11,-1
 1080 1120 l 1,12,-1
 1090 1120 l 1,13,-1
 1090 340 l 2,14,15
 1090 154 1090 154 947 67 c 128,-1,16
 804 -20 804 -20 615 -20 c 0,17,18
 522 -20 522 -20 440 1 c 1,19,-1
 440 -292 l 1,20,-1
 150 -430 l 1,21,-1
 140 -430 l 1,22,-1
 140 982 l 1,0,-1
EndSplineSet
Validated: 19457
EndChar

StartChar: paragraph
Encoding: 182 182 118
Width: 1220
GlyphClass: 2
Flags: W
HStem: -20 21G<740 792.308> 428 1102<337.076 736.282>
VStem: 740 120<32 451> 944 116<127 1144>
LayerCount: 2
Fore
SplineSet
750 -20 m 1,0,-1
 740 -20 l 1,1,-1
 740 451 l 1,2,3
 668 428 668 428 585 428 c 0,4,5
 396 428 396 428 253 515 c 128,-1,6
 110 602 110 602 110 788 c 2,7,-1
 110 1170 l 2,8,9
 110 1356 110 1356 253 1443 c 128,-1,10
 396 1530 396 1530 585 1530 c 128,-1,11
 774 1530 774 1530 917 1443 c 128,-1,12
 1060 1356 1060 1356 1060 1170 c 2,13,-1
 1060 127 l 1,14,-1
 944 72 l 1,15,-1
 944 1144 l 1,16,-1
 860 1106 l 1,17,-1
 860 32 l 1,18,-1
 750 -20 l 1,0,-1
EndSplineSet
Validated: 19457
EndChar

StartChar: periodcentered
Encoding: 183 183 119
Width: 420
GlyphClass: 2
Flags: W
HStem: 573 365<92.1309 326.878>
VStem: 30 360<635.566 875.578>
LayerCount: 2
Fore
SplineSet
210 938 m 128,-1,1
 285 938 285 938 337.5 884.5 c 128,-1,2
 390 831 390 831 390 756 c 128,-1,3
 390 681 390 681 337 627 c 128,-1,4
 284 573 284 573 210 573 c 0,5,6
 134 573 134 573 82 627 c 128,-1,7
 30 681 30 681 30 755 c 0,8,9
 30 831 30 831 82 884 c 0,10,0
 135 938 135 938 210 938 c 128,-1,1
EndSplineSet
Validated: 19457
EndChar

StartChar: cedilla
Encoding: 184 184 120
Width: 440
GlyphClass: 2
Flags: W
HStem: -410 410 -20 20G<136 299>
VStem: 136 163<-61.7314 0> 202 208<-207.507 -85.3716>
LayerCount: 2
Fore
SplineSet
30 -410 m 1,0,-1
 30 -400 l 1,1,-1
 116 -220 l 1,2,3
 202 -204 202 -204 202 -145 c 0,4,5
 202 -100 202 -100 136 -76 c 1,6,-1
 136 0 l 1,7,-1
 299 0 l 1,8,-1
 299 -40 l 1,9,10
 410 -83 410 -83 410 -187 c 0,11,12
 410 -410 410 -410 30 -410 c 1,0,-1
EndSplineSet
Validated: 19457
EndChar

StartChar: uni00B9
Encoding: 185 185 121
Width: 412
GlyphClass: 2
Flags: W
VStem: 152 200<831 1389>
LayerCount: 2
Fore
SplineSet
342 1570 m 1,0,-1
 352 1570 l 1,1,-1
 352 831 l 1,2,-1
 162 756 l 1,3,-1
 152 756 l 1,4,-1
 152 1389 l 1,5,-1
 30 1337 l 1,6,-1
 30 1432 l 1,7,-1
 342 1570 l 1,0,-1
EndSplineSet
Validated: 19457
EndChar

StartChar: ordmasculine
Encoding: 186 186 122
Width: 594
GlyphClass: 2
Flags: W
HStem: 733 180<101 483> 960 91<245.286 367.744> 1480 90<246.665 372.628>
VStem: 50 190<1064.25 1466.75> 374 190<1064.28 1477.06>
LayerCount: 2
Fore
SplineSet
308 1570 m 128,-1,1
 408 1570 408 1570 486 1522 c 0,2,3
 564 1476 564 1476 564 1371 c 2,4,-1
 564 1160 l 2,5,6
 564 1056 564 1056 485.5 1008 c 128,-1,7
 407 960 407 960 306.5 960 c 128,-1,8
 206 960 206 960 128 1009 c 0,9,10
 50 1056 50 1056 50 1160 c 2,11,-1
 50 1371 l 2,12,13
 50 1475 50 1475 129 1522.5 c 128,-1,0
 208 1570 208 1570 308 1570 c 128,-1,1
307 1480 m 0,14,15
 270 1480 270 1480 251 1467 c 0,16,17
 240 1459 240 1459 240 1440 c 2,18,-1
 240 1091 l 2,19,20
 240 1072 240 1072 250 1064 c 0,21,22
 266 1051 266 1051 307 1051 c 0,23,24
 347 1051 347 1051 363 1064 c 0,25,26
 374 1073 374 1073 374 1091 c 2,27,-1
 374 1440 l 2,28,29
 374 1480 374 1480 307 1480 c 0,14,15
101 913 m 1,30,-1
 564 913 l 1,31,-1
 564 903 l 1,32,-1
 483 733 l 1,33,-1
 20 733 l 1,34,-1
 20 743 l 1,35,-1
 101 913 l 1,30,-1
EndSplineSet
Validated: 1
EndChar

StartChar: guillemotright
Encoding: 187 187 123
Width: 1292
GlyphClass: 2
Flags: W
DStem2: 405 1257 160 1145 0.506363 -0.862321<0 570.906> 207 193 336 136 0.507932 0.861397<16.4236 505.6> 886 1257 641 1145 0.506363 -0.862321<0 570.906> 688 193 817 136 0.507932 0.861397<16.4236 505.6>
LayerCount: 2
Fore
SplineSet
701 755 m 1,0,-1
 336 136 l 1,1,-1
 326 136 l 1,2,-1
 207 193 l 1,3,-1
 463 629 l 1,4,-1
 160 1145 l 1,5,-1
 395 1257 l 1,6,-1
 405 1257 l 1,7,-1
 701 755 l 1,0,-1
1182 755 m 1,8,-1
 817 136 l 1,9,-1
 807 136 l 1,10,-1
 688 193 l 1,11,-1
 944 629 l 1,12,-1
 641 1145 l 1,13,-1
 876 1257 l 1,14,-1
 886 1257 l 1,15,-1
 1182 755 l 1,8,-1
EndSplineSet
Validated: 19457
EndChar

StartChar: onequarter
Encoding: 188 188 124
Width: 1543
GlyphClass: 2
Flags: W
HStem: -20 21G<450.053 511.325 1158 1218.67> 142 96<947 1158 1358 1388> 1510 20G<376.783 432 916.661 977.77>
VStem: 232 200<791 1349> 1158 200<55 133 238 544>
DStem2: 255 93 502 -20 0.423093 0.906086<2.11609 1585.94> 770 152 947 238 0.567283 0.823523<171.232 542.927>
LayerCount: 2
Fore
SplineSet
422 1530 m 1,0,-1
 432 1530 l 1,1,-1
 432 791 l 1,2,-1
 242 716 l 1,3,-1
 232 716 l 1,4,-1
 232 1349 l 1,5,-1
 110 1297 l 1,6,-1
 110 1392 l 1,7,-1
 422 1530 l 1,0,-1
492 -20 m 1,8,-1
 255 93 l 1,9,-1
 926 1530 l 1,10,-1
 936 1530 l 1,11,-1
 1172 1417 l 1,12,-1
 502 -20 l 1,13,-1
 492 -20 l 1,8,-1
947 238 m 1,14,-1
 1158 238 l 1,15,-1
 1158 544 l 1,16,-1
 947 238 l 1,14,-1
1168 -20 m 1,17,-1
 1158 -20 l 1,18,-1
 1158 142 l 1,19,-1
 770 142 l 1,20,-1
 770 152 l 1,21,-1
 1153 708 l 1,22,-1
 1348 794 l 1,23,-1
 1358 794 l 1,24,-1
 1358 238 l 1,25,-1
 1433 238 l 1,26,-1
 1433 228 l 1,27,-1
 1388 133 l 1,28,-1
 1358 133 l 1,29,-1
 1358 55 l 1,30,-1
 1168 -20 l 1,17,-1
EndSplineSet
Validated: 19457
EndChar

StartChar: onehalf
Encoding: 189 189 125
Width: 1677
GlyphClass: 2
Flags: W
HStem: -20 21G<450.053 511.325> 0 191<1212 1495> 712 94<1170.71 1342.57> 1510 20G<376.783 432 916.661 977.77>
VStem: 232 200<791 1349> 968 200<552 704.896> 1353 205<391.52 692.497>
DStem2: 255 93 502 -20 0.423093 0.906086<2.11609 1585.94>
LayerCount: 2
Fore
SplineSet
422 1530 m 1,0,-1
 432 1530 l 1,1,-1
 432 791 l 1,2,-1
 242 716 l 1,3,-1
 232 716 l 1,4,-1
 232 1349 l 1,5,-1
 110 1297 l 1,6,-1
 110 1392 l 1,7,-1
 422 1530 l 1,0,-1
1262.5 806 m 128,-1,9
 1376 806 1376 806 1466 750 c 0,10,11
 1558 694 1558 694 1558 571 c 2,12,-1
 1558 531 l 2,13,14
 1558 374 1558 374 1378 279 c 2,15,-1
 1212 191 l 1,16,-1
 1567 191 l 1,17,-1
 1567 181 l 1,18,-1
 1495 0 l 1,19,-1
 956 0 l 1,20,-1
 956 10 l 1,21,-1
 1041 202 l 1,22,-1
 1233 322 l 2,23,24
 1353 397 1353 397 1353 524 c 2,25,-1
 1353 649 l 2,26,27
 1353 677 1353 677 1335 693 c 0,28,29
 1313 712 1313 712 1263 712 c 0,30,31
 1168 712 1168 712 1168 649 c 2,32,-1
 1168 552 l 1,33,-1
 978 477 l 1,34,-1
 968 477 l 1,35,-1
 968 571 l 2,36,37
 968 695 968 695 1060 752 c 0,38,8
 1149 806 1149 806 1262.5 806 c 128,-1,9
492 -20 m 1,39,-1
 255 93 l 1,40,-1
 926 1530 l 1,41,-1
 936 1530 l 1,42,-1
 1172 1417 l 1,43,-1
 502 -20 l 1,44,-1
 492 -20 l 1,39,-1
EndSplineSet
Validated: 19457
EndChar

StartChar: threequarters
Encoding: 190 190 126
Width: 1780
GlyphClass: 2
Flags: W
HStem: -20 21G<687.053 748.325 1395 1455.67> 142 96<1184 1395 1595 1625> 723 96<328.506 483.844> 1434 96<207 434>
VStem: 110 207<837.318 957> 495 205<837.411 1159.68> 1395 200<55 133 238 544>
DStem2: 492 93 739 -20 0.423093 0.906086<2.11609 1585.94> 1007 152 1184 238 0.567283 0.823523<171.232 542.927>
LayerCount: 2
Fore
SplineSet
1184 238 m 1,0,-1
 1395 238 l 1,1,-1
 1395 544 l 1,2,-1
 1184 238 l 1,0,-1
1405 -20 m 1,3,-1
 1395 -20 l 1,4,-1
 1395 142 l 1,5,-1
 1007 142 l 1,6,-1
 1007 152 l 1,7,-1
 1390 708 l 1,8,-1
 1585 794 l 1,9,-1
 1595 794 l 1,10,-1
 1595 238 l 1,11,-1
 1670 238 l 1,12,-1
 1670 228 l 1,13,-1
 1625 133 l 1,14,-1
 1595 133 l 1,15,-1
 1595 55 l 1,16,-1
 1405 -20 l 1,3,-1
207 1530 m 1,17,-1
 704 1530 l 1,18,-1
 534 1247 l 1,19,20
 576 1237 576 1237 606 1218 c 0,21,22
 700 1158 700 1158 700 1037 c 2,23,-1
 700 959 l 2,24,25
 700 834 700 834 608 778 c 0,26,27
 517 723 517 723 405 723 c 128,-1,28
 293 723 293 723 204 778 c 0,29,30
 110 836 110 836 110 957 c 1,31,-1
 307 1044 l 1,32,-1
 317 1044 l 1,33,-1
 317 881 l 2,34,35
 317 847 317 847 335 837 c 0,36,37
 367 819 367 819 408 819 c 128,-1,38
 449 819 449 819 476 837 c 0,39,40
 495 850 495 850 495 881 c 2,41,-1
 495 1115 l 2,42,43
 495 1150 495 1150 476 1160 c 0,44,45
 442 1178 442 1178 403 1178 c 0,46,47
 360 1178 360 1178 325 1162 c 1,48,-1
 293 1198 l 1,49,-1
 434 1434 l 1,50,-1
 166 1434 l 1,51,-1
 166 1444 l 1,52,-1
 207 1530 l 1,17,-1
729 -20 m 1,53,-1
 492 93 l 1,54,-1
 1163 1530 l 1,55,-1
 1173 1530 l 1,56,-1
 1409 1417 l 1,57,-1
 739 -20 l 1,58,-1
 729 -20 l 1,53,-1
EndSplineSet
Validated: 19457
EndChar

StartChar: questiondown
Encoding: 191 191 127
Width: 1320
GlyphClass: 2
Flags: W
HStem: -430 150<493.203 833.843> 755 365<578.122 812.869>
VStem: 110 330<-199.37 220.644> 515 360<817.422 1057.43> 888 322<-199.37 1>
LayerCount: 2
Fore
SplineSet
660 -430 m 128,-1,1
 446 -430 446 -430 278 -328 c 128,-1,2
 110 -226 110 -226 110 1 c 2,3,-1
 110 44 l 2,4,5
 110 316 110 316 438 442 c 0,6,7
 529 477 529 477 529 594 c 1,8,-1
 842 741 l 1,9,-1
 852 741 l 1,10,11
 852 488 852 488 609 379 c 0,12,13
 440 303 440 303 440 62 c 2,14,-1
 440 -115 l 2,15,16
 440 -203 440 -203 498 -239 c 0,17,18
 564 -280 564 -280 664 -280 c 128,-1,19
 764 -280 764 -280 830 -239 c 0,20,21
 888 -203 888 -203 888 -115 c 2,22,-1
 888 1 l 1,23,-1
 1200 148 l 1,24,-1
 1210 148 l 1,25,-1
 1210 1 l 2,26,27
 1210 -226 1210 -226 1042 -328 c 128,-1,0
 874 -430 874 -430 660 -430 c 128,-1,1
695 1120 m 0,28,29
 771 1120 771 1120 823 1066 c 128,-1,30
 875 1012 875 1012 875 938 c 0,31,32
 875 862 875 862 823 809 c 0,33,34
 770 755 770 755 695 755 c 128,-1,35
 620 755 620 755 567.5 808.5 c 128,-1,36
 515 862 515 862 515 937 c 128,-1,37
 515 1012 515 1012 568 1066 c 128,-1,38
 621 1120 621 1120 695 1120 c 0,28,29
EndSplineSet
Validated: 19457
EndChar

StartChar: endash
Encoding: 8211 8211 128
Width: 1240
GlyphClass: 2
Flags: W
HStem: 620 270<235 1005>
LayerCount: 2
Fore
SplineSet
235 890 m 1,0,-1
 1130 890 l 1,1,-1
 1130 880 l 1,2,-1
 1005 620 l 1,3,-1
 110 620 l 1,4,-1
 110 630 l 1,5,-1
 235 890 l 1,0,-1
EndSplineSet
Validated: 19457
EndChar

StartChar: emdash
Encoding: 8212 8212 129
Width: 1570
GlyphClass: 2
Flags: W
HStem: 620 270<235 1335>
LayerCount: 2
Fore
SplineSet
235 890 m 1,0,-1
 1460 890 l 1,1,-1
 1460 880 l 1,2,-1
 1335 620 l 1,3,-1
 110 620 l 1,4,-1
 110 630 l 1,5,-1
 235 890 l 1,0,-1
EndSplineSet
Validated: 19457
EndChar

StartChar: afii00208
Encoding: 8213 8213 130
Width: 1570
GlyphClass: 2
Flags: W
HStem: 620 270<235 1335>
LayerCount: 2
Fore
SplineSet
235 890 m 1,0,-1
 1460 890 l 1,1,-1
 1460 880 l 1,2,-1
 1335 620 l 1,3,-1
 110 620 l 1,4,-1
 110 630 l 1,5,-1
 235 890 l 1,0,-1
EndSplineSet
Validated: 19457
EndChar

StartChar: quoteleft
Encoding: 8216 8216 131
Width: 496
GlyphClass: 2
Flags: W
HStem: 934 666
VStem: 30 264<1158.4 1384.82>
LayerCount: 2
Fore
SplineSet
366 1600 m 1,0,-1
 373 1593 l 1,1,2
 294 1444 294 1444 294 1296 c 0,3,4
 294 1140 294 1140 466 1060 c 1,5,-1
 197 934 l 1,6,-1
 187 934 l 1,7,8
 30 1036 30 1036 30 1218 c 0,9,10
 30 1475 30 1475 366 1600 c 1,0,-1
EndSplineSet
Validated: 19457
EndChar

StartChar: quoteright
Encoding: 8217 8217 132
Width: 496
GlyphClass: 2
Flags: W
HStem: 934 666
VStem: 202 264<1149.18 1375.6>
LayerCount: 2
Fore
SplineSet
30 1474 m 1,0,-1
 299 1600 l 1,1,-1
 309 1600 l 1,2,3
 466 1498 466 1498 466 1316 c 0,4,5
 466 1059 466 1059 130 934 c 1,6,-1
 123 941 l 1,7,8
 202 1090 202 1090 202 1238 c 0,9,10
 202 1394 202 1394 30 1474 c 1,0,-1
EndSplineSet
Validated: 19457
EndChar

StartChar: quotesinglbase
Encoding: 8218 8218 133
Width: 496
GlyphClass: 2
Flags: W
HStem: -328 666
VStem: 202 264<-112.817 113.6>
LayerCount: 2
Fore
SplineSet
30 212 m 1,0,-1
 299 338 l 1,1,-1
 309 338 l 1,2,3
 466 236 466 236 466 54 c 0,4,5
 466 -203 466 -203 130 -328 c 1,6,-1
 123 -321 l 1,7,8
 202 -172 202 -172 202 -24 c 0,9,10
 202 132 202 132 30 212 c 1,0,-1
EndSplineSet
Validated: 19457
EndChar

StartChar: quotereversed
Encoding: 8219 8219 134
Width: 496
GlyphClass: 2
Flags: W
HStem: 934 666
VStem: 30 264<1149.18 1375.6>
LayerCount: 2
Fore
SplineSet
466 1474 m 1,0,1
 294 1394 294 1394 294 1238 c 0,2,3
 294 1090 294 1090 373 941 c 1,4,-1
 366 934 l 1,5,6
 30 1059 30 1059 30 1316 c 0,7,8
 30 1498 30 1498 187 1600 c 1,9,-1
 197 1600 l 1,10,-1
 466 1474 l 1,0,1
EndSplineSet
Validated: 19457
EndChar

StartChar: quotedblleft
Encoding: 8220 8220 135
Width: 914
GlyphClass: 2
Flags: W
HStem: 934 666
VStem: 30 264<1158.4 1384.82> 448 264<1158.4 1384.82>
LayerCount: 2
Fore
SplineSet
366 1600 m 1,0,-1
 373 1593 l 1,1,2
 294 1444 294 1444 294 1296 c 0,3,4
 294 1140 294 1140 466 1060 c 1,5,-1
 197 934 l 1,6,-1
 187 934 l 1,7,8
 30 1036 30 1036 30 1218 c 0,9,10
 30 1475 30 1475 366 1600 c 1,0,-1
784 1600 m 1,11,-1
 791 1593 l 1,12,13
 712 1444 712 1444 712 1296 c 0,14,15
 712 1140 712 1140 884 1060 c 1,16,-1
 615 934 l 1,17,-1
 605 934 l 1,18,19
 448 1036 448 1036 448 1218 c 0,20,21
 448 1475 448 1475 784 1600 c 1,11,-1
EndSplineSet
Validated: 19457
EndChar

StartChar: quotedblright
Encoding: 8221 8221 136
Width: 914
GlyphClass: 2
Flags: W
HStem: 934 666
VStem: 202 264<1149.18 1375.6> 620 264<1149.18 1375.6>
LayerCount: 2
Fore
SplineSet
448 1474 m 1,0,-1
 717 1600 l 1,1,-1
 727 1600 l 1,2,3
 884 1498 884 1498 884 1316 c 0,4,5
 884 1059 884 1059 548 934 c 1,6,-1
 541 941 l 1,7,8
 620 1090 620 1090 620 1238 c 0,9,10
 620 1394 620 1394 448 1474 c 1,0,-1
30 1474 m 1,11,-1
 299 1600 l 1,12,-1
 309 1600 l 1,13,14
 466 1498 466 1498 466 1316 c 0,15,16
 466 1059 466 1059 130 934 c 1,17,-1
 123 941 l 1,18,19
 202 1090 202 1090 202 1238 c 0,20,21
 202 1394 202 1394 30 1474 c 1,11,-1
EndSplineSet
Validated: 19457
EndChar

StartChar: quotedblbase
Encoding: 8222 8222 137
Width: 914
GlyphClass: 2
Flags: W
HStem: -328 666
VStem: 202 264<-112.817 113.6> 620 264<-112.817 113.6>
LayerCount: 2
Fore
SplineSet
448 212 m 1,0,-1
 717 338 l 1,1,-1
 727 338 l 1,2,3
 884 236 884 236 884 54 c 0,4,5
 884 -203 884 -203 548 -328 c 1,6,-1
 541 -321 l 1,7,8
 620 -172 620 -172 620 -24 c 0,9,10
 620 132 620 132 448 212 c 1,0,-1
30 212 m 1,11,-1
 299 338 l 1,12,-1
 309 338 l 1,13,14
 466 236 466 236 466 54 c 0,15,16
 466 -203 466 -203 130 -328 c 1,17,-1
 123 -321 l 1,18,19
 202 -172 202 -172 202 -24 c 0,20,21
 202 132 202 132 30 212 c 1,11,-1
EndSplineSet
Validated: 19457
EndChar

StartChar: dagger
Encoding: 8224 8224 138
Width: 1254
GlyphClass: 2
Flags: W
HStem: -20 21G<467 519.177> 964 150<177 467 787 1077> 1510 20G<735.108 787>
VStem: 467 320<127 964 1114 1382>
LayerCount: 2
Fore
SplineSet
477 -20 m 1,0,-1
 467 -20 l 1,1,-1
 467 964 l 1,2,-1
 110 964 l 1,3,-1
 110 974 l 1,4,-1
 177 1114 l 1,5,-1
 467 1114 l 1,6,-1
 467 1382 l 1,7,-1
 777 1530 l 1,8,-1
 787 1530 l 1,9,-1
 787 1114 l 1,10,-1
 1144 1114 l 1,11,-1
 1144 1104 l 1,12,-1
 1077 964 l 1,13,-1
 787 964 l 1,14,-1
 787 127 l 1,15,-1
 477 -20 l 1,0,-1
EndSplineSet
Validated: 19457
EndChar

StartChar: daggerdbl
Encoding: 8225 8225 139
Width: 1254
GlyphClass: 2
Flags: W
HStem: -20 21G<467 519.177> 396 150<177 467 787 1077> 964 150<177 467 787 1077> 1510 20G<734.823 787>
VStem: 467 320<127 396 546 964 1114 1383>
LayerCount: 2
Fore
SplineSet
477 -20 m 1,0,-1
 467 -20 l 1,1,-1
 467 396 l 1,2,-1
 110 396 l 1,3,-1
 110 406 l 1,4,-1
 177 546 l 1,5,-1
 467 546 l 1,6,-1
 467 964 l 1,7,-1
 110 964 l 1,8,-1
 110 974 l 1,9,-1
 177 1114 l 1,10,-1
 467 1114 l 1,11,-1
 467 1382 l 1,12,-1
 467 1383 l 1,13,-1
 777 1530 l 1,14,-1
 787 1530 l 1,15,-1
 787 1114 l 1,16,-1
 1144 1114 l 1,17,-1
 1144 1104 l 1,18,-1
 1077 964 l 1,19,-1
 787 964 l 1,20,-1
 787 546 l 1,21,-1
 1144 546 l 1,22,-1
 1144 536 l 1,23,-1
 1077 396 l 1,24,-1
 787 396 l 1,25,-1
 787 128 l 1,26,-1
 787 127 l 1,27,-1
 477 -20 l 1,0,-1
EndSplineSet
Validated: 19457
EndChar

StartChar: bullet
Encoding: 8226 8226 140
Width: 950
GlyphClass: 2
Flags: W
HStem: 385 740<262.48 687.52>
LayerCount: 2
Fore
SplineSet
475 1125 m 128,-1,1
 620 1125 620 1125 730 1057.5 c 128,-1,2
 840 990 840 990 840 847 c 2,3,-1
 840 663 l 2,4,5
 840 520 840 520 730 452.5 c 128,-1,6
 620 385 620 385 475 385 c 128,-1,7
 330 385 330 385 220 452.5 c 128,-1,8
 110 520 110 520 110 663 c 2,9,-1
 110 847 l 2,10,11
 110 990 110 990 220 1057.5 c 128,-1,0
 330 1125 330 1125 475 1125 c 128,-1,1
EndSplineSet
Validated: 19457
EndChar

StartChar: ellipsis
Encoding: 8230 8230 141
Width: 1292
GlyphClass: 2
Flags: W
HStem: -20 365<92.1309 326.878 528.131 762.878 964.131 1198.88>
VStem: 30 360<42.5657 282.578> 466 360<42.5657 282.578> 902 360<42.5657 282.578>
CounterMasks: 1 70
LayerCount: 2
Fore
SplineSet
1082 -20 m 0,0,1
 1006 -20 1006 -20 954 34 c 128,-1,2
 902 88 902 88 902 162 c 0,3,4
 902 238 902 238 954 291 c 0,5,6
 1007 345 1007 345 1082 345 c 128,-1,7
 1157 345 1157 345 1209.5 291.5 c 128,-1,8
 1262 238 1262 238 1262 163 c 128,-1,9
 1262 88 1262 88 1209 34 c 128,-1,10
 1156 -20 1156 -20 1082 -20 c 0,0,1
646 -20 m 0,11,12
 570 -20 570 -20 518 34 c 128,-1,13
 466 88 466 88 466 162 c 0,14,15
 466 238 466 238 518 291 c 0,16,17
 571 345 571 345 646 345 c 128,-1,18
 721 345 721 345 773.5 291.5 c 128,-1,19
 826 238 826 238 826 163 c 128,-1,20
 826 88 826 88 773 34 c 128,-1,21
 720 -20 720 -20 646 -20 c 0,11,12
210 -20 m 0,22,23
 134 -20 134 -20 82 34 c 128,-1,24
 30 88 30 88 30 162 c 0,25,26
 30 238 30 238 82 291 c 0,27,28
 135 345 135 345 210 345 c 128,-1,29
 285 345 285 345 337.5 291.5 c 128,-1,30
 390 238 390 238 390 163 c 128,-1,31
 390 88 390 88 337 34 c 128,-1,32
 284 -20 284 -20 210 -20 c 0,22,23
EndSplineSet
Validated: 19457
EndChar

StartChar: perthousand
Encoding: 8240 8240 142
Width: 2624
GlyphClass: 2
Flags: W
HStem: -20 108<1264.57 1477.45 2042.57 2255.45> 612 108<1264.55 1477.45 2042.55 2255.45> 790 108<368.57 581.445> 1422 108<368.555 581.445>
VStem: 110 236<923.601 1396.34> 604 236<923.663 1396.34> 1006 236<113.601 586.337> 1500 236<113.663 586.337> 1784 236<113.601 586.337> 2278 236<113.663 586.337>
DStem2: 464 93 711 -20 0.423093 0.906086<2.11609 1585.94>
LayerCount: 2
Fore
SplineSet
2149 -20 m 128,-1,1
 2004 -20 2004 -20 1894 47.5 c 128,-1,2
 1784 115 1784 115 1784 258 c 2,3,-1
 1784 442 l 2,4,5
 1784 585 1784 585 1894 652.5 c 128,-1,6
 2004 720 2004 720 2149 720 c 128,-1,7
 2294 720 2294 720 2404 652.5 c 128,-1,8
 2514 585 2514 585 2514 442 c 2,9,-1
 2514 258 l 2,10,11
 2514 115 2514 115 2404 47.5 c 128,-1,0
 2294 -20 2294 -20 2149 -20 c 128,-1,1
2149.5 88 m 128,-1,13
 2208 88 2208 88 2247 113 c 0,14,15
 2278 134 2278 134 2278 182 c 2,16,-1
 2278 518 l 2,17,18
 2278 566 2278 566 2247 587 c 0,19,20
 2208 612 2208 612 2149 612 c 128,-1,21
 2090 612 2090 612 2051 587 c 0,22,23
 2020 566 2020 566 2020 518 c 2,24,-1
 2020 182 l 2,25,26
 2020 132 2020 132 2051 113 c 0,27,12
 2091 88 2091 88 2149.5 88 c 128,-1,13
1371 -20 m 128,-1,29
 1226 -20 1226 -20 1116 47.5 c 128,-1,30
 1006 115 1006 115 1006 258 c 2,31,-1
 1006 442 l 2,32,33
 1006 585 1006 585 1116 652.5 c 128,-1,34
 1226 720 1226 720 1371 720 c 128,-1,35
 1516 720 1516 720 1626 652.5 c 128,-1,36
 1736 585 1736 585 1736 442 c 2,37,-1
 1736 258 l 2,38,39
 1736 115 1736 115 1626 47.5 c 128,-1,28
 1516 -20 1516 -20 1371 -20 c 128,-1,29
1371.5 88 m 128,-1,41
 1430 88 1430 88 1469 113 c 0,42,43
 1500 134 1500 134 1500 182 c 2,44,-1
 1500 518 l 2,45,46
 1500 566 1500 566 1469 587 c 0,47,48
 1430 612 1430 612 1371 612 c 128,-1,49
 1312 612 1312 612 1273 587 c 0,50,51
 1242 566 1242 566 1242 518 c 2,52,-1
 1242 182 l 2,53,54
 1242 132 1242 132 1273 113 c 0,55,40
 1313 88 1313 88 1371.5 88 c 128,-1,41
475 1530 m 128,-1,57
 620 1530 620 1530 730 1462.5 c 128,-1,58
 840 1395 840 1395 840 1252 c 2,59,-1
 840 1068 l 2,60,61
 840 925 840 925 730 857.5 c 128,-1,62
 620 790 620 790 475 790 c 128,-1,63
 330 790 330 790 220 857.5 c 128,-1,64
 110 925 110 925 110 1068 c 2,65,-1
 110 1252 l 2,66,67
 110 1395 110 1395 220 1462.5 c 128,-1,56
 330 1530 330 1530 475 1530 c 128,-1,57
475 1422 m 128,-1,69
 416 1422 416 1422 377 1397 c 0,70,71
 346 1376 346 1376 346 1328 c 2,72,-1
 346 992 l 2,73,74
 346 942 346 942 377 923 c 0,75,76
 417 898 417 898 475.5 898 c 128,-1,77
 534 898 534 898 573 923 c 0,78,79
 604 944 604 944 604 992 c 2,80,-1
 604 1328 l 2,81,82
 604 1376 604 1376 573 1397 c 0,83,68
 534 1422 534 1422 475 1422 c 128,-1,69
701 -20 m 1,84,-1
 464 93 l 1,85,-1
 1135 1530 l 1,86,-1
 1145 1530 l 1,87,-1
 1381 1417 l 1,88,-1
 711 -20 l 1,89,-1
 701 -20 l 1,84,-1
EndSplineSet
Validated: 19457
EndChar

StartChar: minute
Encoding: 8242 8242 143
Width: 450
GlyphClass: 2
Flags: W
HStem: 1140 460
VStem: 30 390
LayerCount: 2
Fore
SplineSet
203 1600 m 1,0,-1
 213 1600 l 1,1,-1
 420 1501 l 1,2,-1
 188 1140 l 1,3,-1
 178 1140 l 1,4,-1
 30 1210 l 1,5,-1
 203 1600 l 1,0,-1
EndSplineSet
Validated: 19457
EndChar

StartChar: second
Encoding: 8243 8243 144
Width: 770
GlyphClass: 2
Flags: W
HStem: 1140 460
LayerCount: 2
Fore
SplineSet
523 1600 m 1,0,-1
 533 1600 l 1,1,-1
 740 1501 l 1,2,-1
 508 1140 l 1,3,-1
 498 1140 l 1,4,-1
 350 1210 l 1,5,-1
 523 1600 l 1,0,-1
203 1600 m 1,6,-1
 213 1600 l 1,7,-1
 420 1501 l 1,8,-1
 188 1140 l 1,9,-1
 178 1140 l 1,10,-1
 30 1210 l 1,11,-1
 203 1600 l 1,6,-1
EndSplineSet
Validated: 19457
EndChar

StartChar: guilsinglleft
Encoding: 8249 8249 145
Width: 811
GlyphClass: 2
Flags: W
VStem: 110 541
DStem2: 348 881 110 755 0.506363 -0.862321<0 570.906> 110 755 348 881 0.507932 0.861397<229.424 718.6>
LayerCount: 2
Fore
SplineSet
110 755 m 1,0,-1
 475 1374 l 1,1,-1
 485 1374 l 1,2,-1
 604 1317 l 1,3,-1
 348 881 l 1,4,-1
 651 365 l 1,5,-1
 416 253 l 1,6,-1
 406 253 l 1,7,-1
 110 755 l 1,0,-1
EndSplineSet
Validated: 19457
EndChar

StartChar: guilsinglright
Encoding: 8250 8250 146
Width: 811
GlyphClass: 2
Flags: W
VStem: 160 541
DStem2: 405 1257 160 1145 0.506363 -0.862321<0 570.906> 207 193 336 136 0.507932 0.861397<16.4236 505.6>
LayerCount: 2
Fore
SplineSet
701 755 m 1,0,-1
 336 136 l 1,1,-1
 326 136 l 1,2,-1
 207 193 l 1,3,-1
 463 629 l 1,4,-1
 160 1145 l 1,5,-1
 395 1257 l 1,6,-1
 405 1257 l 1,7,-1
 701 755 l 1,0,-1
EndSplineSet
Validated: 19457
EndChar

StartChar: fraction
Encoding: 8260 8260 147
Width: 937
GlyphClass: 2
Flags: W
HStem: -20 21G<205.053 266.325> 1510 20G<671.661 732.77>
DStem2: 10 93 257 -20 0.423093 0.906086<2.11609 1585.94>
LayerCount: 2
Fore
SplineSet
247 -20 m 1,0,-1
 10 93 l 1,1,-1
 681 1530 l 1,2,-1
 691 1530 l 1,3,-1
 927 1417 l 1,4,-1
 257 -20 l 1,5,-1
 247 -20 l 1,0,-1
EndSplineSet
Validated: 1
EndChar

StartChar: Euro
Encoding: 8364 8364 148
Width: 1425
GlyphClass: 2
Flags: W
HStem: -20 150<598.203 926.239> 586 140<101 215 545 909> 786 140<101 215 545 909> 1380 150<598.203 926.239>
VStem: 215 330<210.142 586 726 786 926 1299.86> 980 335<210.279 405 1122 1298.19>
LayerCount: 2
Fore
SplineSet
765 -20 m 128,-1,1
 551 -20 551 -20 383 82 c 128,-1,2
 215 184 215 184 215 411 c 2,3,-1
 215 586 l 1,4,-1
 40 586 l 1,5,-1
 40 596 l 1,6,-1
 101 726 l 1,7,-1
 215 726 l 1,8,-1
 215 786 l 1,9,-1
 40 786 l 1,10,-1
 40 796 l 1,11,-1
 101 926 l 1,12,-1
 215 926 l 1,13,-1
 215 1099 l 2,14,15
 215 1326 215 1326 383 1428 c 128,-1,16
 551 1530 551 1530 765 1530 c 128,-1,17
 979 1530 979 1530 1147 1428 c 0,18,19
 1307 1331 1307 1331 1315 1122 c 1,20,-1
 990 967 l 1,21,-1
 980 967 l 1,22,-1
 980 1215 l 2,23,24
 980 1300 980 1300 922 1339 c 0,25,26
 861 1380 861 1380 766 1380 c 128,-1,27
 671 1380 671 1380 603 1339 c 0,28,29
 545 1304 545 1304 545 1215 c 2,30,-1
 545 926 l 1,31,-1
 970 926 l 1,32,-1
 970 916 l 1,33,-1
 909 786 l 1,34,-1
 545 786 l 1,35,-1
 545 726 l 1,36,-1
 970 726 l 1,37,-1
 970 716 l 1,38,-1
 909 586 l 1,39,-1
 545 586 l 1,40,-1
 545 295 l 2,41,42
 545 206 545 206 603 171 c 0,43,44
 671 130 671 130 766 130 c 128,-1,45
 861 130 861 130 922 171 c 0,46,47
 980 210 980 210 980 295 c 2,48,-1
 980 405 l 1,49,-1
 1305 558 l 1,50,-1
 1315 558 l 1,51,-1
 1315 411 l 2,52,53
 1315 184 1315 184 1147 82 c 128,-1,0
 979 -20 979 -20 765 -20 c 128,-1,1
EndSplineSet
Validated: 19457
EndChar

StartChar: afii61248
Encoding: 8453 8453 149
Width: 1700
GlyphClass: 2
Flags: W
HStem: -20 95<1201.14 1374.14> 700 95<1199.92 1372.94> 716 96<325.662 490.074> 1435 95<325.395 482.211>
VStem: 110 205<830.349 1416.68> 493 207<817.535 959 1287 1416.59> 984 205<93.4106 681.589> 1385 205<93.4414 681.589>
DStem2: 384 93 631 -20 0.423093 0.906086<2.11609 1585.94>
LayerCount: 2
Fore
SplineSet
405 1530 m 0,0,1
 515 1530 515 1530 606 1476 c 0,2,3
 700 1420 700 1420 700 1307 c 2,4,-1
 700 1287 l 1,5,-1
 503 1209 l 1,6,-1
 493 1209 l 1,7,-1
 493 1373 l 2,8,9
 493 1404 493 1404 474 1417 c 0,10,11
 448 1435 448 1435 404 1435 c 0,12,13
 364 1435 364 1435 333 1417 c 0,14,15
 315 1407 315 1407 315 1373 c 2,16,-1
 315 874 l 2,17,18
 315 841 315 841 333 830 c 0,19,20
 363 812 363 812 405 812 c 0,21,22
 493 812 493 812 493 874 c 2,23,-1
 493 959 l 1,24,-1
 690 1045 l 1,25,-1
 700 1045 l 1,26,-1
 700 951 l 2,27,28
 700 827 700 827 608 771 c 0,29,30
 517 716 517 716 405 716 c 128,-1,31
 293 716 293 716 201.5 772 c 128,-1,32
 110 828 110 828 110 951 c 2,33,-1
 110 1296 l 2,34,35
 110 1420 110 1420 201 1475 c 128,-1,36
 292 1530 292 1530 405 1530 c 0,0,1
1288 75 m 0,37,38
 1343 75 1343 75 1366 93 c 0,39,40
 1385 107 1385 107 1385 137 c 2,41,-1
 1385 638 l 2,42,43
 1385 669 1385 669 1366 682 c 0,44,45
 1340 700 1340 700 1286 700 c 0,46,47
 1235 700 1235 700 1208 682 c 0,48,49
 1189 669 1189 669 1189 638 c 2,50,-1
 1189 137 l 2,51,52
 1189 106 1189 106 1208 93 c 0,53,54
 1234 75 1234 75 1288 75 c 0,37,38
1286.5 -20 m 128,-1,56
 1166 -20 1166 -20 1075 36 c 128,-1,57
 984 92 984 92 984 215 c 2,58,-1
 984 560 l 2,59,60
 984 684 984 684 1075.5 739.5 c 128,-1,61
 1167 795 1167 795 1287.5 795 c 128,-1,62
 1408 795 1408 795 1500 738 c 0,63,64
 1590 683 1590 683 1590 560 c 2,65,-1
 1590 215 l 2,66,67
 1590 90 1590 90 1498.5 35 c 128,-1,55
 1407 -20 1407 -20 1286.5 -20 c 128,-1,56
621 -20 m 1,68,-1
 384 93 l 1,69,-1
 1055 1530 l 1,70,-1
 1065 1530 l 1,71,-1
 1301 1417 l 1,72,-1
 631 -20 l 1,73,-1
 621 -20 l 1,68,-1
EndSplineSet
Validated: 19457
EndChar

StartChar: afii61289
Encoding: 8467 8467 150
Width: 1147
GlyphClass: 2
Flags: W
HStem: 0 1G<110 486.273 636 745> 1510 20G<804.5 902>
LayerCount: 2
Fore
SplineSet
690 -20 m 0,0,1
 582 -20 582 -20 501 44 c 1,2,-1
 474 0 l 1,3,-1
 110 0 l 1,4,5
 272 162 272 162 375 325 c 1,6,7
 364 420 364 420 364 524 c 0,8,9
 364 686 364 686 411 865 c 0,10,11
 509 1240 509 1240 661 1423 c 0,12,13
 749 1530 749 1530 860 1530 c 0,14,15
 944 1530 944 1530 994 1480 c 0,16,17
 1058 1416 1058 1416 1058 1281 c 0,18,19
 1058 1186 1058 1186 1029 1041 c 0,20,21
 959 688 959 688 676 272 c 1,22,23
 678 216 678 216 699 216 c 128,-1,24
 720 216 720 216 745 260 c 0,25,26
 760 286 760 286 771 319 c 1,27,-1
 1087 319 l 1,28,29
 994 144 994 144 897 62 c 128,-1,30
 800 -20 800 -20 690 -20 c 0,0,1
EndSplineSet
Validated: 19457
EndChar

StartChar: trademark
Encoding: 8482 8482 151
Width: 1791
GlyphClass: 2
Flags: W
HStem: 1435 95<101 273 473 645 881.679 1065.73 1286.43 1470.68>
VStem: 273 200<798 1435> 671 200<798 1424.62> 1076 200<798 1424.53> 1481 200<798 1424.56>
LayerCount: 2
Fore
SplineSet
971 1538 m 128,-1,1
 1088 1538 1088 1538 1176 1488 c 1,2,3
 1263 1537 1263 1537 1381 1537 c 128,-1,4
 1499 1537 1499 1537 1590 1482 c 0,5,6
 1681 1426 1681 1426 1681 1303 c 2,7,-1
 1681 798 l 1,8,-1
 1491 723 l 1,9,-1
 1481 723 l 1,10,-1
 1481 1381 l 2,11,12
 1481 1411 1481 1411 1463 1425 c 0,13,14
 1440 1443 1440 1443 1378 1443 c 128,-1,15
 1316 1443 1316 1443 1295 1425 c 0,16,17
 1276 1410 1276 1410 1276 1381 c 2,18,-1
 1276 798 l 1,19,-1
 1086 723 l 1,20,-1
 1076 723 l 1,21,-1
 1076 1381 l 2,22,23
 1076 1413 1076 1413 1058 1425 c 0,24,25
 1031 1443 1031 1443 974 1443 c 0,26,27
 916 1443 916 1443 889 1425 c 0,28,29
 871 1413 871 1413 871 1381 c 2,30,-1
 871 798 l 1,31,-1
 681 723 l 1,32,-1
 671 723 l 1,33,-1
 671 1303 l 2,34,35
 671 1427 671 1427 762.5 1482.5 c 128,-1,0
 854 1538 854 1538 971 1538 c 128,-1,1
101 1530 m 1,36,-1
 686 1530 l 1,37,-1
 686 1520 l 1,38,-1
 645 1435 l 1,39,-1
 473 1435 l 1,40,-1
 473 798 l 1,41,-1
 283 723 l 1,42,-1
 273 723 l 1,43,-1
 273 1435 l 1,44,-1
 60 1435 l 1,45,-1
 60 1445 l 1,46,-1
 101 1530 l 1,36,-1
EndSplineSet
Validated: 19457
EndChar

StartChar: uni2126
Encoding: 8486 8486 152
Width: 1450
GlyphClass: 2
Flags: W
HStem: 0 353<587.453 688 762 871.688> 0 150<227 452 997 1223> 1380 150<534.495 915.505>
VStem: 160 320<473.117 1299.52> 452 236<150 312.635> 762 235<150 312.347> 970 320<473.304 1299.52>
LayerCount: 2
Fore
SplineSet
688 0 m 1,0,-1
 160 0 l 1,1,-1
 160 10 l 1,2,-1
 227 150 l 1,3,-1
 452 150 l 1,4,-1
 452 300 l 1,5,6
 160 372 160 372 160 671 c 2,7,-1
 160 1099 l 2,8,9
 160 1326 160 1326 328 1428 c 128,-1,10
 496 1530 496 1530 725 1530 c 128,-1,11
 954 1530 954 1530 1122 1428 c 128,-1,12
 1290 1326 1290 1326 1290 1099 c 2,13,-1
 1290 671 l 2,14,15
 1290 370 1290 370 997 300 c 1,16,-1
 997 150 l 1,17,-1
 1290 150 l 1,18,-1
 1290 140 l 1,19,-1
 1223 0 l 1,20,-1
 762 0 l 1,21,-1
 762 352 l 1,22,23
 970 408 970 408 970 575 c 2,24,-1
 970 1215 l 2,25,26
 970 1307 970 1307 912 1339 c 0,27,28
 837 1380 837 1380 725 1380 c 128,-1,29
 613 1380 613 1380 538 1339 c 0,30,31
 480 1307 480 1307 480 1215 c 2,32,-1
 480 575 l 2,33,34
 480 416 480 416 688 353 c 1,35,-1
 688 0 l 1,0,-1
EndSplineSet
Validated: 19457
EndChar

StartChar: estimated
Encoding: 8494 8494 153
Width: 1241
GlyphClass: 2
Flags: W
HStem: -20 183<441.95 798.867> 491 189<393 845> 935 185<439.039 799.176>
VStem: 60 333<316.826 491 680 791.88>
LayerCount: 2
Fore
SplineSet
619 -20 m 0,0,1
 368 -20 368 -20 214 145 c 128,-1,2
 60 310 60 310 60 553 c 0,3,4
 60 802 60 802 216 960 c 0,5,6
 374 1120 374 1120 616 1120 c 0,7,8
 859 1120 859 1120 1007 974 c 0,9,10
 1181 802 1181 802 1181 491 c 1,11,-1
 393 491 l 1,12,-1
 393 239 l 1,13,14
 488 163 488 163 619 163 c 0,15,16
 827 163 827 163 945 351 c 1,17,-1
 1109 255 l 1,18,19
 985 85 985 85 866 32.5 c 128,-1,20
 747 -20 747 -20 619 -20 c 0,0,1
845 680 m 1,21,-1
 845 862 l 1,22,23
 747 935 747 935 617 935 c 0,24,25
 485 935 485 935 393 861 c 1,26,-1
 393 680 l 1,27,-1
 845 680 l 1,21,-1
EndSplineSet
Validated: 19457
EndChar

StartChar: partialdiff
Encoding: 8706 8706 154
Width: 1325
GlyphClass: 2
Flags: W
HStem: -20 273<452.903 666.396> 823 260<577.1 826.76> 1257 273<502.596 826.913>
VStem: 110 305<291.814 617.824> 906 309<1024 1178.17>
LayerCount: 2
Fore
SplineSet
532 -20 m 0,0,1
 262 -20 262 -20 163 171 c 0,2,3
 110 273 110 273 110 416 c 0,4,5
 110 673 110 673 264 878 c 128,-1,6
 418 1083 418 1083 690 1083 c 0,7,8
 809 1083 809 1083 906 1024 c 1,9,10
 903 1115 903 1115 865 1173 c 0,11,12
 808 1257 808 1257 686 1257 c 0,13,14
 531 1257 531 1257 380 1132 c 1,15,-1
 380 1443 l 1,16,17
 526 1530 526 1530 723 1530 c 0,18,19
 1040 1530 1040 1530 1156 1271 c 0,20,21
 1215 1139 1215 1139 1215 950 c 0,22,23
 1215 563 1215 563 1032 272 c 0,24,25
 851 -20 851 -20 532 -20 c 0,0,1
879 699 m 1,26,27
 858 756 858 756 815 788 c 0,28,29
 768 823 768 823 700 823 c 0,30,31
 591 823 591 823 510 706 c 0,32,33
 415 567 415 567 415 431 c 0,34,35
 415 344 415 344 453 295 c 0,36,37
 485 253 485 253 545 253 c 0,38,39
 652 253 652 253 747 376 c 128,-1,40
 842 499 842 499 879 699 c 1,26,27
EndSplineSet
Validated: 19457
EndChar

StartChar: uni2206
Encoding: 8710 8710 155
Width: 1505
GlyphClass: 2
Flags: W
HStem: 0 150<231 1118> 1510 20G<822.846 883.17>
DStem2: 5 0 231 150 0.386112 0.922452<225.629 1388.4> 875 1530 679 1223 0.378162 -0.92574<210.082 1369.41>
LayerCount: 2
Fore
SplineSet
5 0 m 1,0,-1
 591 1400 l 1,1,-1
 865 1530 l 1,2,-1
 875 1530 l 1,3,-1
 1500 0 l 1,4,-1
 5 0 l 1,0,-1
231 150 m 1,5,-1
 1118 150 l 1,6,-1
 679 1223 l 1,7,-1
 231 150 l 1,5,-1
EndSplineSet
Validated: 1
EndChar

StartChar: product
Encoding: 8719 8719 156
Width: 1440
GlyphClass: 2
Flags: W
HStem: -430 21G<160 212.177 960 1012.18> 1360 150<480 960>
VStem: 160 320<-283 1360> 960 320<-283 1360>
LayerCount: 2
Fore
SplineSet
170 -430 m 1,0,-1
 160 -430 l 1,1,-1
 160 1384 l 1,2,-1
 428 1510 l 1,3,-1
 1280 1510 l 1,4,-1
 1280 -283 l 1,5,-1
 970 -430 l 1,6,-1
 960 -430 l 1,7,-1
 960 1360 l 1,8,-1
 480 1360 l 1,9,-1
 480 -283 l 1,10,-1
 170 -430 l 1,0,-1
EndSplineSet
Validated: 19457
EndChar

StartChar: summation
Encoding: 8721 8721 157
Width: 1284
GlyphClass: 2
Flags: W
HStem: -410 150<496 1107> 1360 150<488 1101>
DStem2: 60 -410 496 -260 0.462139 0.886807<334.514 1120.87> 488 1360 74 1427 0.513148 -0.8583<0 712.224>
LayerCount: 2
Fore
SplineSet
60 -410 m 1,0,-1
 578 584 l 1,1,-1
 74 1427 l 1,2,-1
 250 1510 l 1,3,-1
 1168 1510 l 1,4,-1
 1168 1500 l 1,5,-1
 1101 1360 l 1,6,-1
 488 1360 l 1,7,-1
 944 598 l 1,8,-1
 496 -260 l 1,9,-1
 1174 -260 l 1,10,-1
 1174 -270 l 1,11,-1
 1107 -410 l 1,12,-1
 60 -410 l 1,0,-1
EndSplineSet
Validated: 19457
EndChar

StartChar: minus
Encoding: 8722 8722 158
Width: 1240
GlyphClass: 2
Flags: W
HStem: 620 270<235 1005>
LayerCount: 2
Fore
SplineSet
235 890 m 1,0,-1
 1130 890 l 1,1,-1
 1130 880 l 1,2,-1
 1005 620 l 1,3,-1
 110 620 l 1,4,-1
 110 630 l 1,5,-1
 235 890 l 1,0,-1
EndSplineSet
Validated: 19457
EndChar

StartChar: uni2215
Encoding: 8725 8725 159
Width: 937
GlyphClass: 2
Flags: W
HStem: -20 21G<205.053 266.325> 1510 20G<671.661 732.77>
DStem2: 10 93 257 -20 0.423093 0.906086<2.11609 1585.94>
LayerCount: 2
Fore
SplineSet
247 -20 m 1,0,-1
 10 93 l 1,1,-1
 681 1530 l 1,2,-1
 691 1530 l 1,3,-1
 927 1417 l 1,4,-1
 257 -20 l 1,5,-1
 247 -20 l 1,0,-1
EndSplineSet
Validated: 1
EndChar

StartChar: uni2219
Encoding: 8729 8729 160
Width: 420
GlyphClass: 2
Flags: W
HStem: 573 365<92.1309 326.878>
VStem: 30 360<635.566 875.578>
LayerCount: 2
Fore
SplineSet
210 938 m 128,-1,1
 285 938 285 938 337.5 884.5 c 128,-1,2
 390 831 390 831 390 756 c 128,-1,3
 390 681 390 681 337 627 c 128,-1,4
 284 573 284 573 210 573 c 0,5,6
 134 573 134 573 82 627 c 128,-1,7
 30 681 30 681 30 755 c 0,8,9
 30 831 30 831 82 884 c 0,10,0
 135 938 135 938 210 938 c 128,-1,1
EndSplineSet
Validated: 19457
EndChar

StartChar: radical
Encoding: 8730 8730 161
Width: 1177
GlyphClass: 2
Flags: W
HStem: -20 21G<294.255 354.222> 1510 20G<1025.38 1086.41>
DStem2: 283 858 10 734 0.361133 -0.932514<17.0425 598.649> 505 302 578 106 0.395947 0.918274<0 1336.5>
LayerCount: 2
Fore
SplineSet
312 -20 m 1,0,-1
 302 -20 l 1,1,-1
 10 734 l 1,2,-1
 273 858 l 1,3,-1
 283 858 l 1,4,-1
 505 302 l 1,5,-1
 1034 1530 l 1,6,-1
 1044 1530 l 1,7,-1
 1167 1472 l 1,8,-1
 578 106 l 1,9,-1
 312 -20 l 1,0,-1
EndSplineSet
Validated: 19457
EndChar

StartChar: infinity
Encoding: 8734 8734 162
Width: 1449
GlyphClass: 2
Flags: W
HStem: 385 108<368.57 581.918 867.002 1080.45> 1017 108<368.555 581.917 868.731 1080.45>
VStem: 110 236<518.601 991.337> 604 241<518.663 991.337> 1103 236<518.663 991.337>
CounterMasks: 1 38
LayerCount: 2
Fore
SplineSet
974.5 493 m 128,-1,1
 1033 493 1033 493 1072 518 c 0,2,3
 1103 539 1103 539 1103 587 c 2,4,-1
 1103 923 l 2,5,6
 1103 971 1103 971 1072 992 c 0,7,8
 1033 1017 1033 1017 974 1017 c 128,-1,9
 915 1017 915 1017 876 992 c 0,10,11
 845 971 845 971 845 923 c 2,12,-1
 845 587 l 2,13,14
 845 537 845 537 876 518 c 0,15,0
 916 493 916 493 974.5 493 c 128,-1,1
475.5 493 m 128,-1,17
 534 493 534 493 573 518 c 0,18,19
 604 539 604 539 604 587 c 2,20,-1
 604 923 l 2,21,22
 604 971 604 971 573 992 c 0,23,24
 534 1017 534 1017 475 1017 c 128,-1,25
 416 1017 416 1017 377 992 c 0,26,27
 346 971 346 971 346 923 c 2,28,-1
 346 587 l 2,29,30
 346 537 346 537 377 518 c 0,31,16
 417 493 417 493 475.5 493 c 128,-1,17
475 1125 m 0,32,33
 616 1125 616 1125 724 1061 c 1,34,35
 832 1125 832 1125 974 1125 c 0,36,37
 1119 1125 1119 1125 1229 1057.5 c 128,-1,38
 1339 990 1339 990 1339 847 c 2,39,-1
 1339 663 l 2,40,41
 1339 520 1339 520 1229 452.5 c 128,-1,42
 1119 385 1119 385 974 385 c 0,43,44
 833 385 833 385 724 449 c 1,45,46
 616 385 616 385 475 385 c 0,47,48
 330 385 330 385 220 452.5 c 128,-1,49
 110 520 110 520 110 663 c 2,50,-1
 110 847 l 2,51,52
 110 990 110 990 220 1057.5 c 128,-1,53
 330 1125 330 1125 475 1125 c 0,32,33
EndSplineSet
Validated: 19457
EndChar

StartChar: approxequal
Encoding: 8776 8776 163
Width: 1178
GlyphClass: 2
Flags: W
HStem: 265 212<729.113 890.449> 535 212<287.551 448.887> 765 212<729.113 890.449> 1035 212<287.551 448.887>
VStem: 110 148<330 508.707 830 1008.71> 920 148<503.293 682 1003.29 1182>
LayerCount: 2
Fore
SplineSet
426 747 m 0,0,1
 607 747 607 747 686 594 c 0,2,3
 717 533 717 533 736 513 c 0,4,5
 768 477 768 477 816 477 c 0,6,7
 920 477 920 477 920 682 c 1,8,-1
 1058 747 l 1,9,-1
 1068 747 l 1,10,11
 1068 265 1068 265 752 265 c 0,12,13
 571 265 571 265 492 418 c 0,14,15
 461 479 461 479 442 499 c 0,16,17
 410 535 410 535 362 535 c 0,18,19
 258 535 258 535 258 330 c 1,20,-1
 120 265 l 1,21,-1
 110 265 l 1,22,23
 110 747 110 747 426 747 c 0,0,1
426 1247 m 0,24,25
 607 1247 607 1247 686 1094 c 0,26,27
 717 1033 717 1033 736 1013 c 0,28,29
 768 977 768 977 816 977 c 0,30,31
 920 977 920 977 920 1182 c 1,32,-1
 1058 1247 l 1,33,-1
 1068 1247 l 1,34,35
 1068 765 1068 765 752 765 c 0,36,37
 571 765 571 765 492 918 c 0,38,39
 461 979 461 979 442 999 c 0,40,41
 410 1035 410 1035 362 1035 c 0,42,43
 258 1035 258 1035 258 830 c 1,44,-1
 120 765 l 1,45,-1
 110 765 l 1,46,47
 110 1247 110 1247 426 1247 c 0,24,25
EndSplineSet
Validated: 19457
EndChar

StartChar: notequal
Encoding: 8800 8800 164
Width: 1240
GlyphClass: 2
Flags: W
HStem: 390 270<235 365 660 1005> 850 270<235 579 875 1005>
DStem2: 262 170 430 166 0.422674 0.906282<67.3842 242.917 612.302 750.259 1120.07 1296.51>
LayerCount: 2
Fore
SplineSet
235 1120 m 1,0,-1
 705 1120 l 1,1,-1
 810 1345 l 1,2,-1
 969 1345 l 1,3,-1
 978 1341 l 1,4,-1
 875 1120 l 1,5,-1
 1130 1120 l 1,6,-1
 1130 1110 l 1,7,-1
 1005 850 l 1,8,-1
 749 850 l 1,9,-1
 660 660 l 1,10,-1
 1130 660 l 1,11,-1
 1130 650 l 1,12,-1
 1005 390 l 1,13,-1
 534 390 l 1,14,-1
 430 166 l 1,15,-1
 271 166 l 1,16,-1
 262 170 l 1,17,-1
 365 390 l 1,18,-1
 110 390 l 1,19,-1
 110 400 l 1,20,-1
 235 660 l 1,21,-1
 491 660 l 1,22,-1
 579 850 l 1,23,-1
 110 850 l 1,24,-1
 110 860 l 1,25,-1
 235 1120 l 1,0,-1
EndSplineSet
Validated: 19457
EndChar

StartChar: lessequal
Encoding: 8804 8804 165
Width: 1355
GlyphClass: 2
Flags: W
HStem: 154 270<235 1070>
DStem2: 408 980 110 806 0.942398 -0.334493<0 808.778> 227 1059 408 980 0.937798 0.347181<142.314 973.557>
LayerCount: 2
Fore
SplineSet
227 1059 m 1,0,-1
 1140 1397 l 1,1,-1
 1195 1284 l 1,2,-1
 1195 1274 l 1,3,-1
 408 980 l 1,4,-1
 1195 707 l 1,5,-1
 1195 697 l 1,6,-1
 1082 461 l 1,7,-1
 110 806 l 1,8,-1
 110 816 l 1,9,-1
 227 1059 l 1,0,-1
235 424 m 1,10,-1
 1195 424 l 1,11,-1
 1195 414 l 1,12,-1
 1070 154 l 1,13,-1
 110 154 l 1,14,-1
 110 164 l 1,15,-1
 235 424 l 1,10,-1
EndSplineSet
Validated: 19457
EndChar

StartChar: greaterequal
Encoding: 8805 8805 166
Width: 1355
GlyphClass: 2
Flags: W
HStem: 154 270<285 1120>
DStem2: 273 1377 160 1131 0.942398 -0.334493<0 808.778> 160 564 215 441 0.937798 0.347181<8.8757 840.118>
LayerCount: 2
Fore
SplineSet
1128 779 m 1,0,-1
 215 441 l 1,1,-1
 160 554 l 1,2,-1
 160 564 l 1,3,-1
 947 858 l 1,4,-1
 160 1131 l 1,5,-1
 160 1141 l 1,6,-1
 273 1377 l 1,7,-1
 1245 1032 l 1,8,-1
 1245 1022 l 1,9,-1
 1128 779 l 1,0,-1
285 424 m 1,10,-1
 1245 424 l 1,11,-1
 1245 414 l 1,12,-1
 1120 154 l 1,13,-1
 160 154 l 1,14,-1
 160 164 l 1,15,-1
 285 424 l 1,10,-1
EndSplineSet
Validated: 19457
EndChar

StartChar: lozenge
Encoding: 9674 9674 167
Width: 1178
GlyphClass: 2
Flags: W
HStem: -20 21G<575.042 602.903> 1510 20G<575.641 602.409>
DStem2: 60 738 299 850 0.555427 0.831565<225.882 602.247> 299 850 60 738 0.5723 -0.820044<0 652.516> 589 1530 508 1163 0.556885 -0.83059<259.719 915.398> 674 316 589 -20 0.57078 0.821103<0 369.659>
LayerCount: 2
Fore
SplineSet
674 316 m 1,0,-1
 880 623 l 1,1,-1
 508 1163 l 1,2,-1
 299 850 l 1,3,-1
 674 316 l 1,0,-1
589 -20 m 1,4,-1
 60 738 l 1,5,-1
 589 1530 l 1,6,-1
 1118 741 l 1,7,-1
 589 -20 l 1,4,-1
EndSplineSet
Validated: 19457
EndChar

StartChar: Oslash
Encoding: 216 216 168
Width: 1370
Flags: W
HStem: -40 21G<250 389.375> -20 150<496.689 875.505> 1380 150<494.495 873.311>
VStem: 120 320<376.677 1299.52> 930 320<210.484 1133.03>
DStem2: 250 -36 380 -40 0.422823 0.906212<51.3421 127.201 449.165 1352.32 1674.85 1750.14>
LayerCount: 2
Fore
SplineSet
685 -20 m 0,0,1
 534 -20 534 -20 410 24 c 1,2,-1
 380 -40 l 1,3,-1
 259 -40 l 1,4,-1
 250 -36 l 1,5,-1
 301 74 l 1,6,7
 120 187 120 187 120 411 c 2,8,-1
 120 1099 l 2,9,10
 120 1326 120 1326 288 1428 c 128,-1,11
 456 1530 456 1530 685 1530 c 0,12,13
 836 1530 836 1530 960 1486 c 1,14,-1
 990 1550 l 1,15,-1
 1111 1550 l 1,16,-1
 1120 1546 l 1,17,-1
 1069 1436 l 1,18,19
 1250 1321 1250 1321 1250 1099 c 2,20,-1
 1250 411 l 2,21,22
 1250 184 1250 184 1082 82 c 128,-1,23
 914 -20 914 -20 685 -20 c 0,0,1
483 181 m 1,24,25
 578 130 578 130 689 130 c 0,26,27
 797 130 797 130 872 171 c 0,28,29
 930 203 930 203 930 295 c 2,30,-1
 930 1139 l 1,31,-1
 483 181 l 1,24,25
887 1329 m 1,32,33
 792 1380 792 1380 681 1380 c 0,34,35
 573 1380 573 1380 498 1339 c 0,36,37
 440 1307 440 1307 440 1215 c 2,38,-1
 440 371 l 1,39,-1
 887 1329 l 1,32,33
EndSplineSet
Validated: 19457
EndChar

StartChar: oslash
Encoding: 248 248 169
Width: 1190
Flags: W
HStem: -40 21G<255 395.333> -20 140<474.363 734.684> 980 140<455.316 715.637>
VStem: 120 300<317.137 933.829> 770 300<166.171 782.863>
DStem2: 295 49 386 -40 0.423012 0.906124<-42.151 3.38371 295.718 866.026 1158.36 1203.89>
LayerCount: 2
Fore
SplineSet
595 120 m 0,0,1
 679 120 679 120 730 153 c 0,2,3
 770 179 770 179 770 242 c 2,4,-1
 770 783 l 1,5,-1
 473 146 l 1,6,7
 521 120 521 120 595 120 c 0,0,1
420 317 m 1,8,-1
 717 954 l 1,9,10
 669 980 669 980 595 980 c 0,11,12
 511 980 511 980 460 947 c 0,13,14
 420 921 420 921 420 858 c 2,15,-1
 420 317 l 1,8,-1
595 -20 m 0,16,17
 494 -20 494 -20 407 5 c 1,18,-1
 386 -40 l 1,19,-1
 265 -40 l 1,20,-1
 255 -36 l 1,21,-1
 295 49 l 1,22,23
 279 57 279 57 263 67 c 0,24,25
 120 154 120 154 120 340 c 2,26,-1
 120 760 l 2,27,28
 120 946 120 946 263 1033 c 128,-1,29
 406 1120 406 1120 595 1120 c 0,30,31
 696 1120 696 1120 783 1095 c 1,32,-1
 804 1140 l 1,33,-1
 925 1140 l 1,34,-1
 935 1136 l 1,35,-1
 895 1051 l 1,36,37
 911 1043 911 1043 927 1033 c 0,38,39
 1070 946 1070 946 1070 760 c 2,40,-1
 1070 340 l 2,41,42
 1070 154 1070 154 927 67 c 128,-1,43
 784 -20 784 -20 595 -20 c 0,16,17
EndSplineSet
Validated: 19457
EndChar

StartChar: multiply
Encoding: 215 215 170
Width: 1232
Flags: W
DStem2: 439 1123 160 1020 0.707107 -0.707107<0 250.316 520.431 770.746> 160 490 439 387 0.707107 0.707107<124.451 374.767 644.881 895.197>
LayerCount: 2
Fore
SplineSet
1065 1027 m 1,0,-1
 1072 1020 l 1,1,-1
 807 755 l 1,2,-1
 1072 490 l 1,3,-1
 1065 483 l 1,4,-1
 793 387 l 1,5,-1
 616 564 l 1,6,-1
 439 387 l 1,7,-1
 167 483 l 1,8,-1
 160 490 l 1,9,-1
 425 755 l 1,10,-1
 160 1020 l 1,11,-1
 167 1027 l 1,12,-1
 439 1123 l 1,13,-1
 616 946 l 1,14,-1
 793 1123 l 1,15,-1
 1065 1027 l 1,0,-1
EndSplineSet
Validated: 19457
EndChar

StartChar: divide
Encoding: 247 247 171
Width: 1240
Flags: W
HStem: 155 365<502.131 736.878> 620 270<235 1005> 990 365<502.131 736.878>
VStem: 440 360<217.566 457.578 1052.57 1292.58>
CounterMasks: 1 e0
LayerCount: 2
Fore
SplineSet
235 890 m 1,0,-1
 1130 890 l 1,1,-1
 1130 880 l 1,2,-1
 1005 620 l 1,3,-1
 110 620 l 1,4,-1
 110 630 l 1,5,-1
 235 890 l 1,0,-1
620 1355 m 128,-1,7
 695 1355 695 1355 747.5 1301.5 c 128,-1,8
 800 1248 800 1248 800 1173 c 128,-1,9
 800 1098 800 1098 747 1044 c 128,-1,10
 694 990 694 990 620 990 c 0,11,12
 544 990 544 990 492 1044 c 128,-1,13
 440 1098 440 1098 440 1172 c 0,14,15
 440 1248 440 1248 492 1301 c 0,16,6
 545 1355 545 1355 620 1355 c 128,-1,7
620 155 m 0,17,18
 544 155 544 155 492 209 c 128,-1,19
 440 263 440 263 440 337 c 0,20,21
 440 413 440 413 492 466 c 0,22,23
 545 520 545 520 620 520 c 128,-1,24
 695 520 695 520 747.5 466.5 c 128,-1,25
 800 413 800 413 800 338 c 128,-1,26
 800 263 800 263 747 209 c 128,-1,27
 694 155 694 155 620 155 c 0,17,18
EndSplineSet
Validated: 19457
EndChar

StartChar: uni1E02
Encoding: 7682 7682 172
Width: 1290
Flags: W
HStem: 0 150<480 868.709> 748 150<480 798.429> 1360 150<480 798.275> 1590 364<533.131 767.338>
VStem: 160 320<150 748 898 1360> 471 360<1654.3 1891.73> 840 310<924.632 1320.1> 910 330<230.538 701.092>
LayerCount: 2
Fore
SplineSet
480 748 m 1,0,-1
 480 150 l 1,1,-1
 665 150 l 2,2,3
 777 150 777 150 852 185 c 0,4,5
 910 212 910 212 910 292 c 2,6,-1
 910 606 l 2,7,8
 910 685 910 685 851 713 c 0,9,10
 776 748 776 748 665 748 c 2,11,-1
 480 748 l 1,0,-1
160 0 m 1,12,-1
 160 1384 l 1,13,-1
 428 1510 l 1,14,-1
 675 1510 l 2,15,16
 869 1510 869 1510 1002 1425 c 24,17,18
 1150 1331 1150 1331 1150 1141 c 2,19,-1
 1150 1060 l 2,20,21
 1150 934 1150 934 1073 855 c 1,22,23
 1240 756 1240 756 1240 539 c 2,24,-1
 1240 430 l 2,25,26
 1240 205 1240 205 1071 102.5 c 128,-1,27
 902 0 902 0 675 0 c 2,28,-1
 160 0 l 1,12,-1
480 1360 m 1,29,-1
 480 898 l 1,30,-1
 665 898 l 2,31,32
 750 898 750 898 800 924 c 24,33,34
 840 944 840 944 840 994 c 2,35,-1
 840 1264 l 2,36,37
 840 1316 840 1316 800 1334 c 0,38,39
 745 1360 745 1360 665 1360 c 2,40,-1
 480 1360 l 1,29,-1
651 1954 m 0,41,42
 727 1954 727 1954 779 1901 c 128,-1,43
 831 1848 831 1848 831 1773 c 0,44,45
 831 1699 831 1699 778 1644 c 0,46,47
 726 1590 726 1590 651 1590 c 0,48,49
 574 1590 574 1590 522.5 1644 c 128,-1,50
 471 1698 471 1698 471 1772 c 0,51,52
 471 1848 471 1848 523 1900 c 0,53,54
 576 1954 576 1954 651 1954 c 0,41,42
EndSplineSet
Validated: 19457
EndChar

StartChar: uni1E03
Encoding: 7683 7683 173
Width: 1210
Flags: W
HStem: -20 140<475.315 744.34> 980 140<474.772 744.34> 1180 364<574.131 808.338> 1510 20G<387.971 440>
VStem: 140 300<166.666 946.178 1089 1392> 512 360<1244.3 1481.73> 780 310<166.171 933.829>
LayerCount: 2
Fore
SplineSet
610 120 m 128,-1,1
 689 120 689 120 740 153 c 0,2,3
 780 179 780 179 780 242 c 2,4,-1
 780 858 l 2,5,6
 780 921 780 921 740 947 c 0,7,8
 689 980 689 980 610 980 c 128,-1,9
 531 980 531 980 480 947 c 0,10,11
 440 921 440 921 440 858 c 2,12,-1
 440 242 l 2,13,14
 440 179 440 179 480 153 c 0,15,0
 531 120 531 120 610 120 c 128,-1,1
615 -20 m 128,-1,17
 426 -20 426 -20 283 67 c 0,18,19
 140 155 140 155 140 340 c 2,20,-1
 140 1392 l 1,21,-1
 430 1530 l 1,22,-1
 440 1530 l 1,23,-1
 440 1089 l 1,24,25
 520 1120 520 1120 615 1120 c 0,26,27
 804 1120 804 1120 947 1033 c 128,-1,28
 1090 946 1090 946 1090 760 c 2,29,-1
 1090 340 l 2,30,31
 1090 154 1090 154 947 67 c 128,-1,16
 804 -20 804 -20 615 -20 c 128,-1,17
692 1544 m 0,32,33
 768 1544 768 1544 820 1491 c 128,-1,34
 872 1438 872 1438 872 1363 c 0,35,36
 872 1289 872 1289 819 1234 c 0,37,38
 767 1180 767 1180 692 1180 c 0,39,40
 615 1180 615 1180 563.5 1234 c 128,-1,41
 512 1288 512 1288 512 1362 c 0,42,43
 512 1438 512 1438 564 1490 c 0,44,45
 617 1544 617 1544 692 1544 c 0,32,33
EndSplineSet
Validated: 19457
EndChar

StartChar: uni1E0A
Encoding: 7690 7690 174
Width: 1390
Flags: W
HStem: 0 150<480 887.31> 1360 150<480 887.31> 1590 364<568.131 802.338>
VStem: 160 320<150 1360> 506 360<1654.3 1891.73> 940 330<230.484 1279.52>
LayerCount: 2
Fore
SplineSet
480 150 m 1,0,-1
 695 150 l 2,1,2
 808 150 808 150 882 191 c 0,3,4
 940 223 940 223 940 315 c 2,5,-1
 940 1195 l 2,6,7
 940 1287 940 1287 882 1319 c 0,8,9
 807 1360 807 1360 695 1360 c 2,10,-1
 480 1360 l 1,11,-1
 480 150 l 1,0,-1
160 0 m 1,12,-1
 160 1383 l 1,13,-1
 428 1510 l 1,14,-1
 705 1510 l 2,15,16
 934 1510 934 1510 1102 1408 c 128,-1,17
 1270 1306 1270 1306 1270 1079 c 2,18,-1
 1270 431 l 2,19,20
 1270 204 1270 204 1102 102 c 128,-1,21
 934 0 934 0 705 0 c 2,22,-1
 160 0 l 1,12,-1
686 1954 m 0,23,24
 762 1954 762 1954 814 1901 c 128,-1,25
 866 1848 866 1848 866 1773 c 0,26,27
 866 1699 866 1699 813 1644 c 0,28,29
 761 1590 761 1590 686 1590 c 0,30,31
 609 1590 609 1590 557.5 1644 c 128,-1,32
 506 1698 506 1698 506 1772 c 0,33,34
 506 1848 506 1848 558 1900 c 0,35,36
 611 1954 611 1954 686 1954 c 0,23,24
EndSplineSet
Validated: 19457
EndChar

StartChar: uni1E0B
Encoding: 7691 7691 175
Width: 1210
Flags: W
HStem: -20 140<465.66 734.685> 980 140<465.66 735.228> 1180 364<390.131 624.338>
VStem: 120 310<166.171 933.829> 328 360<1244.3 1481.73> 770 300<166.171 946.178 1089 1392>
LayerCount: 2
Fore
SplineSet
600 120 m 128,-1,1
 679 120 679 120 730 153 c 0,2,3
 770 179 770 179 770 242 c 2,4,-1
 770 858 l 2,5,6
 770 921 770 921 730 947 c 0,7,8
 679 980 679 980 600 980 c 128,-1,9
 521 980 521 980 470 947 c 0,10,11
 430 921 430 921 430 858 c 2,12,-1
 430 242 l 2,13,14
 430 179 430 179 470 153 c 0,15,0
 521 120 521 120 600 120 c 128,-1,1
595 -20 m 128,-1,17
 406 -20 406 -20 263 67 c 128,-1,18
 120 154 120 154 120 340 c 2,19,-1
 120 760 l 2,20,21
 120 946 120 946 263 1033 c 128,-1,22
 406 1120 406 1120 595 1120 c 0,23,24
 690 1120 690 1120 770 1089 c 1,25,-1
 770 1392 l 1,26,-1
 1060 1530 l 1,27,-1
 1070 1530 l 1,28,-1
 1070 340 l 2,29,30
 1070 154 1070 154 927 67 c 128,-1,16
 784 -20 784 -20 595 -20 c 128,-1,17
508 1544 m 0,31,32
 584 1544 584 1544 636 1491 c 128,-1,33
 688 1438 688 1438 688 1363 c 0,34,35
 688 1289 688 1289 635 1234 c 0,36,37
 583 1180 583 1180 508 1180 c 0,38,39
 431 1180 431 1180 379.5 1234 c 128,-1,40
 328 1288 328 1288 328 1362 c 0,41,42
 328 1438 328 1438 380 1490 c 0,43,44
 433 1544 433 1544 508 1544 c 0,31,32
EndSplineSet
Validated: 19457
EndChar

StartChar: uni1E1E
Encoding: 7710 7710 176
Width: 1050
Flags: W
HStem: -20 21G<160 212.177> 680 150<480 973> 1360 150<480 973> 1590 364<491.131 725.338>
VStem: 160 320<127 680 830 1360> 429 360<1654.3 1891.73>
LayerCount: 2
Fore
SplineSet
170 -20 m 1,0,-1
 160 -20 l 1,1,-1
 160 1384 l 1,2,-1
 428 1510 l 1,3,-1
 1040 1510 l 1,4,-1
 1040 1500 l 1,5,-1
 973 1360 l 1,6,-1
 480 1360 l 1,7,-1
 480 830 l 1,8,-1
 1040 830 l 1,9,-1
 1040 820 l 1,10,-1
 973 680 l 1,11,-1
 480 680 l 1,12,-1
 480 127 l 1,13,-1
 170 -20 l 1,0,-1
609 1954 m 0,14,15
 685 1954 685 1954 737 1901 c 128,-1,16
 789 1848 789 1848 789 1773 c 0,17,18
 789 1699 789 1699 736 1644 c 0,19,20
 684 1590 684 1590 609 1590 c 0,21,22
 532 1590 532 1590 480.5 1644 c 128,-1,23
 429 1698 429 1698 429 1772 c 0,24,25
 429 1848 429 1848 481 1900 c 0,26,27
 534 1954 534 1954 609 1954 c 0,14,15
EndSplineSet
Validated: 19457
EndChar

StartChar: uni1E1F
Encoding: 7711 7711 177
Width: 860
Flags: W
HStem: -20 21G<140 192.029> 802 140<440 749> 1370 140<481.604 788> 1590 364<348.131 582.338>
VStem: 140 300<118 802 942 1323.83> 286 360<1654.3 1891.73>
LayerCount: 2
Fore
SplineSet
150 -20 m 1,0,-1
 140 -20 l 1,1,-1
 140 1150 l 2,2,3
 140 1336 140 1336 283 1423 c 128,-1,4
 426 1510 426 1510 615 1510 c 2,5,-1
 850 1510 l 1,6,-1
 850 1500 l 1,7,-1
 788 1370 l 1,8,-1
 626 1370 l 2,9,10
 531 1370 531 1370 480 1337 c 0,11,12
 440 1311 440 1311 440 1248 c 2,13,-1
 440 942 l 1,14,-1
 811 942 l 1,15,-1
 811 932 l 1,16,-1
 749 802 l 1,17,-1
 440 802 l 1,18,-1
 440 118 l 1,19,-1
 150 -20 l 1,0,-1
466 1954 m 0,20,21
 542 1954 542 1954 594 1901 c 128,-1,22
 646 1848 646 1848 646 1773 c 0,23,24
 646 1699 646 1699 593 1644 c 0,25,26
 541 1590 541 1590 466 1590 c 0,27,28
 389 1590 389 1590 337.5 1644 c 128,-1,29
 286 1698 286 1698 286 1772 c 0,30,31
 286 1848 286 1848 338 1900 c 0,32,33
 391 1954 391 1954 466 1954 c 0,20,21
EndSplineSet
Validated: 19457
EndChar

StartChar: uni1E40
Encoding: 7744 7744 178
Width: 2220
Flags: W
HStem: -20 21G<140 192.177 950 1002.18 1760 1812.18> 1380 150<514.812 897.571 1323.08 1705.35> 1590 364<986.131 1220.34>
VStem: 140 320<127 1299.52> 924 360<1654.3 1891.73> 950 320<127 1330.06> 1760 320<127 1299.52>
LayerCount: 2
Fore
SplineSet
150 -20 m 1,0,-1
 140 -20 l 1,1,-1
 140 1099 l 2,2,3
 140 1326 140 1326 308 1428 c 128,-1,4
 476 1530 476 1530 707 1530 c 128,-1,5
 938 1530 938 1530 1110 1423 c 1,6,7
 1284 1530 1284 1530 1514 1530 c 128,-1,8
 1744 1530 1744 1530 1912 1428 c 128,-1,9
 2080 1326 2080 1326 2080 1099 c 2,10,-1
 2080 127 l 1,11,-1
 1770 -20 l 1,12,-1
 1760 -20 l 1,13,-1
 1760 1215 l 2,14,15
 1760 1307 1760 1307 1702 1339 c 0,16,17
 1627 1380 1627 1380 1515 1380 c 128,-1,18
 1403 1380 1403 1380 1328 1339 c 0,19,20
 1270 1307 1270 1307 1270 1215 c 2,21,-1
 1270 127 l 1,22,-1
 960 -20 l 1,23,-1
 950 -20 l 1,24,-1
 950 1215 l 2,25,26
 950 1307 950 1307 892 1339 c 0,27,28
 817 1380 817 1380 705 1380 c 128,-1,29
 593 1380 593 1380 518 1339 c 0,30,31
 460 1307 460 1307 460 1215 c 2,32,-1
 460 127 l 1,33,-1
 150 -20 l 1,0,-1
1104 1954 m 0,34,35
 1180 1954 1180 1954 1232 1901 c 128,-1,36
 1284 1848 1284 1848 1284 1773 c 0,37,38
 1284 1699 1284 1699 1231 1644 c 0,39,40
 1179 1590 1179 1590 1104 1590 c 0,41,42
 1027 1590 1027 1590 975.5 1644 c 128,-1,43
 924 1698 924 1698 924 1772 c 0,44,45
 924 1848 924 1848 976 1900 c 0,46,47
 1029 1954 1029 1954 1104 1954 c 0,34,35
EndSplineSet
Validated: 19457
EndChar

StartChar: uni1E41
Encoding: 7745 7745 179
Width: 1880
Flags: W
HStem: -20 21G<140 192.029 790 842.029 1440 1492.03> 980 140<475.316 755.498 1124.5 1404.68> 1180 364<814.131 1048.34>
VStem: 140 300<118 933.829> 752 360<1244.3 1481.73> 790 300<118 946.178> 1440 300<118 933.829>
LayerCount: 2
Fore
SplineSet
150 -20 m 1,0,-1
 140 -20 l 1,1,-1
 140 760 l 2,2,3
 140 946 140 946 283 1033 c 128,-1,4
 426 1120 426 1120 615 1120 c 0,5,6
 799 1120 799 1120 940 1037 c 1,7,8
 1081 1120 1081 1120 1265 1120 c 0,9,10
 1454 1120 1454 1120 1597 1033 c 128,-1,11
 1740 946 1740 946 1740 760 c 2,12,-1
 1740 118 l 1,13,-1
 1450 -20 l 1,14,-1
 1440 -20 l 1,15,-1
 1440 858 l 2,16,17
 1440 921 1440 921 1400 947 c 0,18,19
 1349 980 1349 980 1265 980 c 128,-1,20
 1181 980 1181 980 1130 947 c 0,21,22
 1090 921 1090 921 1090 858 c 2,23,-1
 1090 118 l 1,24,-1
 800 -20 l 1,25,-1
 790 -20 l 1,26,-1
 790 858 l 2,27,28
 790 921 790 921 750 947 c 0,29,30
 699 980 699 980 615 980 c 128,-1,31
 531 980 531 980 480 947 c 0,32,33
 440 921 440 921 440 858 c 2,34,-1
 440 118 l 1,35,-1
 150 -20 l 1,0,-1
932 1544 m 0,36,37
 1008 1544 1008 1544 1060 1491 c 128,-1,38
 1112 1438 1112 1438 1112 1363 c 0,39,40
 1112 1289 1112 1289 1059 1234 c 0,41,42
 1007 1180 1007 1180 932 1180 c 0,43,44
 855 1180 855 1180 803.5 1234 c 128,-1,45
 752 1288 752 1288 752 1362 c 0,46,47
 752 1438 752 1438 804 1490 c 0,48,49
 857 1544 857 1544 932 1544 c 0,36,37
EndSplineSet
Validated: 19457
EndChar

StartChar: uni1E56
Encoding: 7766 7766 180
Width: 1270
Flags: W
HStem: -20 21G<160 212.177> 440 150<480 857.31> 1360 150<480 857.31> 1590 364<524.131 758.338>
VStem: 160 320<127 440 590 1360> 462 360<1654.3 1891.73> 910 330<670.484 1279.52>
LayerCount: 2
Fore
SplineSet
170 -20 m 1,0,-1
 160 -20 l 1,1,-1
 160 1383 l 1,2,-1
 428 1510 l 1,3,-1
 675 1510 l 2,4,5
 904 1510 904 1510 1072 1408 c 128,-1,6
 1240 1306 1240 1306 1240 1079 c 2,7,-1
 1240 871 l 2,8,9
 1240 644 1240 644 1072 542 c 128,-1,10
 904 440 904 440 675 440 c 2,11,-1
 480 440 l 1,12,-1
 480 127 l 1,13,-1
 170 -20 l 1,0,-1
480 1360 m 1,14,-1
 480 590 l 1,15,-1
 665 590 l 2,16,17
 778 590 778 590 852 631 c 0,18,19
 910 663 910 663 910 755 c 2,20,-1
 910 1195 l 2,21,22
 910 1287 910 1287 852 1319 c 0,23,24
 777 1360 777 1360 665 1360 c 2,25,-1
 480 1360 l 1,14,-1
642 1954 m 0,26,27
 718 1954 718 1954 770 1901 c 128,-1,28
 822 1848 822 1848 822 1773 c 0,29,30
 822 1699 822 1699 769 1644 c 0,31,32
 717 1590 717 1590 642 1590 c 0,33,34
 565 1590 565 1590 513.5 1644 c 128,-1,35
 462 1698 462 1698 462 1772 c 0,36,37
 462 1848 462 1848 514 1900 c 0,38,39
 567 1954 567 1954 642 1954 c 0,26,27
EndSplineSet
Validated: 19457
EndChar

StartChar: uni1E57
Encoding: 7767 7767 181
Width: 1210
Flags: W
HStem: -430 21G<140 192.029> -20 140<474.772 744.34> 980 140<475.315 744.34> 1180 364<495.131 729.338>
VStem: 140 300<-292 11 153.822 933.829> 433 360<1244.3 1481.73> 780 310<166.171 933.829>
LayerCount: 2
Fore
SplineSet
610 980 m 128,-1,1
 531 980 531 980 480 947 c 0,2,3
 440 921 440 921 440 858 c 2,4,-1
 440 242 l 2,5,6
 440 179 440 179 480 153 c 0,7,8
 531 120 531 120 610 120 c 128,-1,9
 689 120 689 120 740 153 c 0,10,11
 780 179 780 179 780 242 c 2,12,-1
 780 858 l 2,13,14
 780 921 780 921 740 947 c 0,15,0
 689 980 689 980 610 980 c 128,-1,1
615 -20 m 0,16,17
 520 -20 520 -20 440 11 c 1,18,-1
 440 -292 l 1,19,-1
 150 -430 l 1,20,-1
 140 -430 l 1,21,-1
 140 760 l 2,22,23
 140 946 140 946 283 1033 c 128,-1,24
 426 1120 426 1120 615 1120 c 128,-1,25
 804 1120 804 1120 947 1033 c 128,-1,26
 1090 946 1090 946 1090 760 c 2,27,-1
 1090 340 l 2,28,29
 1090 154 1090 154 947 67 c 128,-1,30
 804 -20 804 -20 615 -20 c 0,16,17
613 1544 m 0,31,32
 689 1544 689 1544 741 1491 c 128,-1,33
 793 1438 793 1438 793 1363 c 0,34,35
 793 1289 793 1289 740 1234 c 0,36,37
 688 1180 688 1180 613 1180 c 0,38,39
 536 1180 536 1180 484.5 1234 c 128,-1,40
 433 1288 433 1288 433 1362 c 0,41,42
 433 1438 433 1438 485 1490 c 0,43,44
 538 1544 538 1544 613 1544 c 0,31,32
EndSplineSet
Validated: 19457
EndChar

StartChar: uni1E6A
Encoding: 7786 7786 182
Width: 1190
Flags: W
HStem: -20 21G<435 487.466> 1360 150<77 435 755 1113> 1590 364<471.131 705.338>
VStem: 409 360<1654.3 1891.73> 435 320<126 1360>
LayerCount: 2
Fore
SplineSet
445 -20 m 1,0,-1
 435 -20 l 1,1,-1
 435 1360 l 1,2,-1
 10 1360 l 1,3,-1
 10 1370 l 1,4,-1
 77 1510 l 1,5,-1
 1180 1510 l 1,6,-1
 1180 1500 l 1,7,-1
 1113 1360 l 1,8,-1
 755 1360 l 1,9,-1
 755 126 l 1,10,-1
 445 -20 l 1,0,-1
589 1954 m 0,11,12
 665 1954 665 1954 717 1901 c 128,-1,13
 769 1848 769 1848 769 1773 c 0,14,15
 769 1699 769 1699 716 1644 c 0,16,17
 664 1590 664 1590 589 1590 c 0,18,19
 512 1590 512 1590 460.5 1644 c 128,-1,20
 409 1698 409 1698 409 1772 c 0,21,22
 409 1848 409 1848 461 1900 c 0,23,24
 514 1954 514 1954 589 1954 c 0,11,12
EndSplineSet
Validated: 1
EndChar

StartChar: uni1E6B
Encoding: 7787 7787 183
Width: 890
Flags: W
HStem: -20 21G<300 351.985> 960 140<72 300 585 818> 1510 20G<533.015 585> 1590 364<327.131 561.338>
VStem: 265 360<1654.3 1891.73> 300 285<111 960 1100 1399>
LayerCount: 2
Fore
SplineSet
310 -20 m 1,0,-1
 300 -20 l 1,1,-1
 300 960 l 1,2,-1
 10 960 l 1,3,-1
 10 970 l 1,4,-1
 72 1100 l 1,5,-1
 300 1100 l 1,6,-1
 300 1399 l 1,7,-1
 575 1530 l 1,8,-1
 585 1530 l 1,9,-1
 585 1100 l 1,10,-1
 880 1100 l 1,11,-1
 880 1090 l 1,12,-1
 818 960 l 1,13,-1
 585 960 l 1,14,-1
 585 111 l 1,15,-1
 310 -20 l 1,0,-1
445 1954 m 0,16,17
 521 1954 521 1954 573 1901 c 128,-1,18
 625 1848 625 1848 625 1773 c 0,19,20
 625 1699 625 1699 572 1644 c 0,21,22
 520 1590 520 1590 445 1590 c 0,23,24
 368 1590 368 1590 316.5 1644 c 128,-1,25
 265 1698 265 1698 265 1772 c 0,26,27
 265 1848 265 1848 317 1900 c 0,28,29
 370 1954 370 1954 445 1954 c 0,16,17
EndSplineSet
Validated: 1
EndChar

StartChar: uni1E60
Encoding: 7776 7776 184
Width: 1170
Flags: W
HStem: -20 129<412.613 731.457> 751 167<485.531 735.65> 1390 140<477.161 692.876> 1590 364<451.131 685.338>
VStem: 30 335<213.473 385.793> 118 330<947.667 1338.76> 389 360<1654.3 1891.73> 780 340<212.13 691.421>
LayerCount: 2
Fore
SplineSet
574 -20 m 128,-1,1
 366 -20 366 -20 204 79 c 0,2,3
 41 179 41 179 30 379 c 1,4,-1
 355 533 l 1,5,-1
 365 533 l 1,6,-1
 365 261 l 2,7,8
 365 177 365 177 423 147 c 0,9,10
 496 109 496 109 572.5 109 c 128,-1,11
 649 109 649 109 722 147 c 0,12,13
 780 178 780 178 780 261 c 2,14,-1
 780 598 l 2,15,16
 780 683 780 683 726 713 c 0,17,18
 658 751 658 751 583 751 c 0,19,20
 409 751 409 751 259 844 c 0,21,22
 118 931 118 931 118 1130 c 2,23,-1
 118 1161 l 2,24,25
 118 1351 118 1351 260.5 1440.5 c 128,-1,26
 403 1530 403 1530 583 1530 c 128,-1,27
 763 1530 763 1530 897 1446 c 0,28,29
 1035 1359 1035 1359 1047 1203 c 1,30,-1
 733 1054 l 1,31,-1
 723 1054 l 1,32,-1
 723 1277 l 2,33,34
 723 1340 723 1340 686 1361 c 0,35,36
 636 1390 636 1390 586 1390 c 0,37,38
 529 1390 529 1390 484 1361 c 0,39,40
 448 1338 448 1338 448 1277 c 2,41,-1
 448 1031 l 2,42,43
 448 968 448 968 484 947 c 0,44,45
 533 918 533 918 582 918 c 0,46,47
 800 918 800 918 957 820 c 0,48,49
 1120 719 1120 719 1120 487 c 2,50,-1
 1120 411 l 2,51,52
 1120 185 1120 185 951 82.5 c 128,-1,0
 782 -20 782 -20 574 -20 c 128,-1,1
569 1954 m 0,53,54
 645 1954 645 1954 697 1901 c 128,-1,55
 749 1848 749 1848 749 1773 c 0,56,57
 749 1699 749 1699 696 1644 c 0,58,59
 644 1590 644 1590 569 1590 c 0,60,61
 492 1590 492 1590 440.5 1644 c 128,-1,62
 389 1698 389 1698 389 1772 c 0,63,64
 389 1848 389 1848 441 1900 c 0,65,66
 494 1954 494 1954 569 1954 c 0,53,54
EndSplineSet
Validated: 19457
EndChar

StartChar: uni1E61
Encoding: 7777 7777 185
Width: 958
Flags: W
HStem: -20 140<360.374 581.03> 515 140<405.698 591.157> 980 140<398.145 541.406> 1180 364<342.131 576.338>
VStem: 89 294<673.534 960.919> 280 360<1244.3 1481.73> 608 310<158.681 499.486>
LayerCount: 2
Fore
SplineSet
469.5 -20 m 128,-1,1
 289 -20 289 -20 160 68 c 0,2,3
 32 155 32 155 20 288 c 1,4,-1
 322 430 l 1,5,-1
 332 430 l 1,6,-1
 332 230 l 2,7,8
 334 172 334 172 368 148 c 0,9,10
 408 120 408 120 475 120 c 128,-1,11
 542 120 542 120 575 145 c 128,-1,12
 608 170 608 170 608 230 c 2,13,-1
 608 421 l 2,14,15
 608 515 608 515 486 515 c 0,16,17
 300 515 300 515 198 583 c 0,18,19
 89 655 89 655 89 768 c 2,20,-1
 89 805 l 2,21,22
 89 967 89 967 206 1043.5 c 128,-1,23
 323 1120 323 1120 478.5 1120 c 128,-1,24
 634 1120 634 1120 746 1044 c 0,25,26
 855 969 855 969 865 869 c 1,27,-1
 571 729 l 1,28,-1
 561 729 l 1,29,-1
 561 904 l 2,30,31
 561 947 561 947 530 966 c 0,32,33
 507 980 507 980 478 980 c 0,34,35
 429 980 429 980 406 961.5 c 128,-1,36
 383 943 383 943 383 914 c 2,37,-1
 383 719 l 2,38,39
 383 690 383 690 405 673 c 0,40,41
 427 655 427 655 492 655 c 0,42,43
 691 655 691 655 797 582 c 0,44,45
 918 497 918 497 918 373 c 2,46,-1
 918 340 l 2,47,48
 918 155 918 155 784 67.5 c 128,-1,0
 650 -20 650 -20 469.5 -20 c 128,-1,1
460 1544 m 0,49,50
 536 1544 536 1544 588 1491 c 128,-1,51
 640 1438 640 1438 640 1363 c 0,52,53
 640 1289 640 1289 587 1234 c 0,54,55
 535 1180 535 1180 460 1180 c 0,56,57
 383 1180 383 1180 331.5 1234 c 128,-1,58
 280 1288 280 1288 280 1362 c 0,59,60
 280 1438 280 1438 332 1490 c 0,61,62
 385 1544 385 1544 460 1544 c 0,49,50
EndSplineSet
Validated: 19457
EndChar

StartChar: Wgrave
Encoding: 7808 7808 186
Width: 2220
Flags: W
HStem: -20 150<514.654 896.921 1322.43 1705.19> 1510 20G<407.823 460 1217.82 1270 2027.82 2080>
VStem: 140 320<210.484 1383> 950 320<179.938 1383> 1760 320<210.484 1383>
DStem2: 1090 1980 900 1895 0.429396 -0.903116<0 356.108>
CounterMasks: 1 38
LayerCount: 2
Fore
SplineSet
706 -20 m 128,-1,1
 476 -20 476 -20 308 82 c 128,-1,2
 140 184 140 184 140 411 c 2,3,-1
 140 1383 l 1,4,-1
 450 1530 l 1,5,-1
 460 1530 l 1,6,-1
 460 295 l 2,7,8
 460 203 460 203 518 171 c 0,9,10
 593 130 593 130 705 130 c 128,-1,11
 817 130 817 130 892 171 c 0,12,13
 950 203 950 203 950 295 c 2,14,-1
 950 1383 l 1,15,-1
 1260 1530 l 1,16,-1
 1270 1530 l 1,17,-1
 1270 295 l 2,18,19
 1270 203 1270 203 1328 171 c 0,20,21
 1403 130 1403 130 1515 130 c 128,-1,22
 1627 130 1627 130 1702 171 c 0,23,24
 1760 203 1760 203 1760 295 c 2,25,-1
 1760 1383 l 1,26,-1
 2070 1530 l 1,27,-1
 2080 1530 l 1,28,-1
 2080 411 l 2,29,30
 2080 184 2080 184 1912 82 c 128,-1,31
 1744 -20 1744 -20 1513 -20 c 128,-1,32
 1282 -20 1282 -20 1110 87 c 1,33,0
 936 -20 936 -20 706 -20 c 128,-1,1
1080 1980 m 1,34,-1
 1090 1980 l 1,35,-1
 1245 1654 l 1,36,-1
 1067 1570 l 1,37,-1
 1057 1570 l 1,38,-1
 900 1895 l 1,39,-1
 1080 1980 l 1,34,-1
EndSplineSet
Validated: 19457
EndChar

StartChar: wgrave
Encoding: 7809 7809 187
Width: 1880
Flags: W
HStem: -20 140<475.316 755.498 1124.5 1404.68> 1100 20G<387.971 440 1037.97 1090 1687.97 1740>
VStem: 140 300<166.171 982> 790 300<153.822 982> 1440 300<166.171 982>
DStem2: 909 1570 719 1485 0.429396 -0.903116<0 356.108>
CounterMasks: 1 38
LayerCount: 2
Fore
SplineSet
615 -20 m 0,0,1
 426 -20 426 -20 283 67 c 128,-1,2
 140 154 140 154 140 340 c 2,3,-1
 140 982 l 1,4,-1
 430 1120 l 1,5,-1
 440 1120 l 1,6,-1
 440 242 l 2,7,8
 440 179 440 179 480 153 c 0,9,10
 531 120 531 120 615 120 c 128,-1,11
 699 120 699 120 750 153 c 0,12,13
 790 179 790 179 790 242 c 2,14,-1
 790 982 l 1,15,-1
 1080 1120 l 1,16,-1
 1090 1120 l 1,17,-1
 1090 242 l 2,18,19
 1090 179 1090 179 1130 153 c 0,20,21
 1181 120 1181 120 1265 120 c 128,-1,22
 1349 120 1349 120 1400 153 c 0,23,24
 1440 179 1440 179 1440 242 c 2,25,-1
 1440 982 l 1,26,-1
 1730 1120 l 1,27,-1
 1740 1120 l 1,28,-1
 1740 340 l 2,29,30
 1740 154 1740 154 1597 67 c 128,-1,31
 1454 -20 1454 -20 1265 -20 c 0,32,33
 1081 -20 1081 -20 940 63 c 1,34,35
 799 -20 799 -20 615 -20 c 0,0,1
899 1570 m 1,36,-1
 909 1570 l 1,37,-1
 1064 1244 l 1,38,-1
 886 1160 l 1,39,-1
 876 1160 l 1,40,-1
 719 1485 l 1,41,-1
 899 1570 l 1,36,-1
EndSplineSet
Validated: 19457
EndChar

StartChar: Wacute
Encoding: 7810 7810 188
Width: 2220
Flags: W
HStem: -20 150<514.654 896.921 1322.43 1705.19> 1510 20G<407.823 460 1217.82 1270 2027.82 2080>
VStem: 140 320<210.484 1383> 950 320<179.938 1383> 1760 320<210.484 1383>
DStem2: 946 1654 1134 1570 0.429396 0.903116<4.86464 360.972>
CounterMasks: 1 38
LayerCount: 2
Fore
SplineSet
706 -20 m 128,-1,1
 476 -20 476 -20 308 82 c 128,-1,2
 140 184 140 184 140 411 c 2,3,-1
 140 1383 l 1,4,-1
 450 1530 l 1,5,-1
 460 1530 l 1,6,-1
 460 295 l 2,7,8
 460 203 460 203 518 171 c 0,9,10
 593 130 593 130 705 130 c 128,-1,11
 817 130 817 130 892 171 c 0,12,13
 950 203 950 203 950 295 c 2,14,-1
 950 1383 l 1,15,-1
 1260 1530 l 1,16,-1
 1270 1530 l 1,17,-1
 1270 295 l 2,18,19
 1270 203 1270 203 1328 171 c 0,20,21
 1403 130 1403 130 1515 130 c 128,-1,22
 1627 130 1627 130 1702 171 c 0,23,24
 1760 203 1760 203 1760 295 c 2,25,-1
 1760 1383 l 1,26,-1
 2070 1530 l 1,27,-1
 2080 1530 l 1,28,-1
 2080 411 l 2,29,30
 2080 184 2080 184 1912 82 c 128,-1,31
 1744 -20 1744 -20 1513 -20 c 128,-1,32
 1282 -20 1282 -20 1110 87 c 1,33,0
 936 -20 936 -20 706 -20 c 128,-1,1
1111 1980 m 1,34,-1
 1291 1895 l 1,35,-1
 1134 1570 l 1,36,-1
 1124 1570 l 1,37,-1
 946 1654 l 1,38,-1
 1101 1980 l 1,39,-1
 1111 1980 l 1,34,-1
EndSplineSet
Validated: 19457
EndChar

StartChar: wacute
Encoding: 7811 7811 189
Width: 1880
Flags: W
HStem: -20 140<475.316 755.498 1124.5 1404.68> 1100 20G<387.971 440 1037.97 1090 1687.97 1740>
VStem: 140 300<166.171 982> 790 300<153.822 982> 1440 300<166.171 982>
DStem2: 766 1244 954 1160 0.429396 0.903116<4.86464 360.972>
CounterMasks: 1 38
LayerCount: 2
Fore
SplineSet
615 -20 m 0,0,1
 426 -20 426 -20 283 67 c 128,-1,2
 140 154 140 154 140 340 c 2,3,-1
 140 982 l 1,4,-1
 430 1120 l 1,5,-1
 440 1120 l 1,6,-1
 440 242 l 2,7,8
 440 179 440 179 480 153 c 0,9,10
 531 120 531 120 615 120 c 128,-1,11
 699 120 699 120 750 153 c 0,12,13
 790 179 790 179 790 242 c 2,14,-1
 790 982 l 1,15,-1
 1080 1120 l 1,16,-1
 1090 1120 l 1,17,-1
 1090 242 l 2,18,19
 1090 179 1090 179 1130 153 c 0,20,21
 1181 120 1181 120 1265 120 c 128,-1,22
 1349 120 1349 120 1400 153 c 0,23,24
 1440 179 1440 179 1440 242 c 2,25,-1
 1440 982 l 1,26,-1
 1730 1120 l 1,27,-1
 1740 1120 l 1,28,-1
 1740 340 l 2,29,30
 1740 154 1740 154 1597 67 c 128,-1,31
 1454 -20 1454 -20 1265 -20 c 0,32,33
 1081 -20 1081 -20 940 63 c 1,34,35
 799 -20 799 -20 615 -20 c 0,0,1
931 1570 m 1,36,-1
 1111 1485 l 1,37,-1
 954 1160 l 1,38,-1
 944 1160 l 1,39,-1
 766 1244 l 1,40,-1
 921 1570 l 1,41,-1
 931 1570 l 1,36,-1
EndSplineSet
Validated: 19457
EndChar

StartChar: Wdieresis
Encoding: 7812 7812 190
Width: 2220
Flags: W
HStem: -20 150<514.654 896.921 1322.43 1705.19> 1510 20G<407.823 460 1217.82 1270 2027.82 2080> 1620 297<821.833 1025.65 1159.83 1364.17>
VStem: 140 320<210.484 1383> 778 292<1665.38 1871.62> 950 320<179.938 1383> 1116 292<1665.38 1871.62> 1760 320<210.484 1383>
LayerCount: 2
Fore
SplineSet
706 -20 m 128,-1,1
 476 -20 476 -20 308 82 c 128,-1,2
 140 184 140 184 140 411 c 2,3,-1
 140 1383 l 1,4,-1
 450 1530 l 1,5,-1
 460 1530 l 1,6,-1
 460 295 l 2,7,8
 460 203 460 203 518 171 c 0,9,10
 593 130 593 130 705 130 c 128,-1,11
 817 130 817 130 892 171 c 0,12,13
 950 203 950 203 950 295 c 2,14,-1
 950 1383 l 1,15,-1
 1260 1530 l 1,16,-1
 1270 1530 l 1,17,-1
 1270 295 l 2,18,19
 1270 203 1270 203 1328 171 c 0,20,21
 1403 130 1403 130 1515 130 c 128,-1,22
 1627 130 1627 130 1702 171 c 0,23,24
 1760 203 1760 203 1760 295 c 2,25,-1
 1760 1383 l 1,26,-1
 2070 1530 l 1,27,-1
 2080 1530 l 1,28,-1
 2080 411 l 2,29,30
 2080 184 2080 184 1912 82 c 128,-1,31
 1744 -20 1744 -20 1513 -20 c 128,-1,32
 1282 -20 1282 -20 1110 87 c 1,33,0
 936 -20 936 -20 706 -20 c 128,-1,1
1262.5 1917 m 128,-1,35
 1323 1917 1323 1917 1365.5 1873 c 128,-1,36
 1408 1829 1408 1829 1408 1768.5 c 128,-1,37
 1408 1708 1408 1708 1365.5 1664 c 128,-1,38
 1323 1620 1323 1620 1262 1620 c 128,-1,39
 1201 1620 1201 1620 1158.5 1664 c 128,-1,40
 1116 1708 1116 1708 1116 1768 c 0,41,42
 1116 1829 1116 1829 1159 1872 c 0,43,34
 1202 1917 1202 1917 1262.5 1917 c 128,-1,35
923.5 1917 m 128,-1,45
 984 1917 984 1917 1027 1873 c 128,-1,46
 1070 1829 1070 1829 1070 1768.5 c 128,-1,47
 1070 1708 1070 1708 1027 1664 c 128,-1,48
 984 1620 984 1620 924 1620 c 0,49,50
 863 1620 863 1620 820.5 1664 c 128,-1,51
 778 1708 778 1708 778 1768 c 0,52,53
 778 1829 778 1829 820 1872 c 0,54,44
 863 1917 863 1917 923.5 1917 c 128,-1,45
EndSplineSet
Validated: 19457
EndChar

StartChar: wdieresis
Encoding: 7813 7813 191
Width: 1880
Flags: W
HStem: -20 140<475.316 755.498 1124.5 1404.68> 1100 20G<387.971 440 1037.97 1090 1687.97 1740> 1210 297<657.833 861.652 995.833 1200.17>
VStem: 140 300<166.171 982> 614 292<1255.38 1461.62> 790 300<153.822 982> 952 292<1255.38 1461.62> 1440 300<166.171 982>
LayerCount: 2
Fore
SplineSet
615 -20 m 0,0,1
 426 -20 426 -20 283 67 c 128,-1,2
 140 154 140 154 140 340 c 2,3,-1
 140 982 l 1,4,-1
 430 1120 l 1,5,-1
 440 1120 l 1,6,-1
 440 242 l 2,7,8
 440 179 440 179 480 153 c 0,9,10
 531 120 531 120 615 120 c 128,-1,11
 699 120 699 120 750 153 c 0,12,13
 790 179 790 179 790 242 c 2,14,-1
 790 982 l 1,15,-1
 1080 1120 l 1,16,-1
 1090 1120 l 1,17,-1
 1090 242 l 2,18,19
 1090 179 1090 179 1130 153 c 0,20,21
 1181 120 1181 120 1265 120 c 128,-1,22
 1349 120 1349 120 1400 153 c 0,23,24
 1440 179 1440 179 1440 242 c 2,25,-1
 1440 982 l 1,26,-1
 1730 1120 l 1,27,-1
 1740 1120 l 1,28,-1
 1740 340 l 2,29,30
 1740 154 1740 154 1597 67 c 128,-1,31
 1454 -20 1454 -20 1265 -20 c 0,32,33
 1081 -20 1081 -20 940 63 c 1,34,35
 799 -20 799 -20 615 -20 c 0,0,1
1098.5 1507 m 128,-1,37
 1159 1507 1159 1507 1201.5 1463 c 128,-1,38
 1244 1419 1244 1419 1244 1358.5 c 128,-1,39
 1244 1298 1244 1298 1201.5 1254 c 128,-1,40
 1159 1210 1159 1210 1098 1210 c 128,-1,41
 1037 1210 1037 1210 994.5 1254 c 128,-1,42
 952 1298 952 1298 952 1358 c 0,43,44
 952 1419 952 1419 995 1462 c 0,45,36
 1038 1507 1038 1507 1098.5 1507 c 128,-1,37
759.5 1507 m 128,-1,47
 820 1507 820 1507 863 1463 c 128,-1,48
 906 1419 906 1419 906 1358.5 c 128,-1,49
 906 1298 906 1298 863 1254 c 128,-1,50
 820 1210 820 1210 760 1210 c 0,51,52
 699 1210 699 1210 656.5 1254 c 128,-1,53
 614 1298 614 1298 614 1358 c 0,54,55
 614 1419 614 1419 656 1462 c 0,56,46
 699 1507 699 1507 759.5 1507 c 128,-1,47
EndSplineSet
Validated: 19457
EndChar

StartChar: Ygrave
Encoding: 7922 7922 192
Width: 1270
Flags: W
HStem: -20 21G<475 527.177> 1510 20G<347.823 400 1137.82 1190>
VStem: 80 320<613.484 1383> 475 320<127 407.402> 870 320<613.484 1383>
DStem2: 688 1980 498 1895 0.429396 -0.903116<0 356.108>
CounterMasks: 1 38
LayerCount: 2
Fore
SplineSet
485 -20 m 1,0,-1
 475 -20 l 1,1,-1
 475 398 l 1,2,3
 352 422 352 422 248 485 c 0,4,5
 80 587 80 587 80 814 c 2,6,-1
 80 1383 l 1,7,-1
 390 1530 l 1,8,-1
 400 1530 l 1,9,-1
 400 698 l 2,10,11
 400 606 400 606 458 574 c 0,12,13
 533 533 533 533 635 533 c 128,-1,14
 737 533 737 533 812 574 c 0,15,16
 870 606 870 606 870 698 c 2,17,-1
 870 1383 l 1,18,-1
 1180 1530 l 1,19,-1
 1190 1530 l 1,20,-1
 1190 814 l 2,21,22
 1190 587 1190 587 1022 485 c 0,23,24
 918 422 918 422 795 398 c 1,25,-1
 795 127 l 1,26,-1
 485 -20 l 1,0,-1
678 1980 m 1,27,-1
 688 1980 l 1,28,-1
 843 1654 l 1,29,-1
 665 1570 l 1,30,-1
 655 1570 l 1,31,-1
 498 1895 l 1,32,-1
 678 1980 l 1,27,-1
EndSplineSet
Validated: 19457
EndChar

StartChar: ygrave
Encoding: 7923 7923 193
Width: 1250
Flags: W
HStem: -410 140<342 748.396> -20 140<475.316 755.512> 1100 20G<387.971 440 1037.97 1090>
VStem: 140 300<166.171 982> 790 300<-223.829 11 153.822 982>
DStem2: 649 1570 459 1485 0.429396 -0.903116<0 356.108>
LayerCount: 2
Fore
SplineSet
280 -410 m 1,0,-1
 280 -400 l 1,1,-1
 342 -270 l 1,2,-1
 604 -270 l 2,3,4
 699 -270 699 -270 750 -237 c 0,5,6
 790 -211 790 -211 790 -148 c 2,7,-1
 790 11 l 1,8,9
 712 -20 712 -20 615 -20 c 0,10,11
 426 -20 426 -20 283 67 c 128,-1,12
 140 154 140 154 140 340 c 2,13,-1
 140 982 l 1,14,-1
 430 1120 l 1,15,-1
 440 1120 l 1,16,-1
 440 242 l 2,17,18
 440 179 440 179 480 153 c 0,19,20
 531 120 531 120 615 120 c 128,-1,21
 699 120 699 120 750 153 c 0,22,23
 790 179 790 179 790 242 c 2,24,-1
 790 982 l 1,25,-1
 1080 1120 l 1,26,-1
 1090 1120 l 1,27,-1
 1090 -50 l 2,28,29
 1090 -236 1090 -236 947 -323 c 128,-1,30
 804 -410 804 -410 615 -410 c 2,31,-1
 280 -410 l 1,0,-1
639 1570 m 1,32,-1
 649 1570 l 1,33,-1
 804 1244 l 1,34,-1
 626 1160 l 1,35,-1
 616 1160 l 1,36,-1
 459 1485 l 1,37,-1
 639 1570 l 1,32,-1
EndSplineSet
Validated: 19457
EndChar

StartChar: AE
Encoding: 198 198 194
Width: 1728
Flags: W
HStem: -20 21G<140 192.177> 0 150<1108 1651> 680 150<460 788 1108 1601> 1360 150<1108 1601> 1380 150<514.495 787.143>
VStem: 140 320<127 680 830 1299.52> 788 320<150 680 830 1360>
LayerCount: 2
Fore
SplineSet
1651 0 m 1,0,-1
 788 0 l 1,1,-1
 788 680 l 1,2,-1
 460 680 l 1,3,-1
 460 127 l 1,4,-1
 150 -20 l 1,5,-1
 140 -20 l 1,6,-1
 140 1099 l 2,7,8
 140 1326 140 1326 308 1428 c 128,-1,9
 476 1530 476 1530 705 1530 c 0,10,11
 810 1530 810 1530 898 1510 c 1,12,-1
 1668 1510 l 1,13,-1
 1668 1500 l 1,14,-1
 1601 1360 l 1,15,-1
 1108 1360 l 1,16,-1
 1108 830 l 1,17,-1
 1668 830 l 1,18,-1
 1668 820 l 1,19,-1
 1601 680 l 1,20,-1
 1108 680 l 1,21,-1
 1108 150 l 1,22,-1
 1718 150 l 1,23,-1
 1718 140 l 1,24,-1
 1651 0 l 1,0,-1
788 1374 m 1,25,26
 749 1380 749 1380 705 1380 c 0,27,28
 593 1380 593 1380 518 1339 c 0,29,30
 460 1307 460 1307 460 1215 c 2,31,-1
 460 830 l 1,32,-1
 788 830 l 1,33,-1
 788 1374 l 1,25,26
EndSplineSet
Validated: 19457
EndChar

StartChar: Eth
Encoding: 208 208 195
Width: 1390
Flags: W
HStem: 0 150<480 887.31> 680 150<67 160 480 738> 1360 150<480 887.31>
VStem: 160 320<150 680 830 1360> 940 330<230.484 1279.52>
CounterMasks: 1 e0
LayerCount: 2
Fore
SplineSet
805 830 m 1,0,-1
 805 820 l 1,1,-1
 738 680 l 1,2,-1
 480 680 l 1,3,-1
 480 150 l 1,4,-1
 695 150 l 2,5,6
 808 150 808 150 882 191 c 0,7,8
 940 223 940 223 940 315 c 2,9,-1
 940 1195 l 2,10,11
 940 1287 940 1287 882 1319 c 0,12,13
 807 1360 807 1360 695 1360 c 2,14,-1
 480 1360 l 1,15,-1
 480 830 l 1,16,-1
 805 830 l 1,0,-1
160 0 m 1,17,-1
 160 680 l 1,18,-1
 0 680 l 1,19,-1
 0 690 l 1,20,-1
 67 830 l 1,21,-1
 160 830 l 1,22,-1
 160 1383 l 1,23,-1
 428 1510 l 1,24,-1
 705 1510 l 2,25,26
 934 1510 934 1510 1102 1408 c 128,-1,27
 1270 1306 1270 1306 1270 1079 c 2,28,-1
 1270 431 l 2,29,30
 1270 204 1270 204 1102 102 c 128,-1,31
 934 0 934 0 705 0 c 2,32,-1
 160 0 l 1,17,-1
EndSplineSet
Validated: 19457
EndChar

StartChar: Dcroat
Encoding: 272 272 196
Width: 1390
Flags: W
HStem: 0 150<480 887.31> 680 150<67 160 480 738> 1360 150<480 887.31>
VStem: 160 320<150 680 830 1360> 940 330<230.484 1279.52>
CounterMasks: 1 e0
LayerCount: 2
Fore
SplineSet
805 830 m 1,0,-1
 805 820 l 1,1,-1
 738 680 l 1,2,-1
 480 680 l 1,3,-1
 480 150 l 1,4,-1
 695 150 l 2,5,6
 808 150 808 150 882 191 c 0,7,8
 940 223 940 223 940 315 c 2,9,-1
 940 1195 l 2,10,11
 940 1287 940 1287 882 1319 c 0,12,13
 807 1360 807 1360 695 1360 c 2,14,-1
 480 1360 l 1,15,-1
 480 830 l 1,16,-1
 805 830 l 1,0,-1
160 0 m 1,17,-1
 160 680 l 1,18,-1
 0 680 l 1,19,-1
 0 690 l 1,20,-1
 67 830 l 1,21,-1
 160 830 l 1,22,-1
 160 1383 l 1,23,-1
 428 1510 l 1,24,-1
 705 1510 l 2,25,26
 934 1510 934 1510 1102 1408 c 128,-1,27
 1270 1306 1270 1306 1270 1079 c 2,28,-1
 1270 431 l 2,29,30
 1270 204 1270 204 1102 102 c 128,-1,31
 934 0 934 0 705 0 c 2,32,-1
 160 0 l 1,17,-1
EndSplineSet
Validated: 19457
EndChar

StartChar: Hbar
Encoding: 294 294 197
Width: 1440
Flags: W
HStem: -20 21G<160 212.177 960 1012.18> 680 150<480 960> 1212 150<97 160 480 960 1280 1343> 1510 20G<427.823 480 1227.82 1280>
VStem: 160 320<127 680 830 1212 1362 1383> 960 320<127 680 830 1212 1362 1383>
LayerCount: 2
Fore
SplineSet
170 -20 m 1,0,-1
 160 -20 l 1,1,-1
 160 1212 l 1,2,-1
 30 1212 l 1,3,-1
 30 1222 l 1,4,-1
 97 1362 l 1,5,-1
 160 1362 l 1,6,-1
 160 1383 l 1,7,-1
 470 1530 l 1,8,-1
 480 1530 l 1,9,-1
 480 1362 l 1,10,-1
 960 1362 l 1,11,-1
 960 1383 l 1,12,-1
 1270 1530 l 1,13,-1
 1280 1530 l 1,14,-1
 1280 1362 l 1,15,-1
 1410 1362 l 1,16,-1
 1410 1352 l 1,17,-1
 1343 1212 l 1,18,-1
 1280 1212 l 1,19,-1
 1280 127 l 1,20,-1
 970 -20 l 1,21,-1
 960 -20 l 1,22,-1
 960 680 l 1,23,-1
 480 680 l 1,24,-1
 480 127 l 1,25,-1
 170 -20 l 1,0,-1
480 1212 m 1,26,-1
 480 830 l 1,27,-1
 960 830 l 1,28,-1
 960 1212 l 1,29,-1
 480 1212 l 1,26,-1
EndSplineSet
Validated: 19457
EndChar

StartChar: IJ
Encoding: 306 306 198
Width: 1831
Flags: W
HStem: -20 150<1029.9 1338.35> 1360 150<813 1391> 1510 20G<427.823 480>
VStem: 160 320<127 1383> 641 335<212.319 395.749> 1391 320<210.484 1360>
LayerCount: 2
Fore
SplineSet
976 295 m 2,0,1
 976 203 976 203 1034 171 c 0,2,3
 1109 130 1109 130 1183.5 130 c 128,-1,4
 1258 130 1258 130 1333 171 c 0,5,6
 1391 203 1391 203 1391 295 c 2,7,-1
 1391 1360 l 1,8,-1
 746 1360 l 1,9,-1
 746 1370 l 1,10,-1
 813 1510 l 1,11,-1
 1711 1510 l 1,12,-1
 1711 411 l 2,13,14
 1711 184 1711 184 1543 82 c 128,-1,15
 1375 -20 1375 -20 1176 -20 c 128,-1,16
 977 -20 977 -20 809 82 c 0,17,18
 652 177 652 177 641 389 c 1,19,-1
 966 542 l 1,20,-1
 976 542 l 1,21,-1
 976 295 l 2,0,1
170 -20 m 1,22,-1
 160 -20 l 1,23,-1
 160 1383 l 1,24,-1
 470 1530 l 1,25,-1
 480 1530 l 1,26,-1
 480 127 l 1,27,-1
 170 -20 l 1,22,-1
EndSplineSet
Validated: 19457
EndChar

StartChar: lslash
Encoding: 322 322 199
Width: 766
Flags: W
HStem: -20 21G<233 285.029> 1510 20G<480.971 533>
VStem: 233 300<118 629 926 1392>
DStem2: 50 701 54 546 0.906672 0.421835<0 135.549 532.836 668.385>
LayerCount: 2
Fore
SplineSet
243 -20 m 1,0,-1
 233 -20 l 1,1,-1
 233 629 l 1,2,-1
 54 546 l 1,3,-1
 50 555 l 1,4,-1
 50 701 l 1,5,-1
 233 786 l 1,6,-1
 233 1392 l 1,7,-1
 523 1530 l 1,8,-1
 533 1530 l 1,9,-1
 533 926 l 1,10,-1
 712 1009 l 1,11,-1
 716 1000 l 1,12,-1
 716 854 l 1,13,-1
 533 769 l 1,14,-1
 533 118 l 1,15,-1
 243 -20 l 1,0,-1
EndSplineSet
Validated: 1
EndChar

StartChar: Lslash
Encoding: 321 321 200
Width: 1100
Flags: W
HStem: 0 150<480 1023> 1510 20G<427.534 480>
VStem: 160 320<150 573 887 1384>
DStem2: 80 701 160 573 0.906672 0.421835<0 18.5388 441.13 665.01>
LayerCount: 2
Fore
SplineSet
160 0 m 1,0,-1
 160 573 l 1,1,-1
 84 538 l 1,2,-1
 80 547 l 1,3,-1
 80 701 l 1,4,-1
 160 738 l 1,5,-1
 160 1384 l 1,6,-1
 470 1530 l 1,7,-1
 480 1530 l 1,8,-1
 480 887 l 1,9,-1
 742 1009 l 1,10,-1
 746 1000 l 1,11,-1
 746 846 l 1,12,-1
 480 722 l 1,13,-1
 480 150 l 1,14,-1
 1090 150 l 1,15,-1
 1090 140 l 1,16,-1
 1023 0 l 1,17,-1
 160 0 l 1,0,-1
EndSplineSet
Validated: 19457
EndChar

StartChar: Eng
Encoding: 330 330 201
Width: 1410
Flags: W
HStem: -410 21G<646 819.5> -20 21G<140 192.177> 1380 150<514.495 895.505>
VStem: 140 320<127 1299.52> 950 320<-179.516 1299.52>
LayerCount: 2
Fore
SplineSet
150 -20 m 1,0,-1
 140 -20 l 1,1,-1
 140 1099 l 2,2,3
 140 1326 140 1326 308 1428 c 128,-1,4
 476 1530 476 1530 705 1530 c 128,-1,5
 934 1530 934 1530 1102 1428 c 128,-1,6
 1270 1326 1270 1326 1270 1099 c 2,7,-1
 1270 21 l 2,8,9
 1270 -206 1270 -206 1102 -308 c 128,-1,10
 934 -410 934 -410 705 -410 c 2,11,-1
 646 -410 l 1,12,-1
 646 -400 l 1,13,-1
 711 -264 l 1,14,15
 831 -253 831 -253 892 -219 c 0,16,17
 950 -187 950 -187 950 -95 c 2,18,-1
 950 1215 l 2,19,20
 950 1307 950 1307 892 1339 c 0,21,22
 817 1380 817 1380 705 1380 c 128,-1,23
 593 1380 593 1380 518 1339 c 0,24,25
 460 1307 460 1307 460 1215 c 2,26,-1
 460 127 l 1,27,-1
 150 -20 l 1,0,-1
EndSplineSet
Validated: 19457
EndChar

StartChar: OE
Encoding: 338 338 202
Width: 1714
Flags: W
HStem: -20 150<494.495 773.169> 0 150<1094 1637> 680 150<1094 1587> 1360 150<1094 1587> 1380 150<494.495 771.975>
VStem: 120 320<210.484 1299.52> 774 320<150 680 830 1360>
LayerCount: 2
Fore
SplineSet
1637 0 m 1,0,-1
 878 0 l 1,1,2
 790 -20 790 -20 685 -20 c 0,3,4
 456 -20 456 -20 288 82 c 128,-1,5
 120 184 120 184 120 411 c 2,6,-1
 120 1099 l 2,7,8
 120 1326 120 1326 288 1428 c 128,-1,9
 456 1530 456 1530 685 1530 c 0,10,11
 791 1530 791 1530 879 1510 c 1,12,-1
 1654 1510 l 1,13,-1
 1654 1500 l 1,14,-1
 1587 1360 l 1,15,-1
 1094 1360 l 1,16,-1
 1094 830 l 1,17,-1
 1654 830 l 1,18,-1
 1654 820 l 1,19,-1
 1587 680 l 1,20,-1
 1094 680 l 1,21,-1
 1094 150 l 1,22,-1
 1704 150 l 1,23,-1
 1704 140 l 1,24,-1
 1637 0 l 1,0,-1
774 1373 m 1,25,26
 733 1380 733 1380 685 1380 c 0,27,28
 573 1380 573 1380 498 1339 c 0,29,30
 440 1307 440 1307 440 1215 c 2,31,-1
 440 295 l 2,32,33
 440 203 440 203 498 171 c 0,34,35
 573 130 573 130 685 130 c 0,36,37
 733 130 733 130 774 137 c 1,38,-1
 774 1373 l 1,25,26
EndSplineSet
Validated: 19457
EndChar

StartChar: Thorn
Encoding: 222 222 203
Width: 1270
Flags: W
HStem: -20 21G<160 212.177> 220 150<480 857.31> 1140 150<480 857.31> 1510 20G<427.823 480>
VStem: 160 320<127 220 370 1140 1290 1383> 910 330<450.484 1059.52>
LayerCount: 2
Fore
SplineSet
480 1140 m 1,0,-1
 480 370 l 1,1,-1
 665 370 l 2,2,3
 778 370 778 370 852 411 c 0,4,5
 910 443 910 443 910 535 c 2,6,-1
 910 975 l 2,7,8
 910 1067 910 1067 852 1099 c 0,9,10
 777 1140 777 1140 665 1140 c 2,11,-1
 480 1140 l 1,0,-1
170 -20 m 1,12,-1
 160 -20 l 1,13,-1
 160 1383 l 1,14,-1
 470 1530 l 1,15,-1
 480 1530 l 1,16,-1
 480 1290 l 1,17,-1
 675 1290 l 2,18,19
 904 1290 904 1290 1072 1188 c 128,-1,20
 1240 1086 1240 1086 1240 859 c 2,21,-1
 1240 651 l 2,22,23
 1240 424 1240 424 1072 322 c 128,-1,24
 904 220 904 220 675 220 c 2,25,-1
 480 220 l 1,26,-1
 480 127 l 1,27,-1
 170 -20 l 1,12,-1
EndSplineSet
Validated: 19457
EndChar

StartChar: Tbar
Encoding: 358 358 204
Width: 1190
Flags: W
HStem: -20 21G<435 487.466> 431 150<307 435 755 883> 1360 150<77 435 755 1113>
VStem: 435 320<126 431 581 1360>
LayerCount: 2
Fore
SplineSet
445 -20 m 1,0,-1
 435 -20 l 1,1,-1
 435 431 l 1,2,-1
 240 431 l 1,3,-1
 240 441 l 1,4,-1
 307 581 l 1,5,-1
 435 581 l 1,6,-1
 435 1360 l 1,7,-1
 10 1360 l 1,8,-1
 10 1370 l 1,9,-1
 77 1510 l 1,10,-1
 1180 1510 l 1,11,-1
 1180 1500 l 1,12,-1
 1113 1360 l 1,13,-1
 755 1360 l 1,14,-1
 755 581 l 1,15,-1
 950 581 l 1,16,-1
 950 571 l 1,17,-1
 883 431 l 1,18,-1
 755 431 l 1,19,-1
 755 126 l 1,20,-1
 445 -20 l 1,0,-1
EndSplineSet
Validated: 1
EndChar

StartChar: tbar
Encoding: 359 359 205
Width: 890
Flags: W
HStem: -20 21G<300 351.985> 436 140<157 300 585 733> 960 140<72 300 585 818> 1510 20G<533.015 585>
VStem: 300 285<111 436 576 960 1100 1399>
LayerCount: 2
Fore
SplineSet
310 -20 m 1,0,-1
 300 -20 l 1,1,-1
 300 436 l 1,2,-1
 95 436 l 1,3,-1
 95 446 l 1,4,-1
 157 576 l 1,5,-1
 300 576 l 1,6,-1
 300 960 l 1,7,-1
 10 960 l 1,8,-1
 10 970 l 1,9,-1
 72 1100 l 1,10,-1
 300 1100 l 1,11,-1
 300 1399 l 1,12,-1
 575 1530 l 1,13,-1
 585 1530 l 1,14,-1
 585 1100 l 1,15,-1
 880 1100 l 1,16,-1
 880 1090 l 1,17,-1
 818 960 l 1,18,-1
 585 960 l 1,19,-1
 585 576 l 1,20,-1
 795 576 l 1,21,-1
 795 566 l 1,22,-1
 733 436 l 1,23,-1
 585 436 l 1,24,-1
 585 111 l 1,25,-1
 310 -20 l 1,0,-1
EndSplineSet
Validated: 1
EndChar

StartChar: thorn
Encoding: 254 254 206
Width: 1230
Flags: W
HStem: -430 21G<160 212.029> -20 140<494.772 764.34> 980 140<494.772 764.34> 1510 20G<407.971 460>
VStem: 160 300<-292 11 153.822 946.178 1089 1392> 800 310<166.171 933.829>
LayerCount: 2
Fore
SplineSet
630 980 m 128,-1,1
 551 980 551 980 500 947 c 0,2,3
 460 921 460 921 460 858 c 2,4,-1
 460 242 l 2,5,6
 460 179 460 179 500 153 c 0,7,8
 551 120 551 120 630 120 c 128,-1,9
 709 120 709 120 760 153 c 0,10,11
 800 179 800 179 800 242 c 2,12,-1
 800 858 l 2,13,14
 800 921 800 921 760 947 c 0,15,0
 709 980 709 980 630 980 c 128,-1,1
170 -430 m 1,16,-1
 160 -430 l 1,17,-1
 160 1392 l 17,18,-1
 450 1530 l 1,19,-1
 460 1530 l 1,20,-1
 460 1089 l 1,21,22
 540 1120 540 1120 635 1120 c 0,23,24
 824 1120 824 1120 967 1033 c 128,-1,25
 1110 946 1110 946 1110 760 c 2,26,-1
 1110 340 l 2,27,28
 1110 154 1110 154 967 67 c 128,-1,29
 824 -20 824 -20 635 -20 c 0,30,31
 540 -20 540 -20 460 11 c 1,32,-1
 460 -292 l 1,33,-1
 170 -430 l 1,16,-1
EndSplineSet
Validated: 19457
EndChar

StartChar: eth
Encoding: 240 240 207
Width: 1190
Flags: W
HStem: -20 140<465.659 724.341> 980 131<471.599 641.086> 1510 20G<470.955 540.172 777.97 825>
VStem: 120 310<166.171 932.838> 760 310<166.171 935.949>
DStem2: 314 1294 318 1139 0.906594 0.422004<0 118.106 366.357 497.452>
LayerCount: 2
Fore
SplineSet
595 120 m 128,-1,1
 669 120 669 120 720 153 c 0,2,3
 760 179 760 179 760 242 c 2,4,-1
 760 858 l 2,5,6
 760 921 760 921 720 947 c 0,7,8
 669 980 669 980 595 980 c 128,-1,9
 521 980 521 980 470 947 c 0,10,11
 430 921 430 921 430 858 c 2,12,-1
 430 242 l 2,13,14
 430 179 430 179 470 153 c 0,15,0
 521 120 521 120 595 120 c 128,-1,1
595 -20 m 128,-1,17
 406 -20 406 -20 263 67 c 128,-1,18
 120 154 120 154 120 340 c 2,19,-1
 120 760 l 2,20,21
 120 944 120 944 263 1033 c 0,22,23
 387 1111 387 1111 595 1111 c 2,24,-1
 643 1111 l 1,25,-1
 525 1236 l 1,26,-1
 318 1139 l 1,27,-1
 314 1148 l 1,28,-1
 314 1294 l 1,29,-1
 421 1344 l 1,30,-1
 328 1442 l 1,31,-1
 513 1530 l 1,32,-1
 523 1530 l 1,33,-1
 608 1431 l 1,34,-1
 821 1530 l 1,35,-1
 825 1521 l 1,36,-1
 825 1375 l 1,37,-1
 706 1320 l 1,38,-1
 979 1002 l 2,39,40
 1070 896 1070 896 1070 760 c 2,41,-1
 1070 340 l 2,42,43
 1070 154 1070 154 927 67 c 128,-1,16
 784 -20 784 -20 595 -20 c 128,-1,17
EndSplineSet
Validated: 19457
EndChar

StartChar: oe
Encoding: 339 339 208
Width: 1777
Flags: W
HStem: -20 140<465.659 725.126 1065.15 1305.73> 980 140<465.659 725.126 1064.35 1310.83>
VStem: 120 310<166.171 933.829> 760 310<200.911 364 539 900.058> 1342 315<166.171 320 670 933.829>
DStem2: 1070 539 1070 364 0.904364 0.426761<0 306.415>
LayerCount: 2
Fore
SplineSet
595 120 m 128,-1,1
 669 120 669 120 720 153 c 0,2,3
 760 179 760 179 760 242 c 2,4,-1
 760 858 l 2,5,6
 760 921 760 921 720 947 c 0,7,8
 669 980 669 980 595 980 c 128,-1,9
 521 980 521 980 470 947 c 0,10,11
 430 921 430 921 430 858 c 2,12,-1
 430 242 l 2,13,14
 430 179 430 179 470 153 c 0,15,0
 521 120 521 120 595 120 c 128,-1,1
595 -20 m 0,16,17
 406 -20 406 -20 263 67 c 128,-1,18
 120 154 120 154 120 340 c 2,19,-1
 120 760 l 2,20,21
 120 946 120 946 263 1033 c 128,-1,22
 406 1120 406 1120 595 1120 c 0,23,24
 765 1120 765 1120 898 1049 c 1,25,26
 1030 1120 1030 1120 1192 1120 c 0,27,28
 1371 1120 1371 1120 1514 1033 c 128,-1,29
 1657 946 1657 946 1657 760 c 2,30,-1
 1657 641 l 1,31,-1
 1070 364 l 1,32,-1
 1070 340 l 2,33,34
 1070 260 1070 260 1044 199 c 1,35,36
 1054 171 1054 171 1077 153 c 0,37,38
 1120 120 1120 120 1189.5 120 c 128,-1,39
 1259 120 1259 120 1302 153 c 0,40,41
 1342 184 1342 184 1342 242 c 2,42,-1
 1342 320 l 1,43,-1
 1647 465 l 1,44,-1
 1657 465 l 1,45,-1
 1657 340 l 2,46,47
 1657 154 1657 154 1514 67 c 128,-1,48
 1371 -20 1371 -20 1192 -20 c 0,49,50
 1031 -20 1031 -20 898 51 c 1,51,52
 765 -20 765 -20 595 -20 c 0,16,17
1070 539 m 1,53,-1
 1347 670 l 1,54,-1
 1347 858 l 2,55,56
 1345 918 1345 918 1307 947 c 0,57,58
 1264 980 1264 980 1192 980 c 0,59,60
 1121 980 1121 980 1077 947 c 0,61,62
 1053 930 1053 930 1043 902 c 1,63,64
 1070 840 1070 840 1070 760 c 2,65,-1
 1070 539 l 1,53,-1
EndSplineSet
Validated: 19457
EndChar

StartChar: eng
Encoding: 331 331 209
Width: 1230
Flags: W
HStem: -410 21G<555 709.5> -20 21G<140 192.029> 980 140<475.316 754.684>
VStem: 140 300<118 933.829> 790 300<-223.829 933.829>
LayerCount: 2
Fore
SplineSet
150 -20 m 1,0,-1
 140 -20 l 1,1,-1
 140 760 l 2,2,3
 140 946 140 946 283 1033 c 128,-1,4
 426 1120 426 1120 615 1120 c 128,-1,5
 804 1120 804 1120 947 1033 c 128,-1,6
 1090 946 1090 946 1090 760 c 2,7,-1
 1090 -50 l 2,8,9
 1090 -236 1090 -236 947 -323 c 128,-1,10
 804 -410 804 -410 615 -410 c 2,11,-1
 555 -410 l 1,12,-1
 555 -400 l 1,13,-1
 615 -275 l 1,14,15
 707 -265 707 -265 750 -237 c 0,16,17
 790 -211 790 -211 790 -148 c 2,18,-1
 790 858 l 2,19,20
 790 921 790 921 750 947 c 0,21,22
 699 980 699 980 615 980 c 128,-1,23
 531 980 531 980 480 947 c 0,24,25
 440 921 440 921 440 858 c 2,26,-1
 440 118 l 1,27,-1
 150 -20 l 1,0,-1
EndSplineSet
Validated: 19457
EndChar

StartChar: kgreenlandic
Encoding: 312 312 210
Width: 1210
Flags: W
HStem: -20 21G<160 212.029 790 842.029> 1100 20G<407.971 460 902.4 986.319>
VStem: 160 300<118 665.178 820 982> 790 300<118 652.829>
DStem2: 460 820 716 817 0.84498 0.534798<214.711 560.96>
LayerCount: 2
Fore
SplineSet
170 -20 m 1,0,-1
 160 -20 l 1,1,-1
 160 982 l 1,2,-1
 450 1120 l 1,3,-1
 460 1120 l 1,4,-1
 460 820 l 1,5,-1
 934 1120 l 1,6,-1
 944 1120 l 1,7,-1
 1090 1051 l 1,8,-1
 716 817 l 1,9,10
 854 808 854 808 947 752 c 0,11,12
 1090 665 1090 665 1090 479 c 2,13,-1
 1090 118 l 1,14,-1
 800 -20 l 1,15,-1
 790 -20 l 1,16,-1
 790 577 l 2,17,18
 790 640 790 640 750 666 c 0,19,20
 699 699 699 699 625 699 c 128,-1,21
 551 699 551 699 500 666 c 0,22,23
 460 640 460 640 460 577 c 2,24,-1
 460 118 l 1,25,-1
 170 -20 l 1,0,-1
EndSplineSet
Validated: 19457
EndChar

StartChar: ij
Encoding: 307 307 211
Width: 1220
Flags: W
HStem: -410 21G<525 679.5> -20 21G<160 212.029> 1100 20G<407.971 460 1007.97 1060> 1180 364<192.131 426.338 792.131 1026.34>
VStem: 130 360<1244.3 1481.73> 160 300<118 982> 730 360<1244.3 1481.73> 760 300<-221.025 982>
LayerCount: 2
Fore
SplineSet
525 -410 m 1,0,-1
 525 -400 l 1,1,-1
 587 -270 l 1,2,3
 675 -260 675 -260 720 -222 c 0,4,5
 760 -191 760 -191 760 -133 c 2,6,-1
 760 982 l 1,7,-1
 1050 1120 l 1,8,-1
 1060 1120 l 1,9,-1
 1060 -50 l 2,10,11
 1060 -236 1060 -236 917 -323 c 128,-1,12
 774 -410 774 -410 585 -410 c 2,13,-1
 525 -410 l 1,0,-1
910 1544 m 0,14,15
 986 1544 986 1544 1038 1491 c 128,-1,16
 1090 1438 1090 1438 1090 1363 c 0,17,18
 1090 1289 1090 1289 1037 1234 c 0,19,20
 985 1180 985 1180 910 1180 c 0,21,22
 833 1180 833 1180 781.5 1234 c 128,-1,23
 730 1288 730 1288 730 1362 c 0,24,25
 730 1438 730 1438 782 1490 c 0,26,27
 835 1544 835 1544 910 1544 c 0,14,15
170 -20 m 1,28,-1
 160 -20 l 1,29,-1
 160 982 l 1,30,-1
 450 1120 l 1,31,-1
 460 1120 l 1,32,-1
 460 118 l 1,33,-1
 170 -20 l 1,28,-1
310 1544 m 0,34,35
 386 1544 386 1544 438 1491 c 128,-1,36
 490 1438 490 1438 490 1363 c 0,37,38
 490 1289 490 1289 437 1234 c 0,39,40
 385 1180 385 1180 310 1180 c 0,41,42
 233 1180 233 1180 181.5 1234 c 128,-1,43
 130 1288 130 1288 130 1362 c 0,44,45
 130 1438 130 1438 182 1490 c 0,46,47
 235 1544 235 1544 310 1544 c 0,34,35
EndSplineSet
Validated: 19457
EndChar

StartChar: hbar
Encoding: 295 295 212
Width: 1250
Flags: W
HStem: -20 21G<160 212.029 810 862.029> 980 140<494.539 774.684> 1217 140<92 160 460 628> 1510 20G<407.971 460>
VStem: 160 300<118 946.178 1089 1217 1357 1392> 810 300<118 933.829>
LayerCount: 2
Fore
SplineSet
170 -20 m 1,0,-1
 160 -20 l 1,1,-1
 160 1217 l 1,2,-1
 30 1217 l 1,3,-1
 30 1227 l 1,4,-1
 92 1357 l 1,5,-1
 160 1357 l 1,6,-1
 160 1392 l 1,7,-1
 450 1530 l 1,8,-1
 460 1530 l 1,9,-1
 460 1357 l 1,10,-1
 690 1357 l 1,11,-1
 690 1347 l 1,12,-1
 628 1217 l 1,13,-1
 460 1217 l 1,14,-1
 460 1089 l 1,15,16
 548 1120 548 1120 635 1120 c 0,17,18
 824 1120 824 1120 967 1033 c 128,-1,19
 1110 946 1110 946 1110 760 c 2,20,-1
 1110 118 l 1,21,-1
 820 -20 l 1,22,-1
 810 -20 l 1,23,-1
 810 858 l 2,24,25
 810 921 810 921 770 947 c 0,26,27
 719 980 719 980 635 980 c 128,-1,28
 551 980 551 980 500 947 c 0,29,30
 460 921 460 921 460 858 c 2,31,-1
 460 118 l 1,32,-1
 170 -20 l 1,0,-1
EndSplineSet
Validated: 19457
EndChar

StartChar: longs
Encoding: 383 383 213
Width: 940
Flags: W
HStem: -20 21G<220 272.029> 732 140<72 220> 1370 140<561.604 868>
VStem: 220 300<118 732 872 1323.83>
LayerCount: 2
Fore
SplineSet
230 -20 m 1,0,-1
 220 -20 l 1,1,-1
 220 732 l 1,2,-1
 10 732 l 1,3,-1
 10 742 l 1,4,-1
 72 872 l 1,5,-1
 220 872 l 1,6,-1
 220 1150 l 2,7,8
 220 1336 220 1336 363 1423 c 128,-1,9
 506 1510 506 1510 695 1510 c 2,10,-1
 930 1510 l 1,11,-1
 930 1500 l 1,12,-1
 868 1370 l 1,13,-1
 706 1370 l 2,14,15
 611 1370 611 1370 560 1337 c 0,16,17
 520 1311 520 1311 520 1248 c 2,18,-1
 520 118 l 1,19,-1
 230 -20 l 1,0,-1
EndSplineSet
Validated: 1
EndChar

StartChar: florin
Encoding: 402 402 214
Width: 880
Flags: W
HStem: -410 21G<-75 79.5> 802 140<460 769> 1370 140<501.604 808>
VStem: 160 300<-221.025 802 942 1323.83>
LayerCount: 2
Fore
SplineSet
-75 -410 m 1,0,-1
 -75 -400 l 1,1,-1
 -13 -270 l 1,2,3
 75 -260 75 -260 120 -222 c 0,4,5
 160 -191 160 -191 160 -133 c 2,6,-1
 160 1150 l 2,7,8
 160 1336 160 1336 303 1423 c 128,-1,9
 446 1510 446 1510 635 1510 c 2,10,-1
 870 1510 l 1,11,-1
 870 1500 l 1,12,-1
 808 1370 l 1,13,-1
 646 1370 l 2,14,15
 551 1370 551 1370 500 1337 c 0,16,17
 460 1311 460 1311 460 1248 c 2,18,-1
 460 942 l 1,19,-1
 831 942 l 1,20,-1
 831 932 l 1,21,-1
 769 802 l 1,22,-1
 460 802 l 1,23,-1
 460 -50 l 2,24,25
 460 -236 460 -236 317 -323 c 128,-1,26
 174 -410 174 -410 -15 -410 c 2,27,-1
 -75 -410 l 1,0,-1
EndSplineSet
Validated: 19457
EndChar

StartChar: dcroat
Encoding: 273 273 215
Width: 1210
Flags: W
HStem: -20 140<465.66 734.685> 980 140<465.66 735.228> 1217 140<602 770 1070 1108> 1510 20G<1017.97 1070>
VStem: 120 310<166.171 933.829> 770 300<166.171 946.178 1089 1217 1357 1392>
LayerCount: 2
Fore
SplineSet
595 -20 m 128,-1,1
 406 -20 406 -20 263 67 c 128,-1,2
 120 154 120 154 120 340 c 2,3,-1
 120 760 l 2,4,5
 120 946 120 946 263 1033 c 128,-1,6
 406 1120 406 1120 595 1120 c 0,7,8
 690 1120 690 1120 770 1089 c 1,9,-1
 770 1217 l 1,10,-1
 540 1217 l 1,11,-1
 540 1227 l 1,12,-1
 602 1357 l 1,13,-1
 770 1357 l 1,14,-1
 770 1392 l 1,15,-1
 1060 1530 l 1,16,-1
 1070 1530 l 1,17,-1
 1070 1357 l 1,18,-1
 1170 1357 l 1,19,-1
 1170 1347 l 1,20,-1
 1108 1217 l 1,21,-1
 1070 1217 l 1,22,-1
 1070 340 l 2,23,24
 1070 154 1070 154 927 67 c 128,-1,0
 784 -20 784 -20 595 -20 c 128,-1,1
600 120 m 128,-1,26
 679 120 679 120 730 153 c 0,27,28
 770 179 770 179 770 242 c 2,29,-1
 770 858 l 2,30,31
 770 921 770 921 730 947 c 0,32,33
 679 980 679 980 600 980 c 128,-1,34
 521 980 521 980 470 947 c 0,35,36
 430 921 430 921 430 858 c 2,37,-1
 430 242 l 2,38,39
 430 179 430 179 470 153 c 0,40,25
 521 120 521 120 600 120 c 128,-1,26
EndSplineSet
Validated: 19457
EndChar

StartChar: germandbls
Encoding: 223 223 216
Width: 1219
Flags: W
HStem: -20 140<604 827.429> 761 140<603 744.181> 1392 138<474.846 754.123>
VStem: 140 300<118 1338.67> 789 301<931.744 1343.83> 869 310<166.171 718.646>
LayerCount: 2
Fore
SplineSet
150 -20 m 1,0,-1
 140 -20 l 1,1,-1
 140 1170 l 2,2,3
 140 1348 140 1348 283 1439 c 128,-1,4
 426 1530 426 1530 615 1530 c 128,-1,5
 804 1530 804 1530 947 1443 c 128,-1,6
 1090 1356 1090 1356 1090 1170 c 2,7,-1
 1090 1034 l 2,8,9
 1090 919 1090 919 1005 843 c 1,10,11
 1179 750 1179 750 1179 550 c 2,12,-1
 1179 340 l 2,13,14
 1179 154 1179 154 1036 67 c 0,15,16
 895 -20 895 -20 704 -20 c 2,17,-1
 542 -20 l 1,18,-1
 542 -10 l 1,19,-1
 604 120 l 1,20,-1
 694 120 l 2,21,22
 779 120 779 120 829 148 c 24,23,24
 869 171 869 171 869 226 c 2,25,-1
 869 626 l 2,26,27
 869 685 869 685 818 726 c 0,28,29
 774 761 774 761 693 761 c 2,30,-1
 541 761 l 1,31,-1
 541 771 l 1,32,-1
 603 901 l 1,33,34
 688 901 688 901 746 930 c 0,35,36
 789 952 789 952 789 1007 c 2,37,-1
 789 1270 l 2,38,39
 789 1335 789 1335 749 1359 c 0,40,41
 694 1392 694 1392 614 1392 c 0,42,43
 532 1392 532 1392 479 1359 c 0,44,45
 440 1335 440 1335 440 1270 c 2,46,-1
 440 118 l 1,47,-1
 150 -20 l 1,0,-1
EndSplineSet
Validated: 19457
EndChar

StartChar: ae
Encoding: 230 230 217
Width: 1671
Flags: W
HStem: -20 140<384.133 630.559 960.512 1199.73> 574 140<384.883 630.323> 960 140<262 617.365> 980 140<959.159 1204.83>
VStem: 40 310<160.426 533.519> 665 295<153.822 362 682 880.058> 1236 315<166.171 320 670 933.829>
DStem2: 960 537 960 362 0.904298 0.426902<0 310.886>
LayerCount: 2
Fore
SplineSet
500 -20 m 0,0,1
 320 -20 320 -20 188 61 c 0,2,3
 40 151 40 151 40 328 c 2,4,-1
 40 366 l 2,5,6
 40 545 40 545 182.5 629.5 c 128,-1,7
 325 714 325 714 500 714 c 0,8,9
 598 714 598 714 659 682 c 1,10,-1
 659 838 l 2,11,12
 659 901 659 901 619 927 c 0,13,14
 567 960 567 960 473 960 c 2,15,-1
 200 960 l 1,16,-1
 200 970 l 1,17,-1
 262 1100 l 1,18,-1
 485 1100 l 2,19,20
 650 1100 650 1100 773 1039 c 1,21,22
 913 1120 913 1120 1086 1120 c 0,23,24
 1265 1120 1265 1120 1408 1033 c 128,-1,25
 1551 946 1551 946 1551 760 c 2,26,-1
 1551 641 l 1,27,-1
 960 362 l 1,28,-1
 960 163 l 1,29,30
 965 158 965 158 971 153 c 0,31,32
 1014 120 1014 120 1083.5 120 c 128,-1,33
 1153 120 1153 120 1196 153 c 0,34,35
 1236 184 1236 184 1236 242 c 2,36,-1
 1236 320 l 1,37,-1
 1541 465 l 1,38,-1
 1551 465 l 1,39,-1
 1551 340 l 2,40,41
 1551 154 1551 154 1408 67 c 128,-1,42
 1265 -20 1265 -20 1086 -20 c 0,43,44
 932 -20 932 -20 805 44 c 1,45,-1
 670 -20 l 1,46,-1
 660 -20 l 1,47,-1
 660 16 l 1,48,49
 598 -20 598 -20 500 -20 c 0,0,1
503 120 m 0,50,51
 577 120 577 120 625 153 c 0,52,53
 665 179 665 179 665 242 c 2,54,-1
 665 452 l 2,55,56
 665 509 665 509 625 541 c 0,57,58
 584 574 584 574 502 574 c 0,59,60
 433 574 433 574 390 541 c 0,61,62
 350 512 350 512 350 452 c 2,63,-1
 350 242 l 2,64,65
 350 182 350 182 390 153 c 0,66,67
 436 120 436 120 503 120 c 0,50,51
960 537 m 1,68,-1
 1241 670 l 1,69,-1
 1241 858 l 2,70,71
 1239 918 1239 918 1201 947 c 0,72,73
 1158 980 1158 980 1086 980 c 0,74,75
 1015 980 1015 980 971 947 c 0,76,77
 939 925 939 925 933 882 c 1,78,79
 960 820 960 820 960 741 c 2,80,-1
 960 537 l 1,68,-1
EndSplineSet
Validated: 19457
EndChar

StartChar: S
Encoding: 83 83 218
Width: 1170
Flags: W
HStem: -20 129<412.613 731.457> 751 167<485.531 735.65> 1390 140<477.161 692.876>
VStem: 30 335<213.473 385.793> 118 330<947.667 1338.76> 780 340<212.13 691.421>
LayerCount: 2
Fore
SplineSet
574 -20 m 128,-1,1
 366 -20 366 -20 204 79 c 0,2,3
 41 179 41 179 30 379 c 1,4,-1
 355 533 l 1,5,-1
 365 533 l 1,6,-1
 365 261 l 2,7,8
 365 177 365 177 423 147 c 0,9,10
 496 109 496 109 572.5 109 c 128,-1,11
 649 109 649 109 722 147 c 0,12,13
 780 178 780 178 780 261 c 2,14,-1
 780 598 l 2,15,16
 780 683 780 683 726 713 c 0,17,18
 658 751 658 751 583 751 c 0,19,20
 409 751 409 751 259 844 c 0,21,22
 118 931 118 931 118 1130 c 2,23,-1
 118 1161 l 2,24,25
 118 1351 118 1351 260.5 1440.5 c 128,-1,26
 403 1530 403 1530 583 1530 c 128,-1,27
 763 1530 763 1530 897 1446 c 0,28,29
 1035 1359 1035 1359 1047 1203 c 1,30,-1
 733 1054 l 1,31,-1
 723 1054 l 1,32,-1
 723 1277 l 2,33,34
 723 1340 723 1340 686 1361 c 0,35,36
 636 1390 636 1390 586 1390 c 0,37,38
 529 1390 529 1390 484 1361 c 0,39,40
 448 1338 448 1338 448 1277 c 2,41,-1
 448 1031 l 2,42,43
 448 968 448 968 484 947 c 0,44,45
 533 918 533 918 582 918 c 0,46,47
 800 918 800 918 957 820 c 0,48,49
 1120 719 1120 719 1120 487 c 2,50,-1
 1120 411 l 2,51,52
 1120 185 1120 185 951 82.5 c 128,-1,0
 782 -20 782 -20 574 -20 c 128,-1,1
EndSplineSet
Validated: 19457
EndChar

StartChar: s
Encoding: 115 115 219
Width: 958
Flags: W
HStem: -20 140<360.374 581.03> 515 140<405.698 591.157> 980 140<398.145 541.406>
VStem: 89 294<673.534 960.919> 608 310<158.681 499.486>
LayerCount: 2
Fore
SplineSet
469.5 -20 m 128,-1,1
 289 -20 289 -20 160 68 c 0,2,3
 32 155 32 155 20 288 c 1,4,-1
 322 430 l 1,5,-1
 332 430 l 1,6,-1
 332 230 l 2,7,8
 334 172 334 172 368 148 c 0,9,10
 408 120 408 120 475 120 c 128,-1,11
 542 120 542 120 575 145 c 128,-1,12
 608 170 608 170 608 230 c 2,13,-1
 608 421 l 2,14,15
 608 515 608 515 486 515 c 0,16,17
 300 515 300 515 198 583 c 0,18,19
 89 655 89 655 89 768 c 2,20,-1
 89 805 l 2,21,22
 89 967 89 967 206 1043.5 c 128,-1,23
 323 1120 323 1120 478.5 1120 c 128,-1,24
 634 1120 634 1120 746 1044 c 0,25,26
 855 969 855 969 865 869 c 1,27,-1
 571 729 l 1,28,-1
 561 729 l 1,29,-1
 561 904 l 2,30,31
 561 947 561 947 530 966 c 0,32,33
 507 980 507 980 478 980 c 0,34,35
 429 980 429 980 406 961.5 c 128,-1,36
 383 943 383 943 383 914 c 2,37,-1
 383 719 l 2,38,39
 383 690 383 690 405 673 c 0,40,41
 427 655 427 655 492 655 c 0,42,43
 691 655 691 655 797 582 c 0,44,45
 918 497 918 497 918 373 c 2,46,-1
 918 340 l 2,47,48
 918 155 918 155 784 67.5 c 128,-1,0
 650 -20 650 -20 469.5 -20 c 128,-1,1
EndSplineSet
Validated: 19457
EndChar

StartChar: circumflex
Encoding: 710 710 220
Width: 642
Flags: W
HStem: 1160 410
VStem: 30 582
LayerCount: 2
Fore
SplineSet
386 1570 m 1,0,-1
 396 1570 l 1,1,-1
 612 1245 l 1,2,-1
 434 1160 l 1,3,-1
 424 1160 l 1,4,-1
 323 1322 l 1,5,-1
 218 1160 l 1,6,-1
 208 1160 l 1,7,-1
 30 1245 l 1,8,-1
 206 1484 l 1,9,-1
 386 1570 l 1,0,-1
EndSplineSet
Validated: 19457
EndChar

StartChar: caron
Encoding: 711 711 221
Width: 642
Flags: W
HStem: 1160 410
VStem: 30 582
LayerCount: 2
Fore
SplineSet
208 1570 m 1,0,-1
 218 1570 l 1,1,-1
 319 1408 l 1,2,-1
 424 1570 l 1,3,-1
 434 1570 l 1,4,-1
 612 1485 l 1,5,-1
 436 1246 l 1,6,-1
 256 1160 l 1,7,-1
 246 1160 l 1,8,-1
 30 1485 l 1,9,-1
 208 1570 l 1,0,-1
EndSplineSet
Validated: 19457
EndChar

StartChar: uni02C9
Encoding: 713 713 222
Width: 680
Flags: W
HStem: 1270 190<116 564>
VStem: 30 620
LayerCount: 2
Fore
SplineSet
116 1460 m 1,0,-1
 650 1460 l 1,1,-1
 650 1450 l 1,2,-1
 564 1270 l 1,3,-1
 30 1270 l 1,4,-1
 30 1280 l 1,5,-1
 116 1460 l 1,0,-1
EndSplineSet
Validated: 19457
EndChar

StartChar: breve
Encoding: 728 728 223
Width: 680
Flags: W
HStem: 1240 200<172.531 507.469>
VStem: 30 620<1308.34 1346>
LayerCount: 2
Fore
SplineSet
120 1535 m 1,0,1
 190 1440 190 1440 340 1440 c 128,-1,2
 490 1440 490 1440 560 1535 c 1,3,-1
 650 1346 l 1,4,-1
 650 1336 l 1,5,6
 518 1240 518 1240 340 1240 c 128,-1,7
 162 1240 162 1240 30 1336 c 1,8,-1
 30 1346 l 1,9,-1
 120 1535 l 1,0,1
EndSplineSet
Validated: 19457
EndChar

StartChar: dotaccent
Encoding: 729 729 224
Width: 420
Flags: W
HStem: 1180 364<92.1309 326.338>
VStem: 30 360<1244.3 1481.73>
LayerCount: 2
Fore
SplineSet
210 1544 m 0,0,1
 286 1544 286 1544 338 1491 c 128,-1,2
 390 1438 390 1438 390 1363 c 0,3,4
 390 1289 390 1289 337 1234 c 0,5,6
 285 1180 285 1180 210 1180 c 0,7,8
 133 1180 133 1180 81.5 1234 c 128,-1,9
 30 1288 30 1288 30 1362 c 0,10,11
 30 1438 30 1438 82 1490 c 0,12,13
 135 1544 135 1544 210 1544 c 0,0,1
EndSplineSet
Validated: 19457
EndChar

StartChar: ring
Encoding: 730 730 225
Width: 456
Flags: W
HStem: 1160 112<160.15 297.342> 1448 112<159.9 297.373>
VStem: 30 111<1291.16 1428.97> 315 111<1292.14 1428.97>
LayerCount: 2
Fore
SplineSet
229.5 1448 m 128,-1,1
 192 1448 192 1448 166.5 1422 c 128,-1,2
 141 1396 141 1396 141 1360 c 128,-1,3
 141 1324 141 1324 166.5 1298 c 128,-1,4
 192 1272 192 1272 228 1272 c 256,5,6
 266 1272 266 1272 292 1300 c 0,7,8
 315 1325 315 1325 315 1360 c 0,9,10
 315 1396 315 1396 291 1422 c 128,-1,0
 267 1448 267 1448 229.5 1448 c 128,-1,1
230 1560 m 0,11,12
 310 1560 310 1560 368 1502 c 0,13,14
 426 1442 426 1442 426 1361 c 0,15,16
 426 1277 426 1277 368 1219 c 0,17,18
 309 1160 309 1160 228 1160 c 256,19,20
 148 1160 148 1160 88 1219 c 0,21,22
 30 1277 30 1277 30 1361 c 0,23,24
 30 1442 30 1442 88 1502 c 0,25,26
 146 1560 146 1560 230 1560 c 0,11,12
EndSplineSet
Validated: 19457
EndChar

StartChar: ogonek
Encoding: 731 731 226
Width: 399
Flags: W
HStem: -430 430 -20 20G<191 274>
VStem: 30 207<-275.73 -100.771>
LayerCount: 2
Fore
SplineSet
191 0 m 1,0,-1
 311 0 l 1,1,2
 237 -75 237 -75 237 -164 c 0,3,4
 237 -287 237 -287 369 -320 c 1,5,-1
 139 -430 l 1,6,-1
 129 -430 l 1,7,8
 30 -354 30 -354 30 -236 c 0,9,10
 30 -94 30 -94 191 0 c 1,0,-1
EndSplineSet
Validated: 19457
EndChar

StartChar: tilde
Encoding: 732 732 227
Width: 680
Flags: W
HStem: 1210 182<400.253 463.619> 1339 182<216.381 279.747>
VStem: 30 620
LayerCount: 2
Fore
SplineSet
640 1521 m 1,0,-1
 650 1521 l 1,1,2
 650 1210 650 1210 451 1210 c 0,3,4
 353 1210 353 1210 272 1305 c 0,5,6
 243 1339 243 1339 234 1339 c 0,7,8
 216 1339 216 1339 216 1294 c 1,9,-1
 40 1210 l 1,10,-1
 30 1210 l 1,11,12
 30 1521 30 1521 229 1521 c 0,13,14
 327 1521 327 1521 408 1426 c 0,15,16
 437 1392 437 1392 446 1392 c 0,17,18
 464 1392 464 1392 464 1437 c 1,19,-1
 640 1521 l 1,0,-1
EndSplineSet
Validated: 19457
EndChar

StartChar: hungarumlaut
Encoding: 733 733 228
Width: 668
Flags: W
HStem: 1170 390
VStem: 30 608
DStem2: 30 1246 199 1170 0.426352 0.904557<3.30711 347.131> 319 1246 488 1170 0.426352 0.904557<3.30711 347.131>
LayerCount: 2
Fore
SplineSet
477 1560 m 1,0,-1
 638 1483 l 1,1,-1
 488 1170 l 1,2,-1
 478 1170 l 1,3,-1
 319 1246 l 1,4,-1
 467 1560 l 1,5,-1
 477 1560 l 1,0,-1
188 1560 m 1,6,-1
 349 1483 l 1,7,-1
 199 1170 l 1,8,-1
 189 1170 l 1,9,-1
 30 1246 l 1,10,-1
 178 1560 l 1,11,-1
 188 1560 l 1,6,-1
EndSplineSet
Validated: 19457
EndChar

StartChar: uni1E9E
Encoding: 7838 7838 229
Width: 1285
Flags: W
HStem: -20 150<681 851.283> 1374 135<480 822.558>
VStem: 160 320<127 1374> 905 330<210.484 768.686>
LayerCount: 2
Fore
SplineSet
170 -20 m 1,0,-1
 160 -20 l 1,1,-1
 160 1383 l 1,2,-1
 428 1509 l 1,3,-1
 675 1509 l 2,4,5
 869 1509 869 1509 1002 1424 c 0,6,7
 1075 1377 1075 1377 1115 1302 c 1,8,-1
 951 952 l 1,9,10
 1013 928 1013 928 1067 896 c 0,11,12
 1235 796 1235 796 1235 567 c 2,13,-1
 1235 411 l 2,14,15
 1235 184 1235 184 1067 82 c 128,-1,16
 899 -20 899 -20 685 -20 c 2,17,-1
 614 -20 l 1,18,-1
 614 -10 l 1,19,-1
 681 130 l 1,20,21
 773 130 773 130 847 171 c 0,22,23
 905 203 905 203 905 295 c 2,24,-1
 905 683 l 2,25,26
 905 770 905 770 847 807 c 0,27,28
 782 848 782 848 678 848 c 2,29,-1
 613 848 l 1,30,-1
 613 858 l 1,31,-1
 826 1338 l 1,32,33
 758 1374 758 1374 665 1374 c 2,34,-1
 480 1374 l 1,35,-1
 480 127 l 1,36,-1
 170 -20 l 1,0,-1
EndSplineSet
Validated: 19457
EndChar

StartChar: uni203D
Encoding: 8253 8253 230
Width: 1320
Flags: W
HStem: -20 365<507.131 741.878> 1380 150<486.157 826.797>
VStem: 110 322<1099 1299.37> 445 360<42.5657 282.578> 521 230<743 963> 880 330<879.356 1299.37>
LayerCount: 2
Fore
SplineSet
625 -20 m 0,0,1
 549 -20 549 -20 497 34 c 128,-1,2
 445 88 445 88 445 162 c 0,3,4
 445 238 445 238 497 291 c 0,5,6
 550 345 550 345 625 345 c 128,-1,7
 700 345 700 345 752.5 291.5 c 128,-1,8
 805 238 805 238 805 163 c 128,-1,9
 805 88 805 88 752 34 c 128,-1,10
 699 -20 699 -20 625 -20 c 0,0,1
660 1530 m 128,-1,12
 874 1530 874 1530 1042 1428 c 128,-1,13
 1210 1326 1210 1326 1210 1099 c 2,14,-1
 1210 1056 l 2,15,16
 1210 784 1210 784 882 658 c 0,17,18
 791 623 791 623 791 506 c 1,19,-1
 478 359 l 1,20,-1
 468 359 l 1,21,22
 468 477 468 477 521 564 c 1,23,-1
 521 963 l 1,24,-1
 741 1068 l 1,25,-1
 751 1068 l 1,26,-1
 751 743 l 1,27,28
 880 828 880 828 880 1038 c 2,29,-1
 880 1215 l 2,30,31
 880 1303 880 1303 822 1339 c 0,32,33
 756 1380 756 1380 656 1380 c 128,-1,34
 556 1380 556 1380 490 1339 c 0,35,36
 432 1303 432 1303 432 1215 c 2,37,-1
 432 1099 l 1,38,-1
 120 952 l 1,39,-1
 110 952 l 1,40,-1
 110 1099 l 2,41,42
 110 1326 110 1326 278 1428 c 128,-1,11
 446 1530 446 1530 660 1530 c 128,-1,12
EndSplineSet
Validated: 19457
EndChar

